<svg xmlns="http://www.w3.org/2000/svg" viewBox="0 0 620 300" font-family="-apple-system, BlinkMacSystemFont, 'Segoe UI', Helvetica, Arial, sans-serif" role="img" aria-label="multi-head, grouped-query, and multi-query attention">
<text x="24.0" y="30.0" font-size="11" font-weight="700" fill="#6a6d73" letter-spacing="1">SHARING KEY / VALUE HEADS</text>
<text x="103.33333333333333" y="70" font-size="14" font-weight="700" text-anchor="middle" fill="#b04a3f">MHA</text>
<rect x="22.3" y="92" width="15" height="15" rx="2" fill="#3b3d42" opacity="0.7"/>
<rect x="43.3" y="92" width="15" height="15" rx="2" fill="#3b3d42" opacity="0.7"/>
<rect x="64.3" y="92" width="15" height="15" rx="2" fill="#3b3d42" opacity="0.7"/>
<rect x="85.3" y="92" width="15" height="15" rx="2" fill="#3b3d42" opacity="0.7"/>
<rect x="106.3" y="92" width="15" height="15" rx="2" fill="#3b3d42" opacity="0.7"/>
<rect x="127.3" y="92" width="15" height="15" rx="2" fill="#3b3d42" opacity="0.7"/>
<rect x="148.3" y="92" width="15" height="15" rx="2" fill="#3b3d42" opacity="0.7"/>
<rect x="169.3" y="92" width="15" height="15" rx="2" fill="#3b3d42" opacity="0.7"/>
<rect x="22.3" y="170" width="15" height="15" rx="2" fill="#b04a3f"/>
<path d="M 29.8 107 L 29.8 170" stroke="#b04a3f" stroke-width="0.9" opacity="0.5"/>
<rect x="43.3" y="170" width="15" height="15" rx="2" fill="#b04a3f"/>
<path d="M 50.8 107 L 50.8 170" stroke="#b04a3f" stroke-width="0.9" opacity="0.5"/>
<rect x="64.3" y="170" width="15" height="15" rx="2" fill="#b04a3f"/>
<path d="M 71.8 107 L 71.8 170" stroke="#b04a3f" stroke-width="0.9" opacity="0.5"/>
<rect x="85.3" y="170" width="15" height="15" rx="2" fill="#b04a3f"/>
<path d="M 92.8 107 L 92.8 170" stroke="#b04a3f" stroke-width="0.9" opacity="0.5"/>
<rect x="106.3" y="170" width="15" height="15" rx="2" fill="#b04a3f"/>
<path d="M 113.8 107 L 113.8 170" stroke="#b04a3f" stroke-width="0.9" opacity="0.5"/>
<rect x="127.3" y="170" width="15" height="15" rx="2" fill="#b04a3f"/>
<path d="M 134.8 107 L 134.8 170" stroke="#b04a3f" stroke-width="0.9" opacity="0.5"/>
<rect x="148.3" y="170" width="15" height="15" rx="2" fill="#b04a3f"/>
<path d="M 155.8 107 L 155.8 170" stroke="#b04a3f" stroke-width="0.9" opacity="0.5"/>
<rect x="169.3" y="170" width="15" height="15" rx="2" fill="#b04a3f"/>
<path d="M 176.8 107 L 176.8 170" stroke="#b04a3f" stroke-width="0.9" opacity="0.5"/>
<text x="103.33333333333333" y="84" font-size="9" text-anchor="middle" fill="#6a6d73">8 query heads</text>
<text x="103.33333333333333" y="200" font-size="10.5" text-anchor="middle" fill="#b04a3f" font-weight="600">8 KV heads</text>
<text x="103.33333333333333" y="215" font-size="9.5" text-anchor="middle" fill="#6a6d73">one KV head each</text>
<text x="310.0" y="70" font-size="14" font-weight="700" text-anchor="middle" fill="#274b6d">GQA</text>
<rect x="229.0" y="92" width="15" height="15" rx="2" fill="#3b3d42" opacity="0.7"/>
<rect x="250.0" y="92" width="15" height="15" rx="2" fill="#3b3d42" opacity="0.7"/>
<rect x="271.0" y="92" width="15" height="15" rx="2" fill="#3b3d42" opacity="0.7"/>
<rect x="292.0" y="92" width="15" height="15" rx="2" fill="#3b3d42" opacity="0.7"/>
<rect x="313.0" y="92" width="15" height="15" rx="2" fill="#3b3d42" opacity="0.7"/>
<rect x="334.0" y="92" width="15" height="15" rx="2" fill="#3b3d42" opacity="0.7"/>
<rect x="355.0" y="92" width="15" height="15" rx="2" fill="#3b3d42" opacity="0.7"/>
<rect x="376.0" y="92" width="15" height="15" rx="2" fill="#3b3d42" opacity="0.7"/>
<rect x="260.5" y="170" width="15" height="15" rx="2" fill="#274b6d"/>
<path d="M 236.5 107 L 268.0 170" stroke="#274b6d" stroke-width="0.9" opacity="0.5"/>
<path d="M 257.5 107 L 268.0 170" stroke="#274b6d" stroke-width="0.9" opacity="0.5"/>
<path d="M 278.5 107 L 268.0 170" stroke="#274b6d" stroke-width="0.9" opacity="0.5"/>
<path d="M 299.5 107 L 268.0 170" stroke="#274b6d" stroke-width="0.9" opacity="0.5"/>
<rect x="344.5" y="170" width="15" height="15" rx="2" fill="#274b6d"/>
<path d="M 320.5 107 L 352.0 170" stroke="#274b6d" stroke-width="0.9" opacity="0.5"/>
<path d="M 341.5 107 L 352.0 170" stroke="#274b6d" stroke-width="0.9" opacity="0.5"/>
<path d="M 362.5 107 L 352.0 170" stroke="#274b6d" stroke-width="0.9" opacity="0.5"/>
<path d="M 383.5 107 L 352.0 170" stroke="#274b6d" stroke-width="0.9" opacity="0.5"/>
<text x="310.0" y="84" font-size="9" text-anchor="middle" fill="#6a6d73">8 query heads</text>
<text x="310.0" y="200" font-size="10.5" text-anchor="middle" fill="#274b6d" font-weight="600">2 KV heads</text>
<text x="310.0" y="215" font-size="9.5" text-anchor="middle" fill="#6a6d73">shared in groups</text>
<text x="516.6666666666666" y="70" font-size="14" font-weight="700" text-anchor="middle" fill="#9c6b12">MQA</text>
<rect x="435.7" y="92" width="15" height="15" rx="2" fill="#3b3d42" opacity="0.7"/>
<rect x="456.7" y="92" width="15" height="15" rx="2" fill="#3b3d42" opacity="0.7"/>
<rect x="477.7" y="92" width="15" height="15" rx="2" fill="#3b3d42" opacity="0.7"/>
<rect x="498.7" y="92" width="15" height="15" rx="2" fill="#3b3d42" opacity="0.7"/>
<rect x="519.7" y="92" width="15" height="15" rx="2" fill="#3b3d42" opacity="0.7"/>
<rect x="540.7" y="92" width="15" height="15" rx="2" fill="#3b3d42" opacity="0.7"/>
<rect x="561.7" y="92" width="15" height="15" rx="2" fill="#3b3d42" opacity="0.7"/>
<rect x="582.7" y="92" width="15" height="15" rx="2" fill="#3b3d42" opacity="0.7"/>
<rect x="509.2" y="170" width="15" height="15" rx="2" fill="#9c6b12"/>
<path d="M 443.2 107 L 516.7 170" stroke="#9c6b12" stroke-width="0.9" opacity="0.5"/>
<path d="M 464.2 107 L 516.7 170" stroke="#9c6b12" stroke-width="0.9" opacity="0.5"/>
<path d="M 485.2 107 L 516.7 170" stroke="#9c6b12" stroke-width="0.9" opacity="0.5"/>
<path d="M 506.2 107 L 516.7 170" stroke="#9c6b12" stroke-width="0.9" opacity="0.5"/>
<path d="M 527.2 107 L 516.7 170" stroke="#9c6b12" stroke-width="0.9" opacity="0.5"/>
<path d="M 548.2 107 L 516.7 170" stroke="#9c6b12" stroke-width="0.9" opacity="0.5"/>
<path d="M 569.2 107 L 516.7 170" stroke="#9c6b12" stroke-width="0.9" opacity="0.5"/>
<path d="M 590.2 107 L 516.7 170" stroke="#9c6b12" stroke-width="0.9" opacity="0.5"/>
<text x="516.6666666666666" y="84" font-size="9" text-anchor="middle" fill="#6a6d73">8 query heads</text>
<text x="516.6666666666666" y="200" font-size="10.5" text-anchor="middle" fill="#9c6b12" font-weight="600">1 KV head</text>
<text x="516.6666666666666" y="215" font-size="9.5" text-anchor="middle" fill="#6a6d73">one shared KV head</text>
<text x="310.0" y="288" font-size="10.5" text-anchor="middle" fill="#6a6d73" font-style="italic">Fewer KV heads → a smaller KV cache → longer context and bigger batches, at a little quality.</text>
</svg>