<svg xmlns="http://www.w3.org/2000/svg" viewBox="0 0 640 300" font-family="-apple-system, BlinkMacSystemFont, 'Segoe UI', Helvetica, Arial, sans-serif" role="img" aria-label="The query token 'it' attends most strongly to the key and value for 'cat'.">
<text x="30" y="30" font-size="11" font-weight="700" fill="#6a6d73" letter-spacing="1">QUERY</text>
<text x="232" y="30" font-size="11" font-weight="700" fill="#6a6d73" letter-spacing="1">KEYS &#183; VALUES</text>
<text x="512" y="30" font-size="11" font-weight="700" fill="#6a6d73" letter-spacing="1">OUTPUT</text>
<rect x="30" y="160.0" width="86" height="28" rx="6" fill="#274b6d" stroke="none"/>
<text x="73" y="179.0" font-size="13" font-weight="700" text-anchor="middle" fill="#ffffff">&#8220;it&#8221;</text>
<text x="73" y="206.0" font-size="10.5" text-anchor="middle" fill="#6a6d73">what am I</text>
<text x="73" y="219.0" font-size="10.5" text-anchor="middle" fill="#6a6d73">looking for?</text>
<rect x="232" y="92" width="150" height="28" rx="6" fill="#ffffff" stroke="#cfcdc4"/>
<text x="244" y="111" font-size="12" fill="#17181b">The</text>
<text x="370" y="111" font-size="10.5" text-anchor="end" fill="#6a6d73" font-variant="tabular-nums">0.05</text>
<path d="M 122 174.0 C 170 174.0, 190 106, 226 106" fill="none" stroke="#274b6d" stroke-width="1.25" opacity="0.26"/>
<path d="M 388 106 C 440 106, 460 174.0, 506 174.0" fill="none" stroke="#6b4f9c" stroke-width="1.25" opacity="0.26"/>
<rect x="232" y="126" width="150" height="28" rx="6" fill="#ffffff" stroke="#cfcdc4"/>
<text x="244" y="145" font-size="12" fill="#17181b">cat</text>
<text x="370" y="145" font-size="10.5" text-anchor="end" fill="#6a6d73" font-variant="tabular-nums">0.62</text>
<path d="M 122 174.0 C 170 174.0, 190 140, 226 140" fill="none" stroke="#274b6d" stroke-width="6.38" opacity="0.70"/>
<path d="M 388 140 C 440 140, 460 174.0, 506 174.0" fill="none" stroke="#6b4f9c" stroke-width="6.38" opacity="0.70"/>
<rect x="232" y="160" width="150" height="28" rx="6" fill="#ffffff" stroke="#cfcdc4"/>
<text x="244" y="179" font-size="12" fill="#17181b">sat</text>
<text x="370" y="179" font-size="10.5" text-anchor="end" fill="#6a6d73" font-variant="tabular-nums">0.14</text>
<path d="M 122 174.0 C 170 174.0, 190 174, 226 174" fill="none" stroke="#274b6d" stroke-width="2.06" opacity="0.33"/>
<path d="M 388 174 C 440 174, 460 174.0, 506 174.0" fill="none" stroke="#6b4f9c" stroke-width="2.06" opacity="0.33"/>
<rect x="232" y="194" width="150" height="28" rx="6" fill="#ffffff" stroke="#cfcdc4"/>
<text x="244" y="213" font-size="12" fill="#17181b">on</text>
<text x="370" y="213" font-size="10.5" text-anchor="end" fill="#6a6d73" font-variant="tabular-nums">0.07</text>
<path d="M 122 174.0 C 170 174.0, 190 208, 226 208" fill="none" stroke="#274b6d" stroke-width="1.43" opacity="0.27"/>
<path d="M 388 208 C 440 208, 460 174.0, 506 174.0" fill="none" stroke="#6b4f9c" stroke-width="1.43" opacity="0.27"/>
<rect x="232" y="228" width="150" height="28" rx="6" fill="#ffffff" stroke="#cfcdc4"/>
<text x="244" y="247" font-size="12" fill="#17181b">it</text>
<text x="370" y="247" font-size="10.5" text-anchor="end" fill="#6a6d73" font-variant="tabular-nums">0.12</text>
<path d="M 122 174.0 C 170 174.0, 190 242, 226 242" fill="none" stroke="#274b6d" stroke-width="1.88" opacity="0.31"/>
<path d="M 388 242 C 440 242, 460 174.0, 506 174.0" fill="none" stroke="#6b4f9c" stroke-width="1.88" opacity="0.31"/>
<rect x="512" y="160.0" width="98" height="28" rx="6" fill="#eaf0f6" stroke="#274b6d"/>
<text x="561" y="179.0" font-size="11.5" font-weight="600" text-anchor="middle" fill="#274b6d">weighted mix</text>
<text x="561" y="206.0" font-size="10.5" text-anchor="middle" fill="#6a6d73">mostly the value</text>
<text x="561" y="219.0" font-size="10.5" text-anchor="middle" fill="#6a6d73">for &#8220;cat&#8221;</text>
<text x="320.0" y="290" font-size="10.5" text-anchor="middle" fill="#6a6d73" font-style="italic">Thicker arrow = larger softmax weight. No entry is ever missed; each is returned in proportion to its match.</text>
</svg>