<?xml version="1.0" encoding="utf-8" standalone="no"?>
<!DOCTYPE svg PUBLIC "-//W3C//DTD SVG 1.1//EN"
  "http://www.w3.org/Graphics/SVG/1.1/DTD/svg11.dtd">
<svg xmlns:xlink="http://www.w3.org/1999/xlink" width="445.070312pt" height="255.03525pt" viewBox="0 0 445.070312 255.03525" xmlns="http://www.w3.org/2000/svg" version="1.1">
 <metadata>
  <rdf:RDF xmlns:dc="http://purl.org/dc/elements/1.1/" xmlns:cc="http://creativecommons.org/ns#" xmlns:rdf="http://www.w3.org/1999/02/22-rdf-syntax-ns#">
   <cc:Work>
    <dc:type rdf:resource="http://purl.org/dc/dcmitype/StillImage"/>
    <dc:date>2026-07-16T12:03:36.316606</dc:date>
    <dc:format>image/svg+xml</dc:format>
    <dc:creator>
     <cc:Agent>
      <dc:title>Matplotlib v3.9.4, https://matplotlib.org/</dc:title>
     </cc:Agent>
    </dc:creator>
   </cc:Work>
  </rdf:RDF>
 </metadata>
 <defs>
  <style type="text/css">*{stroke-linejoin: round; stroke-linecap: butt}</style>
 </defs>
 <g id="figure_1">
  <g id="patch_1">
   <path d="M 0 255.03525 
L 445.070312 255.03525 
L 445.070312 0 
L 0 0 
L 0 255.03525 
z
" style="fill: none"/>
  </g>
  <g id="axes_1">
   <g id="patch_2">
    <path d="M 42.180312 220.382438 
L 432.780313 220.382438 
L 432.780313 20.798438 
L 42.180312 20.798438 
L 42.180312 220.382438 
z
" style="fill: none"/>
   </g>
   <g id="matplotlib.axis_1">
    <g id="xtick_1">
     <g id="line2d_1">
      <path d="M 73.017155 220.382438 
L 73.017155 20.798438 
" clip-path="url(#peb9c4fdb38)" style="fill: none; stroke: #e4e3dd; stroke-opacity: 0.6; stroke-width: 0.8; stroke-linecap: square"/>
     </g>
     <g id="line2d_2">
      <defs>
       <path id="m685a3f080b" d="M 0 0 
L 0 3.5 
" style="stroke: #6a6d73; stroke-width: 0.8"/>
      </defs>
      <g>
       <use xlink:href="#m685a3f080b" x="73.017155" y="220.382438" style="fill: #6a6d73; stroke: #6a6d73; stroke-width: 0.8"/>
      </g>
     </g>
     <g id="text_1">
      <text style="fill: #6a6d73; font: 8px 'DejaVu Sans', 'Helvetica', 'Arial', sans-serif; text-anchor: middle" x="73.017155" y="233.461188" transform="rotate(-0 73.017155 233.461188)">10</text>
     </g>
    </g>
    <g id="xtick_2">
     <g id="line2d_3">
      <path d="M 124.411891 220.382438 
L 124.411891 20.798438 
" clip-path="url(#peb9c4fdb38)" style="fill: none; stroke: #e4e3dd; stroke-opacity: 0.6; stroke-width: 0.8; stroke-linecap: square"/>
     </g>
     <g id="line2d_4">
      <g>
       <use xlink:href="#m685a3f080b" x="124.411891" y="220.382438" style="fill: #6a6d73; stroke: #6a6d73; stroke-width: 0.8"/>
      </g>
     </g>
     <g id="text_2">
      <text style="fill: #6a6d73; font: 8px 'DejaVu Sans', 'Helvetica', 'Arial', sans-serif; text-anchor: middle" x="124.411891" y="233.461188" transform="rotate(-0 124.411891 233.461188)">20</text>
     </g>
    </g>
    <g id="xtick_3">
     <g id="line2d_5">
      <path d="M 175.806628 220.382438 
L 175.806628 20.798438 
" clip-path="url(#peb9c4fdb38)" style="fill: none; stroke: #e4e3dd; stroke-opacity: 0.6; stroke-width: 0.8; stroke-linecap: square"/>
     </g>
     <g id="line2d_6">
      <g>
       <use xlink:href="#m685a3f080b" x="175.806628" y="220.382438" style="fill: #6a6d73; stroke: #6a6d73; stroke-width: 0.8"/>
      </g>
     </g>
     <g id="text_3">
      <text style="fill: #6a6d73; font: 8px 'DejaVu Sans', 'Helvetica', 'Arial', sans-serif; text-anchor: middle" x="175.806628" y="233.461188" transform="rotate(-0 175.806628 233.461188)">30</text>
     </g>
    </g>
    <g id="xtick_4">
     <g id="line2d_7">
      <path d="M 227.201365 220.382438 
L 227.201365 20.798438 
" clip-path="url(#peb9c4fdb38)" style="fill: none; stroke: #e4e3dd; stroke-opacity: 0.6; stroke-width: 0.8; stroke-linecap: square"/>
     </g>
     <g id="line2d_8">
      <g>
       <use xlink:href="#m685a3f080b" x="227.201365" y="220.382438" style="fill: #6a6d73; stroke: #6a6d73; stroke-width: 0.8"/>
      </g>
     </g>
     <g id="text_4">
      <text style="fill: #6a6d73; font: 8px 'DejaVu Sans', 'Helvetica', 'Arial', sans-serif; text-anchor: middle" x="227.201365" y="233.461188" transform="rotate(-0 227.201365 233.461188)">40</text>
     </g>
    </g>
    <g id="xtick_5">
     <g id="line2d_9">
      <path d="M 278.596102 220.382438 
L 278.596102 20.798438 
" clip-path="url(#peb9c4fdb38)" style="fill: none; stroke: #e4e3dd; stroke-opacity: 0.6; stroke-width: 0.8; stroke-linecap: square"/>
     </g>
     <g id="line2d_10">
      <g>
       <use xlink:href="#m685a3f080b" x="278.596102" y="220.382438" style="fill: #6a6d73; stroke: #6a6d73; stroke-width: 0.8"/>
      </g>
     </g>
     <g id="text_5">
      <text style="fill: #6a6d73; font: 8px 'DejaVu Sans', 'Helvetica', 'Arial', sans-serif; text-anchor: middle" x="278.596102" y="233.461188" transform="rotate(-0 278.596102 233.461188)">50</text>
     </g>
    </g>
    <g id="xtick_6">
     <g id="line2d_11">
      <path d="M 329.990839 220.382438 
L 329.990839 20.798438 
" clip-path="url(#peb9c4fdb38)" style="fill: none; stroke: #e4e3dd; stroke-opacity: 0.6; stroke-width: 0.8; stroke-linecap: square"/>
     </g>
     <g id="line2d_12">
      <g>
       <use xlink:href="#m685a3f080b" x="329.990839" y="220.382438" style="fill: #6a6d73; stroke: #6a6d73; stroke-width: 0.8"/>
      </g>
     </g>
     <g id="text_6">
      <text style="fill: #6a6d73; font: 8px 'DejaVu Sans', 'Helvetica', 'Arial', sans-serif; text-anchor: middle" x="329.990839" y="233.461188" transform="rotate(-0 329.990839 233.461188)">60</text>
     </g>
    </g>
    <g id="xtick_7">
     <g id="line2d_13">
      <path d="M 381.385576 220.382438 
L 381.385576 20.798438 
" clip-path="url(#peb9c4fdb38)" style="fill: none; stroke: #e4e3dd; stroke-opacity: 0.6; stroke-width: 0.8; stroke-linecap: square"/>
     </g>
     <g id="line2d_14">
      <g>
       <use xlink:href="#m685a3f080b" x="381.385576" y="220.382438" style="fill: #6a6d73; stroke: #6a6d73; stroke-width: 0.8"/>
      </g>
     </g>
     <g id="text_7">
      <text style="fill: #6a6d73; font: 8px 'DejaVu Sans', 'Helvetica', 'Arial', sans-serif; text-anchor: middle" x="381.385576" y="233.461188" transform="rotate(-0 381.385576 233.461188)">70</text>
     </g>
    </g>
    <g id="xtick_8">
     <g id="line2d_15">
      <path d="M 432.780312 220.382438 
L 432.780312 20.798438 
" clip-path="url(#peb9c4fdb38)" style="fill: none; stroke: #e4e3dd; stroke-opacity: 0.6; stroke-width: 0.8; stroke-linecap: square"/>
     </g>
     <g id="line2d_16">
      <g>
       <use xlink:href="#m685a3f080b" x="432.780312" y="220.382438" style="fill: #6a6d73; stroke: #6a6d73; stroke-width: 0.8"/>
      </g>
     </g>
     <g id="text_8">
      <text style="fill: #6a6d73; font: 8px 'DejaVu Sans', 'Helvetica', 'Arial', sans-serif; text-anchor: middle" x="432.780312" y="233.461188" transform="rotate(-0 432.780312 233.461188)">80</text>
     </g>
    </g>
    <g id="text_9">
     <text style="fill: #3b3d42; font: 9px 'DejaVu Sans', 'Helvetica', 'Arial', sans-serif; text-anchor: middle" x="237.480313" y="245.963531" transform="rotate(-0 237.480313 245.963531)">resident model size (GB) — set by parameters and quantization</text>
    </g>
   </g>
   <g id="matplotlib.axis_2">
    <g id="ytick_1">
     <g id="line2d_17">
      <path d="M 42.180312 220.382438 
L 432.780313 220.382438 
" clip-path="url(#peb9c4fdb38)" style="fill: none; stroke: #e4e3dd; stroke-opacity: 0.6; stroke-width: 0.8; stroke-linecap: square"/>
     </g>
     <g id="line2d_18">
      <defs>
       <path id="mfb65ad1735" d="M 0 0 
L -3.5 0 
" style="stroke: #6a6d73; stroke-width: 0.8"/>
      </defs>
      <g>
       <use xlink:href="#mfb65ad1735" x="42.180312" y="220.382438" style="fill: #6a6d73; stroke: #6a6d73; stroke-width: 0.8"/>
      </g>
     </g>
     <g id="text_10">
      <text style="fill: #6a6d73; font: 8px 'DejaVu Sans', 'Helvetica', 'Arial', sans-serif; text-anchor: end" x="35.180312" y="223.421813" transform="rotate(-0 35.180312 223.421813)">0</text>
     </g>
    </g>
    <g id="ytick_2">
     <g id="line2d_19">
      <path d="M 42.180312 182.366438 
L 432.780313 182.366438 
" clip-path="url(#peb9c4fdb38)" style="fill: none; stroke: #e4e3dd; stroke-opacity: 0.6; stroke-width: 0.8; stroke-linecap: square"/>
     </g>
     <g id="line2d_20">
      <g>
       <use xlink:href="#mfb65ad1735" x="42.180312" y="182.366438" style="fill: #6a6d73; stroke: #6a6d73; stroke-width: 0.8"/>
      </g>
     </g>
     <g id="text_11">
      <text style="fill: #6a6d73; font: 8px 'DejaVu Sans', 'Helvetica', 'Arial', sans-serif; text-anchor: end" x="35.180312" y="185.405813" transform="rotate(-0 35.180312 185.405813)">20</text>
     </g>
    </g>
    <g id="ytick_3">
     <g id="line2d_21">
      <path d="M 42.180312 144.350438 
L 432.780313 144.350438 
" clip-path="url(#peb9c4fdb38)" style="fill: none; stroke: #e4e3dd; stroke-opacity: 0.6; stroke-width: 0.8; stroke-linecap: square"/>
     </g>
     <g id="line2d_22">
      <g>
       <use xlink:href="#mfb65ad1735" x="42.180312" y="144.350438" style="fill: #6a6d73; stroke: #6a6d73; stroke-width: 0.8"/>
      </g>
     </g>
     <g id="text_12">
      <text style="fill: #6a6d73; font: 8px 'DejaVu Sans', 'Helvetica', 'Arial', sans-serif; text-anchor: end" x="35.180312" y="147.389813" transform="rotate(-0 35.180312 147.389813)">40</text>
     </g>
    </g>
    <g id="ytick_4">
     <g id="line2d_23">
      <path d="M 42.180312 106.334438 
L 432.780313 106.334438 
" clip-path="url(#peb9c4fdb38)" style="fill: none; stroke: #e4e3dd; stroke-opacity: 0.6; stroke-width: 0.8; stroke-linecap: square"/>
     </g>
     <g id="line2d_24">
      <g>
       <use xlink:href="#mfb65ad1735" x="42.180312" y="106.334438" style="fill: #6a6d73; stroke: #6a6d73; stroke-width: 0.8"/>
      </g>
     </g>
     <g id="text_13">
      <text style="fill: #6a6d73; font: 8px 'DejaVu Sans', 'Helvetica', 'Arial', sans-serif; text-anchor: end" x="35.180312" y="109.373813" transform="rotate(-0 35.180312 109.373813)">60</text>
     </g>
    </g>
    <g id="ytick_5">
     <g id="line2d_25">
      <path d="M 42.180312 68.318438 
L 432.780313 68.318438 
" clip-path="url(#peb9c4fdb38)" style="fill: none; stroke: #e4e3dd; stroke-opacity: 0.6; stroke-width: 0.8; stroke-linecap: square"/>
     </g>
     <g id="line2d_26">
      <g>
       <use xlink:href="#mfb65ad1735" x="42.180312" y="68.318438" style="fill: #6a6d73; stroke: #6a6d73; stroke-width: 0.8"/>
      </g>
     </g>
     <g id="text_14">
      <text style="fill: #6a6d73; font: 8px 'DejaVu Sans', 'Helvetica', 'Arial', sans-serif; text-anchor: end" x="35.180312" y="71.357813" transform="rotate(-0 35.180312 71.357813)">80</text>
     </g>
    </g>
    <g id="ytick_6">
     <g id="line2d_27">
      <path d="M 42.180312 30.302437 
L 432.780313 30.302437 
" clip-path="url(#peb9c4fdb38)" style="fill: none; stroke: #e4e3dd; stroke-opacity: 0.6; stroke-width: 0.8; stroke-linecap: square"/>
     </g>
     <g id="line2d_28">
      <g>
       <use xlink:href="#mfb65ad1735" x="42.180312" y="30.302437" style="fill: #6a6d73; stroke: #6a6d73; stroke-width: 0.8"/>
      </g>
     </g>
     <g id="text_15">
      <text style="fill: #6a6d73; font: 8px 'DejaVu Sans', 'Helvetica', 'Arial', sans-serif; text-anchor: end" x="35.180312" y="33.341813" transform="rotate(-0 35.180312 33.341813)">100</text>
     </g>
    </g>
    <g id="text_16">
     <text style="fill: #3b3d42; font: 9px 'DejaVu Sans', 'Helvetica', 'Arial', sans-serif; text-anchor: middle" x="14.038594" y="120.590438" transform="rotate(-90 14.038594 120.590438)">generation speed (tokens/sec)</text>
    </g>
   </g>
   <g id="patch_3">
    <path d="M 42.180312 220.382438 
L 432.780313 220.382438 
L 432.780313 210.878438 
L 42.180312 210.878438 
z
" clip-path="url(#peb9c4fdb38)" style="fill: #b04a3f; opacity: 0.06; stroke: #b04a3f; stroke-linejoin: miter"/>
   </g>
   <g id="line2d_29">
    <path d="M 42.180312 125.342438 
L 52.45926 157.022438 
L 62.738207 172.862438 
L 73.017155 182.366438 
L 83.296102 188.702438 
L 93.575049 193.228152 
L 103.853997 196.622438 
L 114.132944 199.262438 
L 124.411891 201.374438 
L 134.690839 203.102438 
L 144.969786 204.542438 
L 155.248734 205.760899 
L 165.527681 206.805295 
L 175.806628 207.710438 
L 186.085576 208.502438 
L 196.364523 209.201261 
L 206.64347 209.822438 
L 216.922418 210.378227 
L 227.201365 210.878438 
L 237.480312 211.331009 
L 247.75926 211.742438 
L 258.038207 212.11809 
L 268.317155 212.462438 
L 278.596102 212.779238 
L 288.875049 213.071668 
L 299.153997 213.342438 
L 309.432944 213.593866 
L 319.711891 213.827955 
L 329.990839 214.046438 
L 340.269786 214.250825 
L 350.548734 214.442438 
L 360.827681 214.622438 
L 371.106628 214.791849 
L 381.385576 214.95158 
L 391.664523 215.102438 
L 401.94347 215.24514 
L 412.222418 215.380332 
L 422.501365 215.508591 
L 432.780312 215.630438 
" clip-path="url(#peb9c4fdb38)" style="fill: none; stroke-dasharray: 3,2; stroke-dashoffset: 0; stroke: #cfcdc4"/>
   </g>
   <g id="line2d_30">
    <path d="M 42.180312 163.358438 
L 52.45926 182.366438 
L 62.738207 191.870438 
L 73.017155 197.572838 
L 83.296102 201.374438 
L 93.575049 204.089866 
L 103.853997 206.126438 
L 114.132944 207.710438 
L 124.411891 208.977638 
L 134.690839 210.014438 
L 144.969786 210.878438 
L 155.248734 211.609514 
L 165.527681 212.236152 
L 175.806628 212.779238 
L 186.085576 213.254438 
L 196.364523 213.673732 
L 206.64347 214.046438 
L 216.922418 214.379911 
L 227.201365 214.680038 
L 237.480312 214.95158 
L 247.75926 215.198438 
L 258.038207 215.423829 
L 268.317155 215.630438 
L 278.596102 215.820518 
L 288.875049 215.995976 
L 299.153997 216.158438 
L 309.432944 216.309295 
L 319.711891 216.449748 
L 329.990839 216.580838 
L 340.269786 216.70347 
L 350.548734 216.818438 
L 360.827681 216.926438 
L 371.106628 217.028085 
L 381.385576 217.123923 
L 391.664523 217.214438 
L 401.94347 217.300059 
L 412.222418 217.381174 
L 422.501365 217.45813 
L 432.780312 217.531238 
" clip-path="url(#peb9c4fdb38)" style="fill: none; stroke: #cfcdc4; stroke-width: 2; stroke-linecap: square"/>
   </g>
   <g id="line2d_31">
    <path d="M 42.180312 30.302437 
L 52.45926 93.662438 
L 62.738207 125.342438 
L 73.017155 144.350438 
L 83.296102 157.022438 
L 93.575049 166.073866 
L 103.853997 172.862438 
L 114.132944 178.142438 
L 124.411891 182.366438 
L 134.690839 185.822438 
L 144.969786 188.702438 
L 155.248734 191.139361 
L 165.527681 193.228152 
L 175.806628 195.038438 
L 186.085576 196.622438 
L 196.364523 198.020085 
L 206.64347 199.262438 
L 216.922418 200.374016 
L 227.201365 201.374438 
L 237.480312 202.27958 
L 247.75926 203.102438 
L 258.038207 203.853742 
L 268.317155 204.542438 
L 278.596102 205.176038 
L 288.875049 205.760899 
L 299.153997 206.302438 
L 309.432944 206.805295 
L 319.711891 207.273472 
L 329.990839 207.710438 
L 340.269786 208.119212 
L 350.548734 208.502438 
L 360.827681 208.862438 
L 371.106628 209.201261 
L 381.385576 209.520723 
L 391.664523 209.822438 
L 401.94347 210.107843 
L 412.222418 210.378227 
L 422.501365 210.634745 
L 432.780312 210.878438 
" clip-path="url(#peb9c4fdb38)" style="fill: none; stroke-dasharray: 3,2; stroke-dashoffset: 0; stroke: #6b4f9c"/>
   </g>
   <g id="line2d_32">
    <path d="M 42.180312 106.334438 
L 52.45926 144.350438 
L 62.738207 163.358438 
L 73.017155 174.763238 
L 83.296102 182.366438 
L 93.575049 187.797295 
L 103.853997 191.870438 
L 114.132944 195.038438 
L 124.411891 197.572838 
L 134.690839 199.646438 
L 144.969786 201.374438 
L 155.248734 202.836591 
L 165.527681 204.089866 
L 175.806628 205.176038 
L 186.085576 206.126438 
L 196.364523 206.965026 
L 206.64347 207.710438 
L 216.922418 208.377385 
L 227.201365 208.977638 
L 237.480312 209.520723 
L 247.75926 210.014438 
L 258.038207 210.46522 
L 268.317155 210.878438 
L 278.596102 211.258598 
L 288.875049 211.609514 
L 299.153997 211.934438 
L 309.432944 212.236152 
L 319.711891 212.517058 
L 329.990839 212.779238 
L 340.269786 213.024502 
L 350.548734 213.254438 
L 360.827681 213.470438 
L 371.106628 213.673732 
L 381.385576 213.865409 
L 391.664523 214.046438 
L 401.94347 214.217681 
L 412.222418 214.379911 
L 422.501365 214.533822 
L 432.780312 214.680038 
" clip-path="url(#peb9c4fdb38)" style="fill: none; stroke: #6b4f9c; stroke-width: 2; stroke-linecap: square"/>
   </g>
   <g id="line2d_33">
    <path d="M 57.659986 -1 
L 62.738207 30.302437 
L 73.017155 68.318438 
L 83.296102 93.662438 
L 93.575049 111.765295 
L 103.853997 125.342438 
L 114.132944 135.902438 
L 124.411891 144.350438 
L 134.690839 151.262438 
L 144.969786 157.022438 
L 155.248734 161.896284 
L 165.527681 166.073866 
L 175.806628 169.694438 
L 186.085576 172.862438 
L 196.364523 175.657732 
L 206.64347 178.142438 
L 216.922418 180.365595 
L 227.201365 182.366438 
L 237.480312 184.176723 
L 247.75926 185.822438 
L 258.038207 187.325046 
L 268.317155 188.702438 
L 278.596102 189.969638 
L 288.875049 191.139361 
L 299.153997 192.222438 
L 309.432944 193.228152 
L 319.711891 194.164506 
L 329.990839 195.038438 
L 340.269786 195.855986 
L 350.548734 196.622438 
L 360.827681 197.342438 
L 371.106628 198.020085 
L 381.385576 198.659009 
L 391.664523 199.262438 
L 401.94347 199.833248 
L 412.222418 200.374016 
L 422.501365 200.887053 
L 432.780312 201.374438 
" clip-path="url(#peb9c4fdb38)" style="fill: none; stroke-dasharray: 3,2; stroke-dashoffset: 0; stroke: #274b6d"/>
   </g>
   <g id="line2d_34">
    <path d="M 43.087935 -1 
L 52.45926 68.318438 
L 62.738207 106.334438 
L 73.017155 129.144038 
L 83.296102 144.350438 
L 93.575049 155.212152 
L 103.853997 163.358438 
L 114.132944 169.694438 
L 124.411891 174.763238 
L 134.690839 178.910438 
L 144.969786 182.366438 
L 155.248734 185.290745 
L 165.527681 187.797295 
L 175.806628 189.969638 
L 186.085576 191.870438 
L 196.364523 193.547614 
L 206.64347 195.038438 
L 216.922418 196.372332 
L 227.201365 197.572838 
L 237.480312 198.659009 
L 247.75926 199.646438 
L 258.038207 200.548003 
L 268.317155 201.374438 
L 278.596102 202.134758 
L 288.875049 202.836591 
L 299.153997 203.486438 
L 309.432944 204.089866 
L 319.711891 204.651679 
L 329.990839 205.176038 
L 340.269786 205.666567 
L 350.548734 206.126438 
L 360.827681 206.558438 
L 371.106628 206.965026 
L 381.385576 207.34838 
L 391.664523 207.710438 
L 401.94347 208.052924 
L 412.222418 208.377385 
L 422.501365 208.685207 
L 432.780312 208.977638 
" clip-path="url(#peb9c4fdb38)" style="fill: none; stroke: #274b6d; stroke-width: 2; stroke-linecap: square"/>
   </g>
   <g id="patch_4">
    <path d="M 42.180312 220.382438 
L 42.180312 20.798438 
" style="fill: none; stroke: #cfcdc4; stroke-width: 0.8; stroke-linejoin: miter; stroke-linecap: square"/>
   </g>
   <g id="patch_5">
    <path d="M 42.180312 220.382438 
L 432.780312 220.382438 
" style="fill: none; stroke: #cfcdc4; stroke-width: 0.8; stroke-linejoin: miter; stroke-linecap: square"/>
   </g>
   <g id="patch_6">
    <path d="M 260.107112 186.958774 
Q 231.751631 196.824411 203.396151 206.690049 
" style="fill: none; stroke: #9c6b12; stroke-width: 0.8; stroke-linecap: round"/>
   </g>
   <g id="text_17">
    <text style="fill: #9c6b12; font: 8px 'DejaVu Sans', 'Helvetica', 'Arial', sans-serif" transform="translate(247.75926 173.67973)">70B at 4-bit (~35 GB)</text>
    <text style="fill: #9c6b12; font: 8px 'DejaVu Sans', 'Helvetica', 'Arial', sans-serif" transform="translate(247.75926 182.63798)">on 400 GB/s: ~7 tok/s</text>
   </g>
   <g id="text_18">
    <text style="fill: #b04a3f; font: 7.5px 'DejaVu Sans', 'Helvetica', 'Arial', sans-serif; text-anchor: end" x="422.501365" y="216.580838" transform="rotate(-0 422.501365 216.580838)">painfully slow</text>
   </g>
   <g id="text_19">
    <text style="fill: #6a6d73; font: 7.5px 'DejaVu Sans', 'Helvetica', 'Arial', sans-serif" transform="translate(301.406469 92.233678)">solid = realistic (~60% of ceiling)</text>
    <text style="fill: #6a6d73; font: 7.5px 'DejaVu Sans', 'Helvetica', 'Arial', sans-serif" transform="translate(321.334203 100.632038)">dashed = theoretical ceiling</text>
   </g>
   <g id="text_20">
    <text style="fill: #17181b; font: 700 10px 'DejaVu Sans', 'Helvetica', 'Arial', sans-serif; text-anchor: start" x="42.180312" y="14.798438" transform="rotate(-0 42.180312 14.798438)">Decode speed is memory bandwidth ÷ model size, not FLOPs</text>
   </g>
   <g id="PathCollection_1">
    <defs>
     <path id="m1c4654ba5d" d="M 0 2.915476 
C 0.773193 2.915476 1.514823 2.608283 2.061553 2.061553 
C 2.608283 1.514823 2.915476 0.773193 2.915476 0 
C 2.915476 -0.773193 2.608283 -1.514823 2.061553 -2.061553 
C 1.514823 -2.608283 0.773193 -2.915476 0 -2.915476 
C -0.773193 -2.915476 -1.514823 -2.608283 -2.061553 -2.061553 
C -2.608283 -1.514823 -2.915476 -0.773193 -2.915476 0 
C -2.915476 0.773193 -2.608283 1.514823 -2.061553 2.061553 
C -1.514823 2.608283 -0.773193 2.915476 0 2.915476 
z
" style="stroke: #9c6b12"/>
    </defs>
    <g clip-path="url(#peb9c4fdb38)">
     <use xlink:href="#m1c4654ba5d" x="201.503997" y="207.34838" style="fill: #9c6b12; stroke: #9c6b12"/>
    </g>
   </g>
   <g id="legend_1">
    <g id="text_21">
     <text style="fill: #17181b; font: 8px 'DejaVu Sans', 'Helvetica', 'Arial', sans-serif; text-anchor: start" x="347.431562" y="34.077188" transform="rotate(-0 347.431562 34.077188)">memory bandwidth</text>
    </g>
    <g id="line2d_35">
     <path d="M 357.124687 43.019688 
L 365.124687 43.019688 
L 373.124687 43.019688 
" style="fill: none; stroke: #cfcdc4; stroke-width: 2; stroke-linecap: square"/>
    </g>
    <g id="text_22">
     <text style="fill: #17181b; font: 8px 'DejaVu Sans', 'Helvetica', 'Arial', sans-serif; text-anchor: start" x="379.524687" y="45.819688" transform="rotate(-0 379.524687 45.819688)">200 GB/s</text>
    </g>
    <g id="line2d_36">
     <path d="M 357.124687 54.762188 
L 365.124687 54.762188 
L 373.124687 54.762188 
" style="fill: none; stroke: #6b4f9c; stroke-width: 2; stroke-linecap: square"/>
    </g>
    <g id="text_23">
     <text style="fill: #17181b; font: 8px 'DejaVu Sans', 'Helvetica', 'Arial', sans-serif; text-anchor: start" x="379.524687" y="57.562188" transform="rotate(-0 379.524687 57.562188)">400 GB/s</text>
    </g>
    <g id="line2d_37">
     <path d="M 357.124687 66.504688 
L 365.124687 66.504688 
L 373.124687 66.504688 
" style="fill: none; stroke: #274b6d; stroke-width: 2; stroke-linecap: square"/>
    </g>
    <g id="text_24">
     <text style="fill: #17181b; font: 8px 'DejaVu Sans', 'Helvetica', 'Arial', sans-serif; text-anchor: start" x="379.524687" y="69.304688" transform="rotate(-0 379.524687 69.304688)">800 GB/s</text>
    </g>
   </g>
  </g>
 </g>
 <defs>
  <clipPath id="peb9c4fdb38">
   <rect x="42.180312" y="20.798438" width="390.6" height="199.584"/>
  </clipPath>
 </defs>
</svg>
