<?xml version="1.0" encoding="utf-8" standalone="no"?>
<!DOCTYPE svg PUBLIC "-//W3C//DTD SVG 1.1//EN"
  "http://www.w3.org/Graphics/SVG/1.1/DTD/svg11.dtd">
<svg xmlns:xlink="http://www.w3.org/1999/xlink" width="439.980312pt" height="260.57925pt" viewBox="0 0 439.980312 260.57925" xmlns="http://www.w3.org/2000/svg" version="1.1">
 <metadata>
  <rdf:RDF xmlns:dc="http://purl.org/dc/elements/1.1/" xmlns:cc="http://creativecommons.org/ns#" xmlns:rdf="http://www.w3.org/1999/02/22-rdf-syntax-ns#">
   <cc:Work>
    <dc:type rdf:resource="http://purl.org/dc/dcmitype/StillImage"/>
    <dc:date>2026-07-16T16:35:31.610612</dc:date>
    <dc:format>image/svg+xml</dc:format>
    <dc:creator>
     <cc:Agent>
      <dc:title>Matplotlib v3.9.4, https://matplotlib.org/</dc:title>
     </cc:Agent>
    </dc:creator>
   </cc:Work>
  </rdf:RDF>
 </metadata>
 <defs>
  <style type="text/css">*{stroke-linejoin: round; stroke-linecap: butt}</style>
 </defs>
 <g id="figure_1">
  <g id="patch_1">
   <path d="M 0 260.57925 
L 439.980312 260.57925 
L 439.980312 0 
L 0 0 
L 0 260.57925 
z
" style="fill: none"/>
  </g>
  <g id="axes_1">
   <g id="patch_2">
    <path d="M 42.180312 225.926438 
L 432.780313 225.926438 
L 432.780313 20.798438 
L 42.180312 20.798438 
L 42.180312 225.926438 
z
" style="fill: none"/>
   </g>
   <g id="matplotlib.axis_1">
    <g id="xtick_1">
     <g id="line2d_1">
      <defs>
       <path id="med57347189" d="M 0 0 
L 0 3.5 
" style="stroke: #6a6d73; stroke-width: 0.8"/>
      </defs>
      <g>
       <use xlink:href="#med57347189" x="59.934858" y="225.926438" style="fill: #6a6d73; stroke: #6a6d73; stroke-width: 0.8"/>
      </g>
     </g>
     <g id="text_1">
      <text style="fill: #6a6d73; font: 8px 'DejaVu Sans', 'Helvetica', 'Arial', sans-serif; text-anchor: middle" x="59.934858" y="239.005188" transform="rotate(-0 59.934858 239.005188)">2020</text>
     </g>
    </g>
    <g id="xtick_2">
     <g id="line2d_2">
      <g>
       <use xlink:href="#med57347189" x="119.116676" y="225.926438" style="fill: #6a6d73; stroke: #6a6d73; stroke-width: 0.8"/>
      </g>
     </g>
     <g id="text_2">
      <text style="fill: #6a6d73; font: 8px 'DejaVu Sans', 'Helvetica', 'Arial', sans-serif; text-anchor: middle" x="119.116676" y="239.005188" transform="rotate(-0 119.116676 239.005188)">2021</text>
     </g>
    </g>
    <g id="xtick_3">
     <g id="line2d_3">
      <g>
       <use xlink:href="#med57347189" x="178.298494" y="225.926438" style="fill: #6a6d73; stroke: #6a6d73; stroke-width: 0.8"/>
      </g>
     </g>
     <g id="text_3">
      <text style="fill: #6a6d73; font: 8px 'DejaVu Sans', 'Helvetica', 'Arial', sans-serif; text-anchor: middle" x="178.298494" y="239.005188" transform="rotate(-0 178.298494 239.005188)">2022</text>
     </g>
    </g>
    <g id="xtick_4">
     <g id="line2d_4">
      <g>
       <use xlink:href="#med57347189" x="237.480313" y="225.926438" style="fill: #6a6d73; stroke: #6a6d73; stroke-width: 0.8"/>
      </g>
     </g>
     <g id="text_4">
      <text style="fill: #6a6d73; font: 8px 'DejaVu Sans', 'Helvetica', 'Arial', sans-serif; text-anchor: middle" x="237.480313" y="239.005188" transform="rotate(-0 237.480313 239.005188)">2023</text>
     </g>
    </g>
    <g id="xtick_5">
     <g id="line2d_5">
      <g>
       <use xlink:href="#med57347189" x="296.662131" y="225.926438" style="fill: #6a6d73; stroke: #6a6d73; stroke-width: 0.8"/>
      </g>
     </g>
     <g id="text_5">
      <text style="fill: #6a6d73; font: 8px 'DejaVu Sans', 'Helvetica', 'Arial', sans-serif; text-anchor: middle" x="296.662131" y="239.005188" transform="rotate(-0 296.662131 239.005188)">2024</text>
     </g>
    </g>
    <g id="xtick_6">
     <g id="line2d_6">
      <g>
       <use xlink:href="#med57347189" x="355.843949" y="225.926438" style="fill: #6a6d73; stroke: #6a6d73; stroke-width: 0.8"/>
      </g>
     </g>
     <g id="text_6">
      <text style="fill: #6a6d73; font: 8px 'DejaVu Sans', 'Helvetica', 'Arial', sans-serif; text-anchor: middle" x="355.843949" y="239.005188" transform="rotate(-0 355.843949 239.005188)">2025</text>
     </g>
    </g>
    <g id="xtick_7">
     <g id="line2d_7">
      <g>
       <use xlink:href="#med57347189" x="415.025767" y="225.926438" style="fill: #6a6d73; stroke: #6a6d73; stroke-width: 0.8"/>
      </g>
     </g>
     <g id="text_7">
      <text style="fill: #6a6d73; font: 8px 'DejaVu Sans', 'Helvetica', 'Arial', sans-serif; text-anchor: middle" x="415.025767" y="239.005188" transform="rotate(-0 415.025767 239.005188)">2026</text>
     </g>
    </g>
    <g id="text_8">
     <text style="fill: #3b3d42; font: 9px 'DejaVu Sans', 'Helvetica', 'Arial', sans-serif; text-anchor: middle" x="237.480313" y="251.507531" transform="rotate(-0 237.480313 251.507531)">year</text>
    </g>
   </g>
   <g id="matplotlib.axis_2">
    <g id="ytick_1">
     <g id="line2d_8">
      <path d="M 42.180312 225.926438 
L 432.780313 225.926438 
" clip-path="url(#p8766b4177d)" style="fill: none; stroke: #e4e3dd; stroke-opacity: 0.5; stroke-width: 0.8; stroke-linecap: square"/>
     </g>
     <g id="line2d_9">
      <defs>
       <path id="mf0f2d388b6" d="M 0 0 
L -3.5 0 
" style="stroke: #6a6d73; stroke-width: 0.8"/>
      </defs>
      <g>
       <use xlink:href="#mf0f2d388b6" x="42.180312" y="225.926438" style="fill: #6a6d73; stroke: #6a6d73; stroke-width: 0.8"/>
      </g>
     </g>
     <g id="text_9">
      <text style="fill: #6a6d73; font: 8px 'DejaVu Sans', 'Helvetica', 'Arial', sans-serif; text-anchor: end" x="35.180312" y="228.965813" transform="rotate(-0 35.180312 228.965813)">0</text>
     </g>
    </g>
    <g id="ytick_2">
     <g id="line2d_10">
      <path d="M 42.180312 184.900838 
L 432.780313 184.900838 
" clip-path="url(#p8766b4177d)" style="fill: none; stroke: #e4e3dd; stroke-opacity: 0.5; stroke-width: 0.8; stroke-linecap: square"/>
     </g>
     <g id="line2d_11">
      <g>
       <use xlink:href="#mf0f2d388b6" x="42.180312" y="184.900838" style="fill: #6a6d73; stroke: #6a6d73; stroke-width: 0.8"/>
      </g>
     </g>
     <g id="text_10">
      <text style="fill: #6a6d73; font: 8px 'DejaVu Sans', 'Helvetica', 'Arial', sans-serif; text-anchor: end" x="35.180312" y="187.940213" transform="rotate(-0 35.180312 187.940213)">20</text>
     </g>
    </g>
    <g id="ytick_3">
     <g id="line2d_12">
      <path d="M 42.180312 143.875238 
L 432.780313 143.875238 
" clip-path="url(#p8766b4177d)" style="fill: none; stroke: #e4e3dd; stroke-opacity: 0.5; stroke-width: 0.8; stroke-linecap: square"/>
     </g>
     <g id="line2d_13">
      <g>
       <use xlink:href="#mf0f2d388b6" x="42.180312" y="143.875238" style="fill: #6a6d73; stroke: #6a6d73; stroke-width: 0.8"/>
      </g>
     </g>
     <g id="text_11">
      <text style="fill: #6a6d73; font: 8px 'DejaVu Sans', 'Helvetica', 'Arial', sans-serif; text-anchor: end" x="35.180312" y="146.914613" transform="rotate(-0 35.180312 146.914613)">40</text>
     </g>
    </g>
    <g id="ytick_4">
     <g id="line2d_14">
      <path d="M 42.180312 102.849638 
L 432.780313 102.849638 
" clip-path="url(#p8766b4177d)" style="fill: none; stroke: #e4e3dd; stroke-opacity: 0.5; stroke-width: 0.8; stroke-linecap: square"/>
     </g>
     <g id="line2d_15">
      <g>
       <use xlink:href="#mf0f2d388b6" x="42.180312" y="102.849638" style="fill: #6a6d73; stroke: #6a6d73; stroke-width: 0.8"/>
      </g>
     </g>
     <g id="text_12">
      <text style="fill: #6a6d73; font: 8px 'DejaVu Sans', 'Helvetica', 'Arial', sans-serif; text-anchor: end" x="35.180312" y="105.889013" transform="rotate(-0 35.180312 105.889013)">60</text>
     </g>
    </g>
    <g id="ytick_5">
     <g id="line2d_16">
      <path d="M 42.180312 61.824038 
L 432.780313 61.824038 
" clip-path="url(#p8766b4177d)" style="fill: none; stroke: #e4e3dd; stroke-opacity: 0.5; stroke-width: 0.8; stroke-linecap: square"/>
     </g>
     <g id="line2d_17">
      <g>
       <use xlink:href="#mf0f2d388b6" x="42.180312" y="61.824038" style="fill: #6a6d73; stroke: #6a6d73; stroke-width: 0.8"/>
      </g>
     </g>
     <g id="text_13">
      <text style="fill: #6a6d73; font: 8px 'DejaVu Sans', 'Helvetica', 'Arial', sans-serif; text-anchor: end" x="35.180312" y="64.863413" transform="rotate(-0 35.180312 64.863413)">80</text>
     </g>
    </g>
    <g id="ytick_6">
     <g id="line2d_18">
      <path d="M 42.180312 20.798438 
L 432.780313 20.798438 
" clip-path="url(#p8766b4177d)" style="fill: none; stroke: #e4e3dd; stroke-opacity: 0.5; stroke-width: 0.8; stroke-linecap: square"/>
     </g>
     <g id="line2d_19">
      <g>
       <use xlink:href="#mf0f2d388b6" x="42.180312" y="20.798438" style="fill: #6a6d73; stroke: #6a6d73; stroke-width: 0.8"/>
      </g>
     </g>
     <g id="text_14">
      <text style="fill: #6a6d73; font: 8px 'DejaVu Sans', 'Helvetica', 'Arial', sans-serif; text-anchor: end" x="35.180312" y="23.837812" transform="rotate(-0 35.180312 23.837812)">100</text>
     </g>
    </g>
    <g id="text_15">
     <text style="fill: #3b3d42; font: 9px 'DejaVu Sans', 'Helvetica', 'Arial', sans-serif; text-anchor: middle" x="14.038594" y="123.362438" transform="rotate(-90 14.038594 123.362438)">best reported accuracy (%)</text>
    </g>
   </g>
   <g id="line2d_20">
    <path d="M 59.934858 135.670118 
L 119.116676 113.106038 
L 178.298494 82.336838 
L 237.480313 49.516358 
L 296.662131 43.362518 
L 355.843949 41.311238 
" clip-path="url(#p8766b4177d)" style="fill: none; stroke: #274b6d; stroke-width: 1.9; stroke-linecap: square"/>
    <defs>
     <path id="m7d7690b5ef" d="M 0 2 
C 0.530406 2 1.03916 1.789267 1.414214 1.414214 
C 1.789267 1.03916 2 0.530406 2 0 
C 2 -0.530406 1.789267 -1.03916 1.414214 -1.414214 
C 1.03916 -1.789267 0.530406 -2 0 -2 
C -0.530406 -2 -1.03916 -1.789267 -1.414214 -1.414214 
C -1.789267 -1.03916 -2 -0.530406 -2 0 
C -2 0.530406 -1.789267 1.03916 -1.414214 1.414214 
C -1.03916 1.789267 -0.530406 2 0 2 
z
" style="stroke: #274b6d"/>
    </defs>
    <g clip-path="url(#p8766b4177d)">
     <use xlink:href="#m7d7690b5ef" x="59.934858" y="135.670118" style="fill: #274b6d; stroke: #274b6d"/>
     <use xlink:href="#m7d7690b5ef" x="119.116676" y="113.106038" style="fill: #274b6d; stroke: #274b6d"/>
     <use xlink:href="#m7d7690b5ef" x="178.298494" y="82.336838" style="fill: #274b6d; stroke: #274b6d"/>
     <use xlink:href="#m7d7690b5ef" x="237.480313" y="49.516358" style="fill: #274b6d; stroke: #274b6d"/>
     <use xlink:href="#m7d7690b5ef" x="296.662131" y="43.362518" style="fill: #274b6d; stroke: #274b6d"/>
     <use xlink:href="#m7d7690b5ef" x="355.843949" y="41.311238" style="fill: #274b6d; stroke: #274b6d"/>
    </g>
   </g>
   <g id="line2d_21">
    <path d="M 237.480313 164.388038 
L 296.662131 123.362438 
L 355.843949 74.131718 
L 415.025767 51.567638 
" clip-path="url(#p8766b4177d)" style="fill: none; stroke: #6b4f9c; stroke-width: 1.9; stroke-linecap: square"/>
    <defs>
     <path id="mf889b75643" d="M 0 2 
C 0.530406 2 1.03916 1.789267 1.414214 1.414214 
C 1.789267 1.03916 2 0.530406 2 0 
C 2 -0.530406 1.789267 -1.03916 1.414214 -1.414214 
C 1.03916 -1.789267 0.530406 -2 0 -2 
C -0.530406 -2 -1.03916 -1.789267 -1.414214 -1.414214 
C -1.789267 -1.03916 -2 -0.530406 -2 0 
C -2 0.530406 -1.789267 1.03916 -1.414214 1.414214 
C -1.03916 1.789267 -0.530406 2 0 2 
z
" style="stroke: #6b4f9c"/>
    </defs>
    <g clip-path="url(#p8766b4177d)">
     <use xlink:href="#mf889b75643" x="237.480313" y="164.388038" style="fill: #6b4f9c; stroke: #6b4f9c"/>
     <use xlink:href="#mf889b75643" x="296.662131" y="123.362438" style="fill: #6b4f9c; stroke: #6b4f9c"/>
     <use xlink:href="#mf889b75643" x="355.843949" y="74.131718" style="fill: #6b4f9c; stroke: #6b4f9c"/>
     <use xlink:href="#mf889b75643" x="415.025767" y="51.567638" style="fill: #6b4f9c; stroke: #6b4f9c"/>
    </g>
   </g>
   <g id="line2d_22">
    <path d="M 237.480313 221.823878 
L 296.662131 184.900838 
L 355.843949 123.362438 
L 415.025767 78.234278 
" clip-path="url(#p8766b4177d)" style="fill: none; stroke: #9c6b12; stroke-width: 1.9; stroke-linecap: square"/>
    <defs>
     <path id="m48c7a85806" d="M 0 2 
C 0.530406 2 1.03916 1.789267 1.414214 1.414214 
C 1.789267 1.03916 2 0.530406 2 0 
C 2 -0.530406 1.789267 -1.03916 1.414214 -1.414214 
C 1.03916 -1.789267 0.530406 -2 0 -2 
C -0.530406 -2 -1.03916 -1.789267 -1.414214 -1.414214 
C -1.789267 -1.03916 -2 -0.530406 -2 0 
C -2 0.530406 -1.789267 1.03916 -1.414214 1.414214 
C -1.03916 1.789267 -0.530406 2 0 2 
z
" style="stroke: #9c6b12"/>
    </defs>
    <g clip-path="url(#p8766b4177d)">
     <use xlink:href="#m48c7a85806" x="237.480313" y="221.823878" style="fill: #9c6b12; stroke: #9c6b12"/>
     <use xlink:href="#m48c7a85806" x="296.662131" y="184.900838" style="fill: #9c6b12; stroke: #9c6b12"/>
     <use xlink:href="#m48c7a85806" x="355.843949" y="123.362438" style="fill: #9c6b12; stroke: #9c6b12"/>
     <use xlink:href="#m48c7a85806" x="415.025767" y="78.234278" style="fill: #9c6b12; stroke: #9c6b12"/>
    </g>
   </g>
   <g id="line2d_23">
    <path d="M 42.180312 41.311238 
L 432.780313 41.311238 
" clip-path="url(#p8766b4177d)" style="fill: none; stroke-dasharray: 5,3; stroke-dashoffset: 0; stroke: #6a6d73"/>
   </g>
   <g id="patch_3">
    <path d="M 42.180312 225.926438 
L 42.180312 20.798438 
" style="fill: none; stroke: #cfcdc4; stroke-width: 0.8; stroke-linejoin: miter; stroke-linecap: square"/>
   </g>
   <g id="patch_4">
    <path d="M 42.180313 225.926438 
L 432.780312 225.926438 
" style="fill: none; stroke: #cfcdc4; stroke-width: 0.8; stroke-linejoin: miter; stroke-linecap: square"/>
   </g>
   <g id="text_16">
    <text style="fill: #6a6d73; font: 8px 'DejaVu Sans', 'Helvetica', 'Arial', sans-serif; text-anchor: start" x="65.85304" y="35.157398" transform="rotate(-0 65.85304 35.157398)">human-expert ceiling</text>
   </g>
   <g id="patch_5">
    <path d="M 302.593866 87.963626 
Q 328.251995 81.298831 353.910123 74.634036 
" style="fill: none; stroke: #6a6d73; stroke-width: 0.8; stroke-linecap: round"/>
   </g>
   <g id="text_17">
    <text style="fill: #3b3d42; font: 8px 'DejaVu Sans', 'Helvetica', 'Arial', sans-serif" transform="translate(243.398494 93.891388)">released low,</text>
    <text style="fill: #3b3d42; font: 8px 'DejaVu Sans', 'Helvetica', 'Arial', sans-serif" transform="translate(243.398494 102.849638)">saturates fast</text>
   </g>
   <g id="text_18">
    <text style="fill: #17181b; font: 700 10px 'DejaVu Sans', 'Helvetica', 'Arial', sans-serif; text-anchor: start" x="42.180312" y="14.798438" transform="rotate(-0 42.180312 14.798438)">Benchmarks expire on a schedule</text>
   </g>
   <g id="legend_1">
    <g id="line2d_24">
     <path d="M 328.565313 190.777688 
L 336.565313 190.777688 
L 344.565313 190.777688 
" style="fill: none; stroke: #274b6d; stroke-width: 1.9; stroke-linecap: square"/>
     <g>
      <use xlink:href="#m7d7690b5ef" x="336.565313" y="190.777688" style="fill: #274b6d; stroke: #274b6d"/>
     </g>
    </g>
    <g id="text_19">
     <text style="fill: #17181b; font: 8px 'DejaVu Sans', 'Helvetica', 'Arial', sans-serif; text-anchor: start" x="350.965313" y="193.577688" transform="rotate(-0 350.965313 193.577688)">MMLU (2020)</text>
    </g>
    <g id="line2d_25">
     <path d="M 328.565313 202.520188 
L 336.565313 202.520188 
L 344.565313 202.520188 
" style="fill: none; stroke: #6b4f9c; stroke-width: 1.9; stroke-linecap: square"/>
     <g>
      <use xlink:href="#mf889b75643" x="336.565313" y="202.520188" style="fill: #6b4f9c; stroke: #6b4f9c"/>
     </g>
    </g>
    <g id="text_20">
     <text style="fill: #17181b; font: 8px 'DejaVu Sans', 'Helvetica', 'Arial', sans-serif; text-anchor: start" x="350.965313" y="205.320188" transform="rotate(-0 350.965313 205.320188)">GPQA (2023)</text>
    </g>
    <g id="line2d_26">
     <path d="M 328.565313 214.262688 
L 336.565313 214.262688 
L 344.565313 214.262688 
" style="fill: none; stroke: #9c6b12; stroke-width: 1.9; stroke-linecap: square"/>
     <g>
      <use xlink:href="#m48c7a85806" x="336.565313" y="214.262688" style="fill: #9c6b12; stroke: #9c6b12"/>
     </g>
    </g>
    <g id="text_21">
     <text style="fill: #17181b; font: 8px 'DejaVu Sans', 'Helvetica', 'Arial', sans-serif; text-anchor: start" x="350.965313" y="217.062688" transform="rotate(-0 350.965313 217.062688)">SWE-bench (2023)</text>
    </g>
   </g>
  </g>
 </g>
 <defs>
  <clipPath id="p8766b4177d">
   <rect x="42.180312" y="20.798438" width="390.6" height="205.128"/>
  </clipPath>
 </defs>
</svg>
