<svg xmlns="http://www.w3.org/2000/svg" viewBox="0 0 690 300" font-family="-apple-system, BlinkMacSystemFont, 'Segoe UI', Helvetica, Arial, sans-serif" role="img" aria-label="The three collective operations on four GPUs, before and after.">
<defs><marker id="collarrow" viewBox="0 0 10 10" refX="9" refY="5" markerWidth="6" markerHeight="6" orient="auto-start-reverse"><path d="M 0 0 L 10 5 L 0 10 z" fill="#3b3d42"/></marker></defs>
<text x="30.0" y="36.0" font-size="11" font-weight="700" fill="#274b6d" letter-spacing="1">ALL-REDUCE</text>
<text x="30" y="52" font-size="10" fill="#6a6d73">everyone gets the full sum</text>
<text x="30" y="80" font-size="9" fill="#6a6d73">before</text>
<rect x="30.0" y="88.0" width="15" height="15" rx="2" fill="#274b6d" opacity="0.3"/>
<rect x="47.0" y="88.0" width="15" height="15" rx="2" fill="#274b6d" opacity="0.3"/>
<rect x="64.0" y="88.0" width="15" height="15" rx="2" fill="#274b6d" opacity="0.3"/>
<rect x="81.0" y="88.0" width="15" height="15" rx="2" fill="#274b6d" opacity="0.3"/>
<rect x="30.0" y="105.0" width="15" height="15" rx="2" fill="#274b6d" opacity="0.3"/>
<rect x="47.0" y="105.0" width="15" height="15" rx="2" fill="#274b6d" opacity="0.3"/>
<rect x="64.0" y="105.0" width="15" height="15" rx="2" fill="#274b6d" opacity="0.3"/>
<rect x="81.0" y="105.0" width="15" height="15" rx="2" fill="#274b6d" opacity="0.3"/>
<rect x="30.0" y="122.0" width="15" height="15" rx="2" fill="#274b6d" opacity="0.3"/>
<rect x="47.0" y="122.0" width="15" height="15" rx="2" fill="#274b6d" opacity="0.3"/>
<rect x="64.0" y="122.0" width="15" height="15" rx="2" fill="#274b6d" opacity="0.3"/>
<rect x="81.0" y="122.0" width="15" height="15" rx="2" fill="#274b6d" opacity="0.3"/>
<rect x="30.0" y="139.0" width="15" height="15" rx="2" fill="#274b6d" opacity="0.3"/>
<rect x="47.0" y="139.0" width="15" height="15" rx="2" fill="#274b6d" opacity="0.3"/>
<rect x="64.0" y="139.0" width="15" height="15" rx="2" fill="#274b6d" opacity="0.3"/>
<rect x="81.0" y="139.0" width="15" height="15" rx="2" fill="#274b6d" opacity="0.3"/>
<path d="M 63 162 L 63 176" stroke="#3b3d42" stroke-width="1.4" marker-end="url(#collarrow)"/>
<rect x="30.0" y="186.0" width="15" height="15" rx="2" fill="#274b6d" opacity="0.95"/>
<rect x="47.0" y="186.0" width="15" height="15" rx="2" fill="#274b6d" opacity="0.95"/>
<rect x="64.0" y="186.0" width="15" height="15" rx="2" fill="#274b6d" opacity="0.95"/>
<rect x="81.0" y="186.0" width="15" height="15" rx="2" fill="#274b6d" opacity="0.95"/>
<rect x="30.0" y="203.0" width="15" height="15" rx="2" fill="#274b6d" opacity="0.95"/>
<rect x="47.0" y="203.0" width="15" height="15" rx="2" fill="#274b6d" opacity="0.95"/>
<rect x="64.0" y="203.0" width="15" height="15" rx="2" fill="#274b6d" opacity="0.95"/>
<rect x="81.0" y="203.0" width="15" height="15" rx="2" fill="#274b6d" opacity="0.95"/>
<rect x="30.0" y="220.0" width="15" height="15" rx="2" fill="#274b6d" opacity="0.95"/>
<rect x="47.0" y="220.0" width="15" height="15" rx="2" fill="#274b6d" opacity="0.95"/>
<rect x="64.0" y="220.0" width="15" height="15" rx="2" fill="#274b6d" opacity="0.95"/>
<rect x="81.0" y="220.0" width="15" height="15" rx="2" fill="#274b6d" opacity="0.95"/>
<rect x="30.0" y="237.0" width="15" height="15" rx="2" fill="#274b6d" opacity="0.95"/>
<rect x="47.0" y="237.0" width="15" height="15" rx="2" fill="#274b6d" opacity="0.95"/>
<rect x="64.0" y="237.0" width="15" height="15" rx="2" fill="#274b6d" opacity="0.95"/>
<rect x="81.0" y="237.0" width="15" height="15" rx="2" fill="#274b6d" opacity="0.95"/>
<text x="30" y="270" font-size="9" fill="#6a6d73">after</text>
<text x="262.0" y="36.0" font-size="11" font-weight="700" fill="#3b3d42" letter-spacing="1">REDUCE-SCATTER</text>
<text x="262" y="52" font-size="10" fill="#6a6d73">each keeps one summed shard</text>
<text x="262" y="80" font-size="9" fill="#6a6d73">before</text>
<rect x="262.0" y="88.0" width="15" height="15" rx="2" fill="#274b6d" opacity="0.3"/>
<rect x="279.0" y="88.0" width="15" height="15" rx="2" fill="#274b6d" opacity="0.3"/>
<rect x="296.0" y="88.0" width="15" height="15" rx="2" fill="#274b6d" opacity="0.3"/>
<rect x="313.0" y="88.0" width="15" height="15" rx="2" fill="#274b6d" opacity="0.3"/>
<rect x="262.0" y="105.0" width="15" height="15" rx="2" fill="#274b6d" opacity="0.3"/>
<rect x="279.0" y="105.0" width="15" height="15" rx="2" fill="#274b6d" opacity="0.3"/>
<rect x="296.0" y="105.0" width="15" height="15" rx="2" fill="#274b6d" opacity="0.3"/>
<rect x="313.0" y="105.0" width="15" height="15" rx="2" fill="#274b6d" opacity="0.3"/>
<rect x="262.0" y="122.0" width="15" height="15" rx="2" fill="#274b6d" opacity="0.3"/>
<rect x="279.0" y="122.0" width="15" height="15" rx="2" fill="#274b6d" opacity="0.3"/>
<rect x="296.0" y="122.0" width="15" height="15" rx="2" fill="#274b6d" opacity="0.3"/>
<rect x="313.0" y="122.0" width="15" height="15" rx="2" fill="#274b6d" opacity="0.3"/>
<rect x="262.0" y="139.0" width="15" height="15" rx="2" fill="#274b6d" opacity="0.3"/>
<rect x="279.0" y="139.0" width="15" height="15" rx="2" fill="#274b6d" opacity="0.3"/>
<rect x="296.0" y="139.0" width="15" height="15" rx="2" fill="#274b6d" opacity="0.3"/>
<rect x="313.0" y="139.0" width="15" height="15" rx="2" fill="#274b6d" opacity="0.3"/>
<path d="M 295 162 L 295 176" stroke="#3b3d42" stroke-width="1.4" marker-end="url(#collarrow)"/>
<rect x="262.0" y="186.0" width="15" height="15" rx="2" fill="#274b6d" opacity="0.95"/>
<rect x="279.0" y="186.0" width="15" height="15" rx="2" fill="#e4e3dd" opacity="0.9"/>
<rect x="296.0" y="186.0" width="15" height="15" rx="2" fill="#e4e3dd" opacity="0.9"/>
<rect x="313.0" y="186.0" width="15" height="15" rx="2" fill="#e4e3dd" opacity="0.9"/>
<rect x="262.0" y="203.0" width="15" height="15" rx="2" fill="#e4e3dd" opacity="0.9"/>
<rect x="279.0" y="203.0" width="15" height="15" rx="2" fill="#274b6d" opacity="0.95"/>
<rect x="296.0" y="203.0" width="15" height="15" rx="2" fill="#e4e3dd" opacity="0.9"/>
<rect x="313.0" y="203.0" width="15" height="15" rx="2" fill="#e4e3dd" opacity="0.9"/>
<rect x="262.0" y="220.0" width="15" height="15" rx="2" fill="#e4e3dd" opacity="0.9"/>
<rect x="279.0" y="220.0" width="15" height="15" rx="2" fill="#e4e3dd" opacity="0.9"/>
<rect x="296.0" y="220.0" width="15" height="15" rx="2" fill="#274b6d" opacity="0.95"/>
<rect x="313.0" y="220.0" width="15" height="15" rx="2" fill="#e4e3dd" opacity="0.9"/>
<rect x="262.0" y="237.0" width="15" height="15" rx="2" fill="#e4e3dd" opacity="0.9"/>
<rect x="279.0" y="237.0" width="15" height="15" rx="2" fill="#e4e3dd" opacity="0.9"/>
<rect x="296.0" y="237.0" width="15" height="15" rx="2" fill="#e4e3dd" opacity="0.9"/>
<rect x="313.0" y="237.0" width="15" height="15" rx="2" fill="#274b6d" opacity="0.95"/>
<text x="262" y="270" font-size="9" fill="#6a6d73">after</text>
<text x="494.0" y="36.0" font-size="11" font-weight="700" fill="#3b3d42" letter-spacing="1">ALL-GATHER</text>
<text x="494" y="52" font-size="10" fill="#6a6d73">shards reassemble everywhere</text>
<text x="494" y="80" font-size="9" fill="#6a6d73">before</text>
<rect x="494.0" y="88.0" width="15" height="15" rx="2" fill="#274b6d" opacity="0.55"/>
<rect x="511.0" y="88.0" width="15" height="15" rx="2" fill="#e4e3dd" opacity="0.9"/>
<rect x="528.0" y="88.0" width="15" height="15" rx="2" fill="#e4e3dd" opacity="0.9"/>
<rect x="545.0" y="88.0" width="15" height="15" rx="2" fill="#e4e3dd" opacity="0.9"/>
<rect x="494.0" y="105.0" width="15" height="15" rx="2" fill="#e4e3dd" opacity="0.9"/>
<rect x="511.0" y="105.0" width="15" height="15" rx="2" fill="#274b6d" opacity="0.55"/>
<rect x="528.0" y="105.0" width="15" height="15" rx="2" fill="#e4e3dd" opacity="0.9"/>
<rect x="545.0" y="105.0" width="15" height="15" rx="2" fill="#e4e3dd" opacity="0.9"/>
<rect x="494.0" y="122.0" width="15" height="15" rx="2" fill="#e4e3dd" opacity="0.9"/>
<rect x="511.0" y="122.0" width="15" height="15" rx="2" fill="#e4e3dd" opacity="0.9"/>
<rect x="528.0" y="122.0" width="15" height="15" rx="2" fill="#274b6d" opacity="0.55"/>
<rect x="545.0" y="122.0" width="15" height="15" rx="2" fill="#e4e3dd" opacity="0.9"/>
<rect x="494.0" y="139.0" width="15" height="15" rx="2" fill="#e4e3dd" opacity="0.9"/>
<rect x="511.0" y="139.0" width="15" height="15" rx="2" fill="#e4e3dd" opacity="0.9"/>
<rect x="528.0" y="139.0" width="15" height="15" rx="2" fill="#e4e3dd" opacity="0.9"/>
<rect x="545.0" y="139.0" width="15" height="15" rx="2" fill="#274b6d" opacity="0.55"/>
<path d="M 527 162 L 527 176" stroke="#3b3d42" stroke-width="1.4" marker-end="url(#collarrow)"/>
<rect x="494.0" y="186.0" width="15" height="15" rx="2" fill="#274b6d" opacity="0.95"/>
<rect x="511.0" y="186.0" width="15" height="15" rx="2" fill="#274b6d" opacity="0.95"/>
<rect x="528.0" y="186.0" width="15" height="15" rx="2" fill="#274b6d" opacity="0.95"/>
<rect x="545.0" y="186.0" width="15" height="15" rx="2" fill="#274b6d" opacity="0.95"/>
<rect x="494.0" y="203.0" width="15" height="15" rx="2" fill="#274b6d" opacity="0.95"/>
<rect x="511.0" y="203.0" width="15" height="15" rx="2" fill="#274b6d" opacity="0.95"/>
<rect x="528.0" y="203.0" width="15" height="15" rx="2" fill="#274b6d" opacity="0.95"/>
<rect x="545.0" y="203.0" width="15" height="15" rx="2" fill="#274b6d" opacity="0.95"/>
<rect x="494.0" y="220.0" width="15" height="15" rx="2" fill="#274b6d" opacity="0.95"/>
<rect x="511.0" y="220.0" width="15" height="15" rx="2" fill="#274b6d" opacity="0.95"/>
<rect x="528.0" y="220.0" width="15" height="15" rx="2" fill="#274b6d" opacity="0.95"/>
<rect x="545.0" y="220.0" width="15" height="15" rx="2" fill="#274b6d" opacity="0.95"/>
<rect x="494.0" y="237.0" width="15" height="15" rx="2" fill="#274b6d" opacity="0.95"/>
<rect x="511.0" y="237.0" width="15" height="15" rx="2" fill="#274b6d" opacity="0.95"/>
<rect x="528.0" y="237.0" width="15" height="15" rx="2" fill="#274b6d" opacity="0.95"/>
<rect x="545.0" y="237.0" width="15" height="15" rx="2" fill="#274b6d" opacity="0.95"/>
<text x="494" y="270" font-size="9" fill="#6a6d73">after</text>
<text x="22" y="99" font-size="8.5" text-anchor="end" fill="#6a6d73">g0</text>
<text x="22" y="116" font-size="8.5" text-anchor="end" fill="#6a6d73">g1</text>
<text x="22" y="133" font-size="8.5" text-anchor="end" fill="#6a6d73">g2</text>
<text x="22" y="150" font-size="8.5" text-anchor="end" fill="#6a6d73">g3</text>
<text x="345.0" y="288" font-size="10.5" text-anchor="middle" fill="#3b3d42" font-style="italic">all-reduce = reduce-scatter + all-gather &#8212; each half moves about the array size per GPU, whatever the cluster size.</text>
</svg>