<svg xmlns="http://www.w3.org/2000/svg" viewBox="0 0 660 288" font-family="-apple-system, BlinkMacSystemFont, 'Segoe UI', Helvetica, Arial, sans-serif" role="img" aria-label="constrain the answer, not the reasoning">
<text x="24.0" y="28.0" font-size="11" font-weight="700" fill="#6a6d73" letter-spacing="1">TWO WAYS TO ASK FOR A STRUCTURED ANSWER</text>
<text x="24" y="62" font-size="11" font-weight="700" fill="#b04a3f">Constrained from token one</text>
<rect x="24.0" y="74.0" width="74.0" height="30.0" rx="6" fill="#eaf0f6" stroke="#274b6d"/>
<text x="61.0" y="93.2" font-size="12" font-weight="400" text-anchor="middle" fill="#274b6d">prompt</text>
<rect x="118" y="72" width="360" height="34" rx="6" fill="none" stroke="#b04a3f" stroke-dasharray="5 3"/>
<rect x="130.0" y="82" width="9" height="14" rx="2" fill="#b04a3f" opacity="0.5"/>
<rect x="142.0" y="82" width="9" height="14" rx="2" fill="#b04a3f" opacity="0.5"/>
<rect x="154.0" y="82" width="9" height="14" rx="2" fill="#b04a3f" opacity="0.5"/>
<rect x="166.0" y="82" width="9" height="14" rx="2" fill="#b04a3f" opacity="0.5"/>
<rect x="178.0" y="82" width="9" height="14" rx="2" fill="#b04a3f" opacity="0.5"/>
<rect x="190.0" y="82" width="9" height="14" rx="2" fill="#b04a3f" opacity="0.5"/>
<rect x="202.0" y="82" width="9" height="14" rx="2" fill="#b04a3f" opacity="0.5"/>
<rect x="214.0" y="82" width="9" height="14" rx="2" fill="#b04a3f" opacity="0.5"/>
<rect x="226.0" y="82" width="9" height="14" rx="2" fill="#b04a3f" opacity="0.5"/>
<rect x="238.0" y="82" width="9" height="14" rx="2" fill="#b04a3f" opacity="0.5"/>
<rect x="250.0" y="82" width="9" height="14" rx="2" fill="#b04a3f" opacity="0.5"/>
<rect x="262.0" y="82" width="9" height="14" rx="2" fill="#b04a3f" opacity="0.5"/>
<rect x="274.0" y="82" width="9" height="14" rx="2" fill="#b04a3f" opacity="0.5"/>
<rect x="286.0" y="82" width="9" height="14" rx="2" fill="#b04a3f" opacity="0.5"/>
<rect x="298.0" y="82" width="9" height="14" rx="2" fill="#b04a3f" opacity="0.5"/>
<rect x="310.0" y="82" width="9" height="14" rx="2" fill="#b04a3f" opacity="0.5"/>
<rect x="322.0" y="82" width="9" height="14" rx="2" fill="#b04a3f" opacity="0.5"/>
<rect x="334.0" y="82" width="9" height="14" rx="2" fill="#b04a3f" opacity="0.5"/>
<rect x="346.0" y="82" width="9" height="14" rx="2" fill="#b04a3f" opacity="0.5"/>
<rect x="358.0" y="82" width="9" height="14" rx="2" fill="#b04a3f" opacity="0.5"/>
<rect x="370.0" y="82" width="9" height="14" rx="2" fill="#b04a3f" opacity="0.5"/>
<rect x="382.0" y="82" width="9" height="14" rx="2" fill="#b04a3f" opacity="0.5"/>
<rect x="394.0" y="82" width="9" height="14" rx="2" fill="#b04a3f" opacity="0.5"/>
<rect x="406.0" y="82" width="9" height="14" rx="2" fill="#b04a3f" opacity="0.5"/>
<rect x="418.0" y="82" width="9" height="14" rx="2" fill="#b04a3f" opacity="0.5"/>
<rect x="430.0" y="82" width="9" height="14" rx="2" fill="#b04a3f" opacity="0.5"/>
<rect x="442.0" y="82" width="9" height="14" rx="2" fill="#b04a3f" opacity="0.5"/>
<rect x="454.0" y="82" width="9" height="14" rx="2" fill="#b04a3f" opacity="0.5"/>
<rect x="466.0" y="82" width="9" height="14" rx="2" fill="#b04a3f" opacity="0.5"/>
<rect x="478.0" y="82" width="9" height="14" rx="2" fill="#b04a3f" opacity="0.5"/>
<text x="298" y="120" font-size="9.5" text-anchor="middle" fill="#b04a3f">every token forced to fit the schema — no scratch space</text>
<rect x="498.0" y="74.0" width="96.0" height="30.0" rx="6" fill="#b04a3f" stroke="none"/>
<text x="546.0" y="92.8" font-size="11" font-weight="400" text-anchor="middle" fill="#fff">shallow</text>
<path d="M 98 89 L 114 89" stroke="#cfcdc4" stroke-width="1.4" marker-end="url(#c1)"/>
<path d="M 493 89 L 494 89" stroke="#cfcdc4" stroke-width="1.4" marker-end="url(#c1)"/>
<text x="24" y="164" font-size="11" font-weight="700" fill="#274b6d">Free reasoning, then constrain the answer</text>
<rect x="24.0" y="176.0" width="74.0" height="30.0" rx="6" fill="#eaf0f6" stroke="#274b6d"/>
<text x="61.0" y="195.2" font-size="12" font-weight="400" text-anchor="middle" fill="#274b6d">prompt</text>
<rect x="118.0" y="184" width="9" height="14" rx="2" fill="#6b4f9c" opacity="0.55"/>
<rect x="130.0" y="184" width="9" height="14" rx="2" fill="#6b4f9c" opacity="0.55"/>
<rect x="142.0" y="184" width="9" height="14" rx="2" fill="#6b4f9c" opacity="0.55"/>
<rect x="154.0" y="184" width="9" height="14" rx="2" fill="#6b4f9c" opacity="0.55"/>
<rect x="166.0" y="184" width="9" height="14" rx="2" fill="#6b4f9c" opacity="0.55"/>
<rect x="178.0" y="184" width="9" height="14" rx="2" fill="#6b4f9c" opacity="0.55"/>
<rect x="190.0" y="184" width="9" height="14" rx="2" fill="#6b4f9c" opacity="0.55"/>
<rect x="202.0" y="184" width="9" height="14" rx="2" fill="#6b4f9c" opacity="0.55"/>
<rect x="214.0" y="184" width="9" height="14" rx="2" fill="#6b4f9c" opacity="0.55"/>
<rect x="226.0" y="184" width="9" height="14" rx="2" fill="#6b4f9c" opacity="0.55"/>
<rect x="238.0" y="184" width="9" height="14" rx="2" fill="#6b4f9c" opacity="0.55"/>
<rect x="250.0" y="184" width="9" height="14" rx="2" fill="#6b4f9c" opacity="0.55"/>
<rect x="262.0" y="184" width="9" height="14" rx="2" fill="#6b4f9c" opacity="0.55"/>
<rect x="274.0" y="184" width="9" height="14" rx="2" fill="#6b4f9c" opacity="0.55"/>
<rect x="286.0" y="184" width="9" height="14" rx="2" fill="#6b4f9c" opacity="0.55"/>
<rect x="298.0" y="184" width="9" height="14" rx="2" fill="#6b4f9c" opacity="0.55"/>
<rect x="310.0" y="184" width="9" height="14" rx="2" fill="#6b4f9c" opacity="0.55"/>
<rect x="322.0" y="184" width="9" height="14" rx="2" fill="#6b4f9c" opacity="0.55"/>
<rect x="334.0" y="184" width="9" height="14" rx="2" fill="#6b4f9c" opacity="0.55"/>
<rect x="346.0" y="184" width="9" height="14" rx="2" fill="#6b4f9c" opacity="0.55"/>
<rect x="358.0" y="184" width="9" height="14" rx="2" fill="#6b4f9c" opacity="0.55"/>
<rect x="370.0" y="184" width="9" height="14" rx="2" fill="#6b4f9c" opacity="0.55"/>
<rect x="382.0" y="184" width="9" height="14" rx="2" fill="#6b4f9c" opacity="0.55"/>
<rect x="394.0" y="184" width="9" height="14" rx="2" fill="#6b4f9c" opacity="0.55"/>
<rect x="406.0" y="184" width="9" height="14" rx="2" fill="#6b4f9c" opacity="0.55"/>
<rect x="418.0" y="184" width="9" height="14" rx="2" fill="#6b4f9c" opacity="0.55"/>
<rect x="430.0" y="184" width="9" height="14" rx="2" fill="#6b4f9c" opacity="0.55"/>
<rect x="442.0" y="184" width="9" height="14" rx="2" fill="#6b4f9c" opacity="0.55"/>
<rect x="454.0" y="184" width="9" height="14" rx="2" fill="#6b4f9c" opacity="0.55"/>
<rect x="466.0" y="184" width="9" height="14" rx="2" fill="#6b4f9c" opacity="0.55"/>
<text x="296.5" y="222" font-size="9.5" text-anchor="middle" fill="#6b4f9c">free chain of thought (unconstrained)</text>
<rect x="487" y="174" width="110" height="34" rx="6" fill="none" stroke="#274b6d" stroke-dasharray="5 3"/>
<rect x="497.0" y="184" width="9" height="14" rx="2" fill="#274b6d" opacity="0.7"/>
<rect x="509.0" y="184" width="9" height="14" rx="2" fill="#274b6d" opacity="0.7"/>
<rect x="521.0" y="184" width="9" height="14" rx="2" fill="#274b6d" opacity="0.7"/>
<rect x="533.0" y="184" width="9" height="14" rx="2" fill="#274b6d" opacity="0.7"/>
<rect x="545.0" y="184" width="9" height="14" rx="2" fill="#274b6d" opacity="0.7"/>
<rect x="557.0" y="184" width="9" height="14" rx="2" fill="#274b6d" opacity="0.7"/>
<text x="542" y="222" font-size="9.5" text-anchor="middle" fill="#274b6d">answer only</text>
<path d="M 98 191 L 114 191" stroke="#cfcdc4" stroke-width="1.4" marker-end="url(#c1)"/>
<text x="330.0" y="280" font-size="10.5" text-anchor="middle" fill="#6a6d73" font-style="italic">Same guarantee, more room to think: the mask is a gate at the exit, not a cage for the whole computation.</text>
<defs><marker id="c1" viewBox="0 0 10 10" refX="9" refY="5" markerWidth="6" markerHeight="6" orient="auto-start-reverse"><path d="M 0 0 L 10 5 L 0 10 z" fill="#cfcdc4"/></marker></defs>
</svg>