<svg xmlns="http://www.w3.org/2000/svg" viewBox="0 0 440 340" font-family="-apple-system, BlinkMacSystemFont, 'Segoe UI', Helvetica, Arial, sans-serif" role="img" aria-label="the decoder-only transformer stack">
<text x="24.0" y="28.0" font-size="11" font-weight="700" fill="#6a6d73" letter-spacing="1">DECODER-ONLY TRANSFORMER</text>
<rect x="100.0" y="280" width="240" height="40" rx="8" fill="#eaf0f6" stroke="#274b6d"/>
<text x="220.0" y="298" font-size="12.5" font-weight="700" text-anchor="middle" fill="#274b6d">token embeddings</text>
<text x="220.0" y="313" font-size="9.5" text-anchor="middle" fill="#6a6d73">ids → vectors</text>
<path d="M 220.0 280 L 220.0 266" stroke="#cfcdc4" stroke-width="1.6" marker-end="url(#e1)"/>
<rect x="110.0" y="214" width="240" height="40" rx="8" fill="#f0efe9" stroke="#cfcdc4"/>
<rect x="105.0" y="219" width="240" height="40" rx="8" fill="#f0efe9" stroke="#cfcdc4"/>
<rect x="100.0" y="224" width="240" height="40" rx="8" fill="#ffffff" stroke="#cfcdc4"/>
<text x="220.0" y="242" font-size="12.5" font-weight="700" text-anchor="middle" fill="#17181b">transformer block</text>
<text x="354.0" y="246" font-size="12" fill="#274b6d" font-weight="700">× L</text>
<text x="220.0" y="257" font-size="9.5" text-anchor="middle" fill="#6a6d73">attention, then FFN</text>
<path d="M 220.0 214 L 220.0 200" stroke="#cfcdc4" stroke-width="1.6" marker-end="url(#e1)"/>
<rect x="100.0" y="162" width="240" height="40" rx="8" fill="#ffffff" stroke="#cfcdc4"/>
<text x="220.0" y="180" font-size="12.5" font-weight="700" text-anchor="middle" fill="#17181b">final norm + unembed</text>
<text x="220.0" y="195" font-size="9.5" text-anchor="middle" fill="#6a6d73">vector → vocab scores</text>
<path d="M 220.0 162 L 220.0 148" stroke="#cfcdc4" stroke-width="1.6" marker-end="url(#e1)"/>
<rect x="100.0" y="110" width="240" height="40" rx="8" fill="#ffffff" stroke="#cfcdc4"/>
<text x="220.0" y="128" font-size="12.5" font-weight="700" text-anchor="middle" fill="#17181b">softmax</text>
<text x="220.0" y="143" font-size="9.5" text-anchor="middle" fill="#6a6d73">scores → probabilities</text>
<path d="M 220.0 110 L 220.0 96" stroke="#cfcdc4" stroke-width="1.6" marker-end="url(#e1)"/>
<rect x="131.0" y="78.72" width="26" height="13.280000000000001" rx="3" fill="#274b6d" opacity="0.3"/>
<rect x="169.0" y="74.75999999999999" width="26" height="17.240000000000002" rx="3" fill="#274b6d" opacity="0.3"/>
<rect x="207.0" y="54.96" width="26" height="37.04" rx="3" fill="#9c6b12" opacity="1.0"/>
<rect x="245.0" y="70.8" width="26" height="21.200000000000003" rx="3" fill="#274b6d" opacity="0.3"/>
<rect x="283.0" y="77.4" width="26" height="14.600000000000001" rx="3" fill="#274b6d" opacity="0.3"/>
<text x="220.0" y="46" font-size="10.5" text-anchor="middle" fill="#6a6d73">next-token distribution</text>
<defs><marker id="e1" viewBox="0 0 10 10" refX="9" refY="5" markerWidth="6" markerHeight="6" orient="auto-start-reverse"><path d="M 0 0 L 10 5 L 0 10 z" fill="#cfcdc4"/></marker></defs>
</svg>