<svg xmlns="http://www.w3.org/2000/svg" viewBox="0 0 680 320" font-family="-apple-system, BlinkMacSystemFont, 'Segoe UI', Helvetica, Arial, sans-serif" role="img" aria-label="masking logits to grammar-legal tokens">
<text x="24.0" y="30.0" font-size="11" font-weight="700" fill="#6a6d73" letter-spacing="1">RAW DISTRIBUTION</text>
<text x="560.0" y="30.0" font-size="11" font-weight="700" fill="#6a6d73" letter-spacing="1">AFTER MASK</text>
<text x="300" y="26" font-size="11" text-anchor="middle" font-weight="700" fill="#274b6d" letter-spacing="0.5">GRAMMAR: expecting a value</text>
<text x="24" y="67" font-size="12" font-family="'SF Mono', 'SFMono-Regular', ui-monospace, Menlo, Consolas, monospace" fill="#17181b">"</text>
<rect x="66" y="55" width="36.0" height="15" rx="3" fill="#274b6d" opacity="1.00"/>
<path d="M 224 62 L 294 62" stroke="#274b6d" stroke-width="1.3" opacity="0.7" marker-end="url(#g1)"/>
<text x="24" y="101" font-size="12" font-family="'SF Mono', 'SFMono-Regular', ui-monospace, Menlo, Consolas, monospace" fill="#17181b">42</text>
<rect x="66" y="89" width="27.0" height="15" rx="3" fill="#274b6d" opacity="1.00"/>
<path d="M 224 96 L 294 96" stroke="#274b6d" stroke-width="1.3" opacity="0.7" marker-end="url(#g1)"/>
<text x="24" y="135" font-size="12" font-family="'SF Mono', 'SFMono-Regular', ui-monospace, Menlo, Consolas, monospace" fill="#6a6d73">Sure</text>
<rect x="66" y="123" width="24.0" height="15" rx="3" fill="#6a6d73" opacity="0.30"/>
<text x="260" y="135" font-size="13" fill="#b04a3f">&#215;</text>
<text x="274" y="135" font-size="10" fill="#b04a3f">&#8722;&#8734;</text>
<text x="24" y="169" font-size="12" font-family="'SF Mono', 'SFMono-Regular', ui-monospace, Menlo, Consolas, monospace" fill="#17181b">{</text>
<rect x="66" y="157" width="16.5" height="15" rx="3" fill="#274b6d" opacity="1.00"/>
<path d="M 224 164 L 294 164" stroke="#274b6d" stroke-width="1.3" opacity="0.7" marker-end="url(#g1)"/>
<text x="24" y="203" font-size="12" font-family="'SF Mono', 'SFMono-Regular', ui-monospace, Menlo, Consolas, monospace" fill="#6a6d73">the</text>
<rect x="66" y="191" width="19.5" height="15" rx="3" fill="#6a6d73" opacity="0.30"/>
<text x="260" y="203" font-size="13" fill="#b04a3f">&#215;</text>
<text x="274" y="203" font-size="10" fill="#b04a3f">&#8722;&#8734;</text>
<text x="24" y="237" font-size="12" font-family="'SF Mono', 'SFMono-Regular', ui-monospace, Menlo, Consolas, monospace" fill="#6a6d73">}</text>
<rect x="66" y="225" width="15.0" height="15" rx="3" fill="#6a6d73" opacity="0.30"/>
<text x="260" y="237" font-size="13" fill="#b04a3f">&#215;</text>
<text x="274" y="237" font-size="10" fill="#b04a3f">&#8722;&#8734;</text>
<text x="24" y="271" font-size="12" font-family="'SF Mono', 'SFMono-Regular', ui-monospace, Menlo, Consolas, monospace" fill="#17181b">[</text>
<rect x="66" y="259" width="12.0" height="15" rx="3" fill="#274b6d" opacity="1.00"/>
<path d="M 224 266 L 294 266" stroke="#274b6d" stroke-width="1.3" opacity="0.7" marker-end="url(#g1)"/>
<rect x="300" y="48" width="10" height="238" rx="3" fill="#274b6d" opacity="0.9"/>
<text x="540" y="67" font-size="12" font-family="'SF Mono', 'SFMono-Regular', ui-monospace, Menlo, Consolas, monospace" text-anchor="end" fill="#17181b">"</text>
<rect x="560" y="55" width="36.6" height="15" rx="3" fill="#274b6d"/>
<text x="602.6" y="67" font-size="9.5" fill="#6a6d73" font-variant="tabular-nums">0.39</text>
<text x="540" y="101" font-size="12" font-family="'SF Mono', 'SFMono-Regular', ui-monospace, Menlo, Consolas, monospace" text-anchor="end" fill="#17181b">42</text>
<rect x="560" y="89" width="27.4" height="15" rx="3" fill="#274b6d"/>
<text x="593.4" y="101" font-size="9.5" fill="#6a6d73" font-variant="tabular-nums">0.30</text>
<text x="540" y="135" font-size="12" font-family="'SF Mono', 'SFMono-Regular', ui-monospace, Menlo, Consolas, monospace" text-anchor="end" fill="#17181b">{</text>
<rect x="560" y="123" width="16.8" height="15" rx="3" fill="#274b6d"/>
<text x="582.8" y="135" font-size="9.5" fill="#6a6d73" font-variant="tabular-nums">0.18</text>
<text x="540" y="169" font-size="12" font-family="'SF Mono', 'SFMono-Regular', ui-monospace, Menlo, Consolas, monospace" text-anchor="end" fill="#17181b">[</text>
<rect x="560" y="157" width="12.2" height="15" rx="3" fill="#274b6d"/>
<text x="578.2" y="169" font-size="9.5" fill="#6a6d73" font-variant="tabular-nums">0.13</text>
<path d="M 312 171.0 L 552 120.0" stroke="#cfcdc4" stroke-width="1.3" marker-end="url(#g1)"/>
<text x="340.0" y="310" font-size="10.5" text-anchor="middle" fill="#6a6d73" font-style="italic">Only tokens that keep the JSON valid survive; the rest go to negative infinity and the mass renormalizes over the legal set.</text>
<defs><marker id="g1" viewBox="0 0 10 10" refX="9" refY="5" markerWidth="6" markerHeight="6" orient="auto-start-reverse"><path d="M 0 0 L 10 5 L 0 10 z" fill="#274b6d"/></marker></defs>
</svg>