<svg xmlns="http://www.w3.org/2000/svg" viewBox="0 0 720 300" font-family="-apple-system, BlinkMacSystemFont, 'Segoe UI', Helvetica, Arial, sans-serif" role="img" aria-label="the N by M integration problem">
<text x="24.0" y="34.0" font-size="11" font-weight="700" fill="#6a6d73" letter-spacing="1">WITHOUT A PROTOCOL</text>
<path d="M 84 78 L 250 78" stroke="#cfcdc4" stroke-width="1" opacity="0.85"/>
<path d="M 84 78 L 250 150" stroke="#cfcdc4" stroke-width="1" opacity="0.85"/>
<path d="M 84 78 L 250 222" stroke="#cfcdc4" stroke-width="1" opacity="0.85"/>
<path d="M 84 150 L 250 78" stroke="#cfcdc4" stroke-width="1" opacity="0.85"/>
<path d="M 84 150 L 250 150" stroke="#cfcdc4" stroke-width="1" opacity="0.85"/>
<path d="M 84 150 L 250 222" stroke="#cfcdc4" stroke-width="1" opacity="0.85"/>
<path d="M 84 222 L 250 78" stroke="#cfcdc4" stroke-width="1" opacity="0.85"/>
<path d="M 84 222 L 250 150" stroke="#cfcdc4" stroke-width="1" opacity="0.85"/>
<path d="M 84 222 L 250 222" stroke="#cfcdc4" stroke-width="1" opacity="0.85"/>
<rect x="26" y="61.0" width="58" height="34" rx="7" fill="#eaf0f6" stroke="#274b6d"/>
<text x="55.0" y="82" font-size="11" font-weight="600" text-anchor="middle" fill="#274b6d">app 1</text>
<rect x="26" y="133.0" width="58" height="34" rx="7" fill="#eaf0f6" stroke="#274b6d"/>
<text x="55.0" y="154" font-size="11" font-weight="600" text-anchor="middle" fill="#274b6d">app 2</text>
<rect x="26" y="205.0" width="58" height="34" rx="7" fill="#eaf0f6" stroke="#274b6d"/>
<text x="55.0" y="226" font-size="11" font-weight="600" text-anchor="middle" fill="#274b6d">app 3</text>
<rect x="250" y="61.0" width="58" height="34" rx="7" fill="#ffffff" stroke="#cfcdc4"/>
<text x="279.0" y="82" font-size="11" font-weight="600" text-anchor="middle" fill="#3b3d42">tool 1</text>
<rect x="250" y="133.0" width="58" height="34" rx="7" fill="#ffffff" stroke="#cfcdc4"/>
<text x="279.0" y="154" font-size="11" font-weight="600" text-anchor="middle" fill="#3b3d42">tool 2</text>
<rect x="250" y="205.0" width="58" height="34" rx="7" fill="#ffffff" stroke="#cfcdc4"/>
<text x="279.0" y="226" font-size="11" font-weight="600" text-anchor="middle" fill="#3b3d42">tool 3</text>
<text x="169" y="272" font-size="11" text-anchor="middle" fill="#b04a3f" font-weight="600">3 &#215; 3 = 9 integrations</text>
<path d="M 372 46 L 372 254" stroke="#e4e3dd" stroke-width="1" stroke-dasharray="4 4"/>
<text x="398.0" y="34.0" font-size="11" font-weight="700" fill="#6a6d73" letter-spacing="1">WITH MCP</text>
<path d="M 456 78 L 548 150" stroke="#274b6d" stroke-width="1.3" opacity="0.7"/>
<path d="M 456 150 L 548 150" stroke="#274b6d" stroke-width="1.3" opacity="0.7"/>
<path d="M 456 222 L 548 150" stroke="#274b6d" stroke-width="1.3" opacity="0.7"/>
<path d="M 600 150 L 646 78" stroke="#274b6d" stroke-width="1.3" opacity="0.7"/>
<path d="M 600 150 L 646 150" stroke="#274b6d" stroke-width="1.3" opacity="0.7"/>
<path d="M 600 150 L 646 222" stroke="#274b6d" stroke-width="1.3" opacity="0.7"/>
<rect x="398" y="61.0" width="58" height="34" rx="7" fill="#eaf0f6" stroke="#274b6d"/>
<text x="427.0" y="82" font-size="11" font-weight="600" text-anchor="middle" fill="#274b6d">app 1</text>
<rect x="398" y="133.0" width="58" height="34" rx="7" fill="#eaf0f6" stroke="#274b6d"/>
<text x="427.0" y="154" font-size="11" font-weight="600" text-anchor="middle" fill="#274b6d">app 2</text>
<rect x="398" y="205.0" width="58" height="34" rx="7" fill="#eaf0f6" stroke="#274b6d"/>
<text x="427.0" y="226" font-size="11" font-weight="600" text-anchor="middle" fill="#274b6d">app 3</text>
<rect x="548" y="124" width="52" height="52" rx="10" fill="#274b6d" stroke="none"/>
<text x="574" y="155" font-size="12" font-weight="700" text-anchor="middle" fill="#ffffff">MCP</text>
<rect x="646" y="61.0" width="58" height="34" rx="7" fill="#ffffff" stroke="#cfcdc4"/>
<text x="675.0" y="82" font-size="11" font-weight="600" text-anchor="middle" fill="#3b3d42">tool 1</text>
<rect x="646" y="133.0" width="58" height="34" rx="7" fill="#ffffff" stroke="#cfcdc4"/>
<text x="675.0" y="154" font-size="11" font-weight="600" text-anchor="middle" fill="#3b3d42">tool 2</text>
<rect x="646" y="205.0" width="58" height="34" rx="7" fill="#ffffff" stroke="#cfcdc4"/>
<text x="675.0" y="226" font-size="11" font-weight="600" text-anchor="middle" fill="#3b3d42">tool 3</text>
<text x="546" y="272" font-size="11" text-anchor="middle" fill="#274b6d" font-weight="600">3 + 3 = 6 connections</text>
</svg>