<svg xmlns="http://www.w3.org/2000/svg" viewBox="0 0 620 300" font-family="-apple-system, BlinkMacSystemFont, 'Segoe UI', Helvetica, Arial, sans-serif" role="img" aria-label="mixture-of-experts routing">
<text x="24.0" y="30.0" font-size="11" font-weight="700" fill="#6a6d73" letter-spacing="1">MIXTURE OF EXPERTS</text>
<rect x="30.0" y="130.0" width="56.0" height="34.0" rx="6" fill="#eaf0f6" stroke="#274b6d"/>
<text x="58.0" y="151.2" font-size="12" font-weight="400" text-anchor="middle" fill="#274b6d">token</text>
<rect x="120.0" y="130.0" width="66.0" height="34.0" rx="6" fill="#274b6d" stroke="none"/>
<text x="153.0" y="151.2" font-size="12" font-weight="700" text-anchor="middle" fill="#fff">router</text>
<path d="M 86 147 L 116 147" stroke="#cfcdc4" stroke-width="1.5" marker-end="url(#m1)"/>
<rect x="300.0" y="60.0" width="150.0" height="26.0" rx="6" fill="#ffffff" stroke="#cfcdc4"/>
<text x="375.0" y="76.8" font-size="11" font-weight="400" text-anchor="middle" fill="#6a6d73">expert 1</text>
<path d="M 186 147 C 240 147, 250 73.0, 296 73.0" fill="none" stroke="#e4e3dd" stroke-width="0.8" opacity="0.5" stroke-dasharray="3 3"/>
<rect x="300.0" y="98.0" width="150.0" height="26.0" rx="6" fill="#9c6b12" stroke="#9c6b12"/>
<text x="375.0" y="114.8" font-size="11" font-weight="700" text-anchor="middle" fill="#ffffff">expert 2</text>
<path d="M 186 147 C 240 147, 250 111.0, 296 111.0" fill="none" stroke="#9c6b12" stroke-width="2.0" opacity="0.9"/>
<rect x="300.0" y="136.0" width="150.0" height="26.0" rx="6" fill="#ffffff" stroke="#cfcdc4"/>
<text x="375.0" y="152.8" font-size="11" font-weight="400" text-anchor="middle" fill="#6a6d73">expert 3</text>
<path d="M 186 147 C 240 147, 250 149.0, 296 149.0" fill="none" stroke="#e4e3dd" stroke-width="0.8" opacity="0.5" stroke-dasharray="3 3"/>
<rect x="300.0" y="174.0" width="150.0" height="26.0" rx="6" fill="#ffffff" stroke="#cfcdc4"/>
<text x="375.0" y="190.8" font-size="11" font-weight="400" text-anchor="middle" fill="#6a6d73">expert 4</text>
<path d="M 186 147 C 240 147, 250 187.0, 296 187.0" fill="none" stroke="#e4e3dd" stroke-width="0.8" opacity="0.5" stroke-dasharray="3 3"/>
<rect x="300.0" y="212.0" width="150.0" height="26.0" rx="6" fill="#9c6b12" stroke="#9c6b12"/>
<text x="375.0" y="228.8" font-size="11" font-weight="700" text-anchor="middle" fill="#ffffff">expert 5</text>
<path d="M 186 147 C 240 147, 250 225.0, 296 225.0" fill="none" stroke="#9c6b12" stroke-width="2.0" opacity="0.9"/>
<rect x="300.0" y="250.0" width="150.0" height="26.0" rx="6" fill="#ffffff" stroke="#cfcdc4"/>
<text x="375.0" y="266.9" font-size="11" font-weight="400" text-anchor="middle" fill="#6a6d73">expert 6</text>
<path d="M 186 147 C 240 147, 250 263.0, 296 263.0" fill="none" stroke="#e4e3dd" stroke-width="0.8" opacity="0.5" stroke-dasharray="3 3"/>
<rect x="480" y="96" width="118" height="108" rx="8" fill="#ffffff" stroke="#cfcdc4"/>
<text x="539" y="120" font-size="10" text-anchor="middle" fill="#6a6d73">held in memory</text>
<text x="539" y="140" font-size="15" text-anchor="middle" fill="#17181b" font-weight="700">6 experts</text>
<line x1="496" y1="152" x2="582" y2="152" stroke="#e4e3dd"/>
<text x="539" y="172" font-size="10" text-anchor="middle" fill="#6a6d73">run per token</text>
<text x="539" y="192" font-size="15" text-anchor="middle" fill="#9c6b12" font-weight="700">2 experts</text>
<text x="310.0" y="290" font-size="10.5" text-anchor="middle" fill="#6a6d73" font-style="italic">Capacity grows with total experts; compute grows only with the few that fire.</text>
<defs><marker id="m1" viewBox="0 0 10 10" refX="9" refY="5" markerWidth="6" markerHeight="6" orient="auto-start-reverse"><path d="M 0 0 L 10 5 L 0 10 z" fill="#cfcdc4"/></marker></defs>
</svg>