<svg xmlns="http://www.w3.org/2000/svg" viewBox="0 0 520 300" font-family="-apple-system, BlinkMacSystemFont, 'Segoe UI', Helvetica, Arial, sans-serif" role="img" aria-label="multi-head attention reading one sentence">
<text x="24.0" y="30.0" font-size="11" font-weight="700" fill="#6a6d73" letter-spacing="1">ONE SENTENCE, THREE HEADS</text>
<text x="24" y="74" font-size="12" font-weight="700" fill="#274b6d">syntax</text>
<text x="24" y="90" font-size="9.5" fill="#6a6d73">subject of the verb</text>
<rect x="132.0" y="78.0" width="50.0" height="28.0" rx="6" fill="#ffffff" stroke="#cfcdc4"/>
<text x="157.0" y="95.8" font-size="11" font-weight="400" text-anchor="middle" fill="#3b3d42">The</text>
<rect x="190.0" y="78.0" width="50.0" height="28.0" rx="6" fill="#ffffff" stroke="#274b6d"/>
<text x="215.0" y="95.8" font-size="11" font-weight="700" text-anchor="middle" fill="#274b6d">cat</text>
<rect x="248.0" y="78.0" width="50.0" height="28.0" rx="6" fill="#274b6d" stroke="#274b6d"/>
<text x="273.0" y="95.8" font-size="11" font-weight="700" text-anchor="middle" fill="#ffffff">sat</text>
<rect x="306.0" y="78.0" width="50.0" height="28.0" rx="6" fill="#ffffff" stroke="#cfcdc4"/>
<text x="331.0" y="95.8" font-size="11" font-weight="400" text-anchor="middle" fill="#3b3d42">because</text>
<rect x="364.0" y="78.0" width="50.0" height="28.0" rx="6" fill="#ffffff" stroke="#cfcdc4"/>
<text x="389.0" y="95.8" font-size="11" font-weight="400" text-anchor="middle" fill="#3b3d42">it</text>
<rect x="422.0" y="78.0" width="50.0" height="28.0" rx="6" fill="#ffffff" stroke="#cfcdc4"/>
<text x="447.0" y="95.8" font-size="11" font-weight="400" text-anchor="middle" fill="#3b3d42">purred</text>
<path d="M 273.0 75 Q 244.0 58, 215.0 75" fill="none" stroke="#274b6d" stroke-width="1.8" marker-end="url(#mh0)"/>
<defs><marker id="mh0" viewBox="0 0 10 10" refX="9" refY="5" markerWidth="6" markerHeight="6" orient="auto-start-reverse"><path d="M 0 0 L 10 5 L 0 10 z" fill="#274b6d"/></marker></defs>
<text x="24" y="156" font-size="12" font-weight="700" fill="#6b4f9c">coreference</text>
<text x="24" y="172" font-size="9.5" fill="#6a6d73">what “it” refers to</text>
<rect x="132.0" y="160.0" width="50.0" height="28.0" rx="6" fill="#ffffff" stroke="#cfcdc4"/>
<text x="157.0" y="177.8" font-size="11" font-weight="400" text-anchor="middle" fill="#3b3d42">The</text>
<rect x="190.0" y="160.0" width="50.0" height="28.0" rx="6" fill="#ffffff" stroke="#6b4f9c"/>
<text x="215.0" y="177.8" font-size="11" font-weight="700" text-anchor="middle" fill="#6b4f9c">cat</text>
<rect x="248.0" y="160.0" width="50.0" height="28.0" rx="6" fill="#ffffff" stroke="#cfcdc4"/>
<text x="273.0" y="177.8" font-size="11" font-weight="400" text-anchor="middle" fill="#3b3d42">sat</text>
<rect x="306.0" y="160.0" width="50.0" height="28.0" rx="6" fill="#ffffff" stroke="#cfcdc4"/>
<text x="331.0" y="177.8" font-size="11" font-weight="400" text-anchor="middle" fill="#3b3d42">because</text>
<rect x="364.0" y="160.0" width="50.0" height="28.0" rx="6" fill="#6b4f9c" stroke="#6b4f9c"/>
<text x="389.0" y="177.8" font-size="11" font-weight="700" text-anchor="middle" fill="#ffffff">it</text>
<rect x="422.0" y="160.0" width="50.0" height="28.0" rx="6" fill="#ffffff" stroke="#cfcdc4"/>
<text x="447.0" y="177.8" font-size="11" font-weight="400" text-anchor="middle" fill="#3b3d42">purred</text>
<path d="M 389.0 157 Q 302.0 140, 215.0 157" fill="none" stroke="#6b4f9c" stroke-width="1.8" marker-end="url(#mh1)"/>
<defs><marker id="mh1" viewBox="0 0 10 10" refX="9" refY="5" markerWidth="6" markerHeight="6" orient="auto-start-reverse"><path d="M 0 0 L 10 5 L 0 10 z" fill="#6b4f9c"/></marker></defs>
<text x="24" y="238" font-size="12" font-weight="700" fill="#9c6b12">position</text>
<text x="24" y="254" font-size="9.5" fill="#6a6d73">the token just before</text>
<rect x="132.0" y="242.0" width="50.0" height="28.0" rx="6" fill="#ffffff" stroke="#cfcdc4"/>
<text x="157.0" y="259.9" font-size="11" font-weight="400" text-anchor="middle" fill="#3b3d42">The</text>
<rect x="190.0" y="242.0" width="50.0" height="28.0" rx="6" fill="#ffffff" stroke="#cfcdc4"/>
<text x="215.0" y="259.9" font-size="11" font-weight="400" text-anchor="middle" fill="#3b3d42">cat</text>
<rect x="248.0" y="242.0" width="50.0" height="28.0" rx="6" fill="#ffffff" stroke="#cfcdc4"/>
<text x="273.0" y="259.9" font-size="11" font-weight="400" text-anchor="middle" fill="#3b3d42">sat</text>
<rect x="306.0" y="242.0" width="50.0" height="28.0" rx="6" fill="#ffffff" stroke="#cfcdc4"/>
<text x="331.0" y="259.9" font-size="11" font-weight="400" text-anchor="middle" fill="#3b3d42">because</text>
<rect x="364.0" y="242.0" width="50.0" height="28.0" rx="6" fill="#ffffff" stroke="#9c6b12"/>
<text x="389.0" y="259.9" font-size="11" font-weight="700" text-anchor="middle" fill="#9c6b12">it</text>
<rect x="422.0" y="242.0" width="50.0" height="28.0" rx="6" fill="#9c6b12" stroke="#9c6b12"/>
<text x="447.0" y="259.9" font-size="11" font-weight="700" text-anchor="middle" fill="#ffffff">purred</text>
<path d="M 447.0 239 Q 418.0 222, 389.0 239" fill="none" stroke="#9c6b12" stroke-width="1.8" marker-end="url(#mh2)"/>
<defs><marker id="mh2" viewBox="0 0 10 10" refX="9" refY="5" markerWidth="6" markerHeight="6" orient="auto-start-reverse"><path d="M 0 0 L 10 5 L 0 10 z" fill="#9c6b12"/></marker></defs>
</svg>