<svg xmlns="http://www.w3.org/2000/svg" viewBox="0 0 720 300" font-family="-apple-system, BlinkMacSystemFont, 'Segoe UI', Helvetica, Arial, sans-serif" role="img" aria-label="off-policy DPO drift versus on-policy sampling">
<text x="40.0" y="34.0" font-size="11" font-weight="700" fill="#6a6d73" letter-spacing="1">WHY ON-POLICY DATA CAN WIN</text>
<rect x="40" y="56" width="320" height="188" rx="10" fill="#ffffff" stroke="#cfcdc4"/>
<text x="56" y="80" font-size="12" font-weight="700" fill="#b04a3f">DPO  (off-policy)</text>
<text x="56" y="97" font-size="10.5" fill="#6a6d73">one fixed dataset, collected once</text>
<ellipse cx="200.0" cy="175" rx="96" ry="52" fill="#eaf0f6" stroke="#274b6d" stroke-dasharray="4 3"/>
<text x="200.0" y="243" font-size="9.5" text-anchor="middle" fill="#274b6d">preference data coverage</text>
<circle cx="203.2" cy="200.0" r="2.4" fill="#274b6d" opacity="0.55"/>
<circle cx="168.3" cy="194.8" r="2.4" fill="#274b6d" opacity="0.55"/>
<circle cx="191.2" cy="169.8" r="2.4" fill="#274b6d" opacity="0.55"/>
<circle cx="264.6" cy="178.2" r="2.4" fill="#274b6d" opacity="0.55"/>
<circle cx="198.5" cy="189.6" r="2.4" fill="#274b6d" opacity="0.55"/>
<circle cx="238.3" cy="174.4" r="2.4" fill="#274b6d" opacity="0.55"/>
<circle cx="220.0" cy="155.5" r="2.4" fill="#274b6d" opacity="0.55"/>
<circle cx="187.5" cy="166.2" r="2.4" fill="#274b6d" opacity="0.55"/>
<circle cx="154.7" cy="144.8" r="2.4" fill="#274b6d" opacity="0.55"/>
<circle cx="144.7" cy="170.2" r="2.4" fill="#274b6d" opacity="0.55"/>
<circle cx="194.1" cy="168.6" r="2.4" fill="#274b6d" opacity="0.55"/>
<circle cx="202.4" cy="148.3" r="2.4" fill="#274b6d" opacity="0.55"/>
<circle cx="197.3" cy="179.8" r="2.4" fill="#274b6d" opacity="0.55"/>
<circle cx="225.5" cy="158.1" r="2.4" fill="#274b6d" opacity="0.55"/>
<circle cx="186.4" cy="134.7" r="2.4" fill="#274b6d" opacity="0.55"/>
<circle cx="182.9" cy="131.1" r="2.4" fill="#274b6d" opacity="0.55"/>
<circle cx="151.7" cy="197.0" r="2.4" fill="#274b6d" opacity="0.55"/>
<circle cx="125.1" cy="191.0" r="2.4" fill="#274b6d" opacity="0.55"/>
<circle cx="211.1" cy="168.8" r="2.4" fill="#274b6d" opacity="0.55"/>
<circle cx="215.6" cy="185.5" r="2.4" fill="#274b6d" opacity="0.55"/>
<circle cx="235.5" cy="170.4" r="2.4" fill="#274b6d" opacity="0.55"/>
<circle cx="179.9" cy="162.9" r="2.4" fill="#274b6d" opacity="0.55"/>
<circle cx="166.5" cy="174.1" r="2.4" fill="#274b6d" opacity="0.55"/>
<circle cx="173.3" cy="196.4" r="2.4" fill="#274b6d" opacity="0.55"/>
<circle cx="136.4" cy="153.1" r="2.4" fill="#274b6d" opacity="0.55"/>
<circle cx="167.6" cy="133.1" r="2.4" fill="#274b6d" opacity="0.55"/>
<path d="M 240.0 163 C 290.0 135, 294.0 139, 312.0 131" fill="none" stroke="#b04a3f" stroke-width="1.8" stroke-dasharray="5 3" marker-end="url(#o1)"/>
<circle cx="318.0" cy="131" r="6" fill="#b04a3f"/>
<text x="318.0" y="119" font-size="9.5" text-anchor="middle" fill="#b04a3f">policy drifts here</text>
<text x="318.0" y="153" font-size="9" text-anchor="middle" fill="#b04a3f">no labels; loss says nothing</text>
<rect x="400" y="56" width="320" height="188" rx="10" fill="#ffffff" stroke="#cfcdc4"/>
<text x="416" y="80" font-size="12" font-weight="700" fill="#274b6d">PPO  (on-policy)</text>
<text x="416" y="97" font-size="10.5" fill="#6a6d73">new samples drawn from the live policy</text>
<ellipse cx="560.0" cy="175" rx="96" ry="52" fill="#eaf0f6" stroke="#274b6d" stroke-dasharray="4 3"/>
<text x="560.0" y="243" font-size="9.5" text-anchor="middle" fill="#274b6d">preference data coverage</text>
<circle cx="563.2" cy="200.0" r="2.4" fill="#274b6d" opacity="0.55"/>
<circle cx="528.3" cy="194.8" r="2.4" fill="#274b6d" opacity="0.55"/>
<circle cx="551.2" cy="169.8" r="2.4" fill="#274b6d" opacity="0.55"/>
<circle cx="624.6" cy="178.2" r="2.4" fill="#274b6d" opacity="0.55"/>
<circle cx="558.5" cy="189.6" r="2.4" fill="#274b6d" opacity="0.55"/>
<circle cx="598.3" cy="174.4" r="2.4" fill="#274b6d" opacity="0.55"/>
<circle cx="580.0" cy="155.5" r="2.4" fill="#274b6d" opacity="0.55"/>
<circle cx="547.5" cy="166.2" r="2.4" fill="#274b6d" opacity="0.55"/>
<circle cx="514.7" cy="144.8" r="2.4" fill="#274b6d" opacity="0.55"/>
<circle cx="504.7" cy="170.2" r="2.4" fill="#274b6d" opacity="0.55"/>
<circle cx="554.1" cy="168.6" r="2.4" fill="#274b6d" opacity="0.55"/>
<circle cx="562.4" cy="148.3" r="2.4" fill="#274b6d" opacity="0.55"/>
<circle cx="557.3" cy="179.8" r="2.4" fill="#274b6d" opacity="0.55"/>
<circle cx="585.5" cy="158.1" r="2.4" fill="#274b6d" opacity="0.55"/>
<circle cx="546.4" cy="134.7" r="2.4" fill="#274b6d" opacity="0.55"/>
<circle cx="542.9" cy="131.1" r="2.4" fill="#274b6d" opacity="0.55"/>
<circle cx="511.7" cy="197.0" r="2.4" fill="#274b6d" opacity="0.55"/>
<circle cx="485.1" cy="191.0" r="2.4" fill="#274b6d" opacity="0.55"/>
<circle cx="571.1" cy="168.8" r="2.4" fill="#274b6d" opacity="0.55"/>
<circle cx="575.6" cy="185.5" r="2.4" fill="#274b6d" opacity="0.55"/>
<circle cx="595.5" cy="170.4" r="2.4" fill="#274b6d" opacity="0.55"/>
<circle cx="539.9" cy="162.9" r="2.4" fill="#274b6d" opacity="0.55"/>
<circle cx="526.5" cy="174.1" r="2.4" fill="#274b6d" opacity="0.55"/>
<circle cx="533.3" cy="196.4" r="2.4" fill="#274b6d" opacity="0.55"/>
<circle cx="496.4" cy="153.1" r="2.4" fill="#274b6d" opacity="0.55"/>
<circle cx="527.6" cy="133.1" r="2.4" fill="#274b6d" opacity="0.55"/>
<circle cx="560.0" cy="175" r="6" fill="#274b6d"/>
<text x="560.0" y="113" font-size="9.5" text-anchor="middle" fill="#274b6d">fresh samples re-cover the policy each step</text>
<defs><marker id="o1" viewBox="0 0 10 10" refX="9" refY="5" markerWidth="6" markerHeight="6" orient="auto-start-reverse"><path d="M 0 0 L 10 5 L 0 10 z" fill="#b04a3f"/></marker></defs>
<text x="360.0" y="290" font-size="10.5" text-anchor="middle" fill="#6a6d73" font-style="italic">As DPO shifts the policy, it can wander off the pairs it learned from; online RLHF keeps sampling where the policy now lives.</text>
</svg>