<svg xmlns="http://www.w3.org/2000/svg" viewBox="0 0 680 300" font-family="-apple-system, BlinkMacSystemFont, 'Segoe UI', Helvetica, Arial, sans-serif" role="img" aria-label="weights rounded to an integer grid">
<text x="30.0" y="30.0" font-size="11" font-weight="700" fill="#6a6d73" letter-spacing="1">MAPPING FLOATS TO A SMALL INTEGER GRID</text>
<line x1="66" y1="186" x2="614" y2="186" stroke="#cfcdc4" stroke-width="1.5"/>
<line x1="74.0" y1="178" x2="74.0" y2="194" stroke="#3b3d42" stroke-width="1.2"/>
<text x="74.0" y="210" font-size="10.5" text-anchor="middle" fill="#3b3d42" font-variant="tabular-nums">0</text>
<line x1="150.0" y1="178" x2="150.0" y2="194" stroke="#3b3d42" stroke-width="1.2"/>
<text x="150.0" y="210" font-size="10.5" text-anchor="middle" fill="#3b3d42" font-variant="tabular-nums">1</text>
<line x1="226.0" y1="178" x2="226.0" y2="194" stroke="#3b3d42" stroke-width="1.2"/>
<text x="226.0" y="210" font-size="10.5" text-anchor="middle" fill="#3b3d42" font-variant="tabular-nums">2</text>
<line x1="302.0" y1="178" x2="302.0" y2="194" stroke="#3b3d42" stroke-width="1.2"/>
<text x="302.0" y="210" font-size="10.5" text-anchor="middle" fill="#3b3d42" font-variant="tabular-nums">3</text>
<line x1="378.0" y1="178" x2="378.0" y2="194" stroke="#274b6d" stroke-width="2.2"/>
<text x="378.0" y="210" font-size="10.5" text-anchor="middle" fill="#3b3d42" font-variant="tabular-nums">4</text>
<line x1="454.0" y1="178" x2="454.0" y2="194" stroke="#3b3d42" stroke-width="1.2"/>
<text x="454.0" y="210" font-size="10.5" text-anchor="middle" fill="#3b3d42" font-variant="tabular-nums">5</text>
<line x1="530.0" y1="178" x2="530.0" y2="194" stroke="#3b3d42" stroke-width="1.2"/>
<text x="530.0" y="210" font-size="10.5" text-anchor="middle" fill="#3b3d42" font-variant="tabular-nums">6</text>
<line x1="606.0" y1="178" x2="606.0" y2="194" stroke="#3b3d42" stroke-width="1.2"/>
<text x="606.0" y="210" font-size="10.5" text-anchor="middle" fill="#3b3d42" font-variant="tabular-nums">7</text>
<text x="378.0" y="226" font-size="9.5" text-anchor="middle" fill="#274b6d">zero-point</text>
<text x="66" y="172" font-size="10" fill="#6a6d73">int codes</text>
<line x1="96.2" y1="102" x2="74.0" y2="177" stroke="#9c6b12" stroke-width="1" opacity="0.6" stroke-dasharray="2 2"/>
<circle cx="96.2" cy="96" r="4.2" fill="#9c6b12"/>
<line x1="180.4" y1="102" x2="150.0" y2="177" stroke="#9c6b12" stroke-width="1" opacity="0.6" stroke-dasharray="2 2"/>
<circle cx="180.4" cy="96" r="4.2" fill="#9c6b12"/>
<line x1="255.8" y1="102" x2="226.0" y2="177" stroke="#9c6b12" stroke-width="1" opacity="0.6" stroke-dasharray="2 2"/>
<circle cx="255.8" cy="96" r="4.2" fill="#9c6b12"/>
<line x1="326.7" y1="102" x2="302.0" y2="177" stroke="#9c6b12" stroke-width="1" opacity="0.6" stroke-dasharray="2 2"/>
<circle cx="326.7" cy="96" r="4.2" fill="#9c6b12"/>
<line x1="384.3" y1="102" x2="378.0" y2="177" stroke="#9c6b12" stroke-width="1" opacity="0.6" stroke-dasharray="2 2"/>
<circle cx="384.3" cy="96" r="4.2" fill="#9c6b12"/>
<line x1="437.5" y1="102" x2="454.0" y2="177" stroke="#9c6b12" stroke-width="1" opacity="0.6" stroke-dasharray="2 2"/>
<circle cx="437.5" cy="96" r="4.2" fill="#9c6b12"/>
<line x1="495.2" y1="102" x2="530.0" y2="177" stroke="#9c6b12" stroke-width="1" opacity="0.6" stroke-dasharray="2 2"/>
<circle cx="495.2" cy="96" r="4.2" fill="#9c6b12"/>
<line x1="548.4" y1="102" x2="530.0" y2="177" stroke="#9c6b12" stroke-width="1" opacity="0.6" stroke-dasharray="2 2"/>
<circle cx="548.4" cy="96" r="4.2" fill="#9c6b12"/>
<line x1="599.4" y1="102" x2="606.0" y2="177" stroke="#9c6b12" stroke-width="1" opacity="0.6" stroke-dasharray="2 2"/>
<circle cx="599.4" cy="96" r="4.2" fill="#9c6b12"/>
<text x="66" y="82" font-size="10" fill="#6a6d73">true weights (continuous)</text>
<path d="M 454.0 238 L 454.0 244 L 530.0 244 L 530.0 238" fill="none" stroke="#6b4f9c" stroke-width="1.2"/>
<text x="492.0" y="260" font-size="11" text-anchor="middle" fill="#6b4f9c" font-weight="600">scale s</text>
<text x="340.0" y="288" font-size="11" text-anchor="middle" fill="#3b3d42" font-family="'SF Mono', 'SFMono-Regular', ui-monospace, Menlo, Consolas, monospace">code = round((w &#8722; zero) / s)&#160;&#160;&#8226;&#160;&#160;w &#8776; s &#183; code + zero</text>
</svg>