<svg xmlns="http://www.w3.org/2000/svg" viewBox="0 0 640 330" font-family="-apple-system, BlinkMacSystemFont, 'Segoe UI', Helvetica, Arial, sans-serif" role="img" aria-label="the retrieve and rerank funnel">
<text x="24.0" y="30.0" font-size="11" font-weight="700" fill="#6a6d73" letter-spacing="1">THE RETRIEVAL FUNNEL</text>
<polygon points="85.0 106.0 555.0 106.0 485.0 134.0 155.0 134.0" fill="#e4e3dd" opacity="0.5"/>
<polygon points="155.0 176.0 485.0 176.0 415.0 204.0 225.0 204.0" fill="#e4e3dd" opacity="0.5"/>
<polygon points="225.0 246.0 415.0 246.0 380.0 264.0 260.0 264.0" fill="#e4e3dd" opacity="0.5"/>
<rect x="85.0" y="64" width="470" height="42" rx="8" fill="#faf9f5" stroke="#cfcdc4"/>
<text x="320.0" y="90" font-size="12.5" font-weight="700" text-anchor="middle" fill="#3b3d42">Corpus: millions of chunks</text>
<rect x="155.0" y="134" width="330" height="42" rx="8" fill="#eef2f7" stroke="#274b6d"/>
<text x="320.0" y="160" font-size="12.5" font-weight="700" text-anchor="middle" fill="#274b6d">Hybrid retrieve: dense + BM25</text>
<text x="497.0" y="160" font-size="11" font-weight="700" fill="#274b6d">top 100</text>
<rect x="225.0" y="204" width="190" height="42" rx="8" fill="#f6efe1" stroke="#9c6b12"/>
<text x="320.0" y="230" font-size="12.5" font-weight="700" text-anchor="middle" fill="#9c6b12">Cross-encoder rerank</text>
<text x="427.0" y="230" font-size="11" font-weight="700" fill="#9c6b12">top 5</text>
<rect x="260.0" y="264" width="120" height="42" rx="8" fill="#274b6d" stroke="none"/>
<text x="320.0" y="290" font-size="12.5" font-weight="700" text-anchor="middle" fill="#ffffff">Into the prompt</text>
<text x="392.0" y="290" font-size="11" font-weight="700" fill="#eaf0f6">top 5</text>
<text x="320.0" y="322" font-size="10.5" text-anchor="middle" fill="#6a6d73" font-style="italic">Recall first with a cheap wide net, precision last with an expensive close read. Each stage does one job.</text>
</svg>