<svg xmlns="http://www.w3.org/2000/svg" viewBox="0 0 680 300" font-family="-apple-system, BlinkMacSystemFont, 'Segoe UI', Helvetica, Arial, sans-serif" role="img" aria-label="vLLM, TensorRT-LLM, SGLang, and TGI compared">
<text x="24.0" y="30.0" font-size="11" font-weight="700" fill="#6a6d73" letter-spacing="1">FOUR ENGINES, FOUR SIGNATURES</text>
<rect x="4.0" y="58" width="150" height="168" rx="10" fill="#ffffff" stroke="#cfcdc4"/>
<rect x="4.0" y="58" width="150" height="6" rx="3" fill="#274b6d"/>
<text x="79.0" y="92" font-size="14" font-weight="700" text-anchor="middle" fill="#17181b">vLLM</text>
<rect x="20.0" y="104" width="118" height="24" rx="12" fill="#274b6d" opacity="0.14"/>
<text x="79.0" y="120" font-size="11" font-weight="700" text-anchor="middle" fill="#274b6d">PagedAttention</text>
<text x="79.0" y="150" font-size="10.5" text-anchor="middle" fill="#6a6d73">paged KV memory, continuous</text>
<text x="79.0" y="165" font-size="10.5" text-anchor="middle" fill="#6a6d73">batching; the open default</text>
<rect x="178.0" y="58" width="150" height="168" rx="10" fill="#ffffff" stroke="#cfcdc4"/>
<rect x="178.0" y="58" width="150" height="6" rx="3" fill="#b04a3f"/>
<text x="253.0" y="92" font-size="14" font-weight="700" text-anchor="middle" fill="#17181b">TensorRT-LLM</text>
<rect x="194.0" y="104" width="118" height="24" rx="12" fill="#b04a3f" opacity="0.14"/>
<text x="253.0" y="120" font-size="11" font-weight="700" text-anchor="middle" fill="#b04a3f">compiled kernels</text>
<text x="253.0" y="150" font-size="10.5" text-anchor="middle" fill="#6a6d73">ahead-of-time engine build,</text>
<text x="253.0" y="165" font-size="10.5" text-anchor="middle" fill="#6a6d73">fused ops; peak on NVIDIA</text>
<rect x="352.0" y="58" width="150" height="168" rx="10" fill="#ffffff" stroke="#cfcdc4"/>
<rect x="352.0" y="58" width="150" height="6" rx="3" fill="#6b4f9c"/>
<text x="427.0" y="92" font-size="14" font-weight="700" text-anchor="middle" fill="#17181b">SGLang</text>
<rect x="368.0" y="104" width="118" height="24" rx="12" fill="#6b4f9c" opacity="0.14"/>
<text x="427.0" y="120" font-size="11" font-weight="700" text-anchor="middle" fill="#6b4f9c">RadixAttention</text>
<text x="427.0" y="150" font-size="10.5" text-anchor="middle" fill="#6a6d73">prefix-cache tree, fast</text>
<text x="427.0" y="165" font-size="10.5" text-anchor="middle" fill="#6a6d73">structured output; agents</text>
<rect x="526.0" y="58" width="150" height="168" rx="10" fill="#ffffff" stroke="#cfcdc4"/>
<rect x="526.0" y="58" width="150" height="6" rx="3" fill="#9c6b12"/>
<text x="601.0" y="92" font-size="14" font-weight="700" text-anchor="middle" fill="#17181b">TGI</text>
<rect x="542.0" y="104" width="118" height="24" rx="12" fill="#9c6b12" opacity="0.14"/>
<text x="601.0" y="120" font-size="11" font-weight="700" text-anchor="middle" fill="#9c6b12">production glue</text>
<text x="601.0" y="150" font-size="10.5" text-anchor="middle" fill="#6a6d73">streaming, metrics, safe</text>
<text x="601.0" y="165" font-size="10.5" text-anchor="middle" fill="#6a6d73">rollout; the HF ecosystem</text>
<rect x="4.0" y="246" width="672" height="28" rx="8" fill="#eaf0f6" stroke="#274b6d"/>
<text x="340.0" y="264" font-size="10.5" text-anchor="middle" fill="#274b6d" font-weight="600">shared foundation: paged KV cache + FlashAttention kernels (Chapter 15)</text>
</svg>