<?xml version="1.0" encoding="utf-8" standalone="no"?>
<!DOCTYPE svg PUBLIC "-//W3C//DTD SVG 1.1//EN"
  "http://www.w3.org/Graphics/SVG/1.1/DTD/svg11.dtd">
<svg xmlns:xlink="http://www.w3.org/1999/xlink" width="384.230312pt" height="251.38075pt" viewBox="0 0 384.230312 251.38075" xmlns="http://www.w3.org/2000/svg" version="1.1">
 <metadata>
  <rdf:RDF xmlns:dc="http://purl.org/dc/elements/1.1/" xmlns:cc="http://creativecommons.org/ns#" xmlns:rdf="http://www.w3.org/1999/02/22-rdf-syntax-ns#">
   <cc:Work>
    <dc:type rdf:resource="http://purl.org/dc/dcmitype/StillImage"/>
    <dc:date>2026-07-16T16:34:07.272284</dc:date>
    <dc:format>image/svg+xml</dc:format>
    <dc:creator>
     <cc:Agent>
      <dc:title>Matplotlib v3.9.4, https://matplotlib.org/</dc:title>
     </cc:Agent>
    </dc:creator>
   </cc:Work>
  </rdf:RDF>
 </metadata>
 <defs>
  <style type="text/css">*{stroke-linejoin: round; stroke-linecap: butt}</style>
 </defs>
 <g id="figure_1">
  <g id="patch_1">
   <path d="M 0 251.38075 
L 384.230312 251.38075 
L 384.230312 0 
L 0 0 
L 0 251.38075 
z
" style="fill: none"/>
  </g>
  <g id="axes_1">
   <g id="patch_2">
    <path d="M 19.910312 231.470437 
L 377.030313 231.470437 
L 377.030313 20.798437 
L 19.910312 20.798437 
L 19.910312 231.470437 
z
" style="fill: none"/>
   </g>
   <g id="patch_3">
    <path d="M 130.833949 113.310265 
C 138.489074 113.310265 145.831696 111.033025 151.244687 106.980082 
C 156.657678 102.927138 159.699091 97.429396 159.699091 91.697668 
C 159.699091 85.965941 156.657678 80.468198 151.244687 76.415255 
C 145.831696 72.362312 138.489074 70.085072 130.833949 70.085072 
C 123.178824 70.085072 115.836202 72.362312 110.423211 76.415255 
C 105.01022 80.468198 101.968807 85.965941 101.968807 91.697668 
C 101.968807 97.429396 105.01022 102.927138 110.423211 106.980082 
C 115.836202 111.033025 123.178824 113.310265 130.833949 113.310265 
L 130.833949 113.310265 
z
" clip-path="url(#p067c8a8009)" style="fill: none; stroke-dasharray: 3.6,2.7; stroke-dashoffset: 0; stroke: #3b3d42; stroke-width: 0.9; stroke-linejoin: miter"/>
   </g>
   <g id="matplotlib.axis_1">
    <g id="text_1">
     <text style="fill: #3b3d42; font: 9px 'DejaVu Sans', 'Helvetica', 'Arial', sans-serif; text-anchor: middle" x="198.470313" y="242.309031" transform="rotate(-0 198.470313 242.309031)">embedding dimension 1 (no human-readable meaning)</text>
    </g>
   </g>
   <g id="matplotlib.axis_2">
    <g id="text_2">
     <text style="fill: #3b3d42; font: 9px 'DejaVu Sans', 'Helvetica', 'Arial', sans-serif; text-anchor: middle" x="14.038594" y="126.134437" transform="rotate(-90 14.038594 126.134437)">embedding dimension 2</text>
    </g>
   </g>
   <g id="PathCollection_1">
    <path d="M 109.691679 72.173175 
C 110.222085 72.173175 110.730838 71.962442 111.105892 71.587389 
C 111.480946 71.212335 111.691679 70.703581 111.691679 70.173175 
C 111.691679 69.642769 111.480946 69.134015 111.105892 68.758961 
C 110.730838 68.383908 110.222085 68.173175 109.691679 68.173175 
C 109.161273 68.173175 108.652519 68.383908 108.277465 68.758961 
C 107.902411 69.134015 107.691679 69.642769 107.691679 70.173175 
C 107.691679 70.703581 107.902411 71.212335 108.277465 71.587389 
C 108.652519 71.962442 109.161273 72.173175 109.691679 72.173175 
z
" clip-path="url(#p067c8a8009)" style="fill: #6b4f9c; fill-opacity: 0.75"/>
   </g>
   <g id="PathCollection_2">
    <path d="M 110.578054 90.589755 
C 111.10846 90.589755 111.617214 90.379023 111.992268 90.003969 
C 112.367322 89.628915 112.578054 89.120161 112.578054 88.589755 
C 112.578054 88.059349 112.367322 87.550595 111.992268 87.175542 
C 111.617214 86.800488 111.10846 86.589755 110.578054 86.589755 
C 110.047648 86.589755 109.538895 86.800488 109.163841 87.175542 
C 108.788787 87.550595 108.578054 88.059349 108.578054 88.589755 
C 108.578054 89.120161 108.788787 89.628915 109.163841 90.003969 
C 109.538895 90.379023 110.047648 90.589755 110.578054 90.589755 
z
" clip-path="url(#p067c8a8009)" style="fill: #6b4f9c; fill-opacity: 0.75"/>
   </g>
   <g id="PathCollection_3">
    <path d="M 89.629335 88.322132 
C 90.159741 88.322132 90.668495 88.111399 91.043548 87.736346 
C 91.418602 87.361292 91.629335 86.852538 91.629335 86.322132 
C 91.629335 85.791726 91.418602 85.282972 91.043548 84.907918 
C 90.668495 84.532865 90.159741 84.322132 89.629335 84.322132 
C 89.098929 84.322132 88.590175 84.532865 88.215121 84.907918 
C 87.840067 85.282972 87.629335 85.791726 87.629335 86.322132 
C 87.629335 86.852538 87.840067 87.361292 88.215121 87.736346 
C 88.590175 88.111399 89.098929 88.322132 89.629335 88.322132 
z
" clip-path="url(#p067c8a8009)" style="fill: #6b4f9c; fill-opacity: 0.75"/>
   </g>
   <g id="PathCollection_4">
    <path d="M 150.397337 74.118109 
C 150.927744 74.118109 151.436497 73.907377 151.811551 73.532323 
C 152.186605 73.157269 152.397337 72.648516 152.397337 72.118109 
C 152.397337 71.587703 152.186605 71.07895 151.811551 70.703896 
C 151.436497 70.328842 150.927744 70.118109 150.397337 70.118109 
C 149.866931 70.118109 149.358178 70.328842 148.983124 70.703896 
C 148.60807 71.07895 148.397337 71.587703 148.397337 72.118109 
C 148.397337 72.648516 148.60807 73.157269 148.983124 73.532323 
C 149.358178 73.907377 149.866931 74.118109 150.397337 74.118109 
z
" clip-path="url(#p067c8a8009)" style="fill: #6b4f9c; fill-opacity: 0.75"/>
   </g>
   <g id="PathCollection_5">
    <path d="M 148.164198 78.023003 
C 148.694604 78.023003 149.203357 77.81227 149.578411 77.437217 
C 149.953465 77.062163 150.164198 76.553409 150.164198 76.023003 
C 150.164198 75.492597 149.953465 74.983843 149.578411 74.608789 
C 149.203357 74.233736 148.694604 74.023003 148.164198 74.023003 
C 147.633791 74.023003 147.125038 74.233736 146.749984 74.608789 
C 146.37493 74.983843 146.164198 75.492597 146.164198 76.023003 
C 146.164198 76.553409 146.37493 77.062163 146.749984 77.437217 
C 147.125038 77.81227 147.633791 78.023003 148.164198 78.023003 
z
" clip-path="url(#p067c8a8009)" style="fill: #6b4f9c; fill-opacity: 0.75"/>
   </g>
   <g id="PathCollection_6">
    <path d="M 129.05502 79.439644 
C 129.585427 79.439644 130.09418 79.228911 130.469234 78.853858 
C 130.844288 78.478804 131.05502 77.97005 131.05502 77.439644 
C 131.05502 76.909238 130.844288 76.400484 130.469234 76.02543 
C 130.09418 75.650377 129.585427 75.439644 129.05502 75.439644 
C 128.524614 75.439644 128.015861 75.650377 127.640807 76.02543 
C 127.265753 76.400484 127.05502 76.909238 127.05502 77.439644 
C 127.05502 77.97005 127.265753 78.478804 127.640807 78.853858 
C 128.015861 79.228911 128.524614 79.439644 129.05502 79.439644 
z
" clip-path="url(#p067c8a8009)" style="fill: #6b4f9c; fill-opacity: 0.75"/>
   </g>
   <g id="PathCollection_7">
    <path d="M 67.724655 64.511978 
C 68.255062 64.511978 68.763815 64.301246 69.138869 63.926192 
C 69.513923 63.551138 69.724655 63.042385 69.724655 62.511978 
C 69.724655 61.981572 69.513923 61.472819 69.138869 61.097765 
C 68.763815 60.722711 68.255062 60.511978 67.724655 60.511978 
C 67.194249 60.511978 66.685496 60.722711 66.310442 61.097765 
C 65.935388 61.472819 65.724655 61.981572 65.724655 62.511978 
C 65.724655 63.042385 65.935388 63.551138 66.310442 63.926192 
C 66.685496 64.301246 67.194249 64.511978 67.724655 64.511978 
z
" clip-path="url(#p067c8a8009)" style="fill: #6b4f9c; fill-opacity: 0.75"/>
   </g>
   <g id="PathCollection_8">
    <path d="M 132.376689 72.454236 
C 132.907095 72.454236 133.415849 72.243504 133.790903 71.86845 
C 134.165957 71.493396 134.376689 70.984642 134.376689 70.454236 
C 134.376689 69.92383 134.165957 69.415076 133.790903 69.040023 
C 133.415849 68.664969 132.907095 68.454236 132.376689 68.454236 
C 131.846283 68.454236 131.337529 68.664969 130.962476 69.040023 
C 130.587422 69.415076 130.376689 69.92383 130.376689 70.454236 
C 130.376689 70.984642 130.587422 71.493396 130.962476 71.86845 
C 131.337529 72.243504 131.846283 72.454236 132.376689 72.454236 
z
" clip-path="url(#p067c8a8009)" style="fill: #6b4f9c; fill-opacity: 0.75"/>
   </g>
   <g id="PathCollection_9">
    <path d="M 66.971667 122.427595 
C 67.502073 122.427595 68.010827 122.216862 68.385881 121.841808 
C 68.760934 121.466755 68.971667 120.958001 68.971667 120.427595 
C 68.971667 119.897189 68.760934 119.388435 68.385881 119.013381 
C 68.010827 118.638328 67.502073 118.427595 66.971667 118.427595 
C 66.441261 118.427595 65.932507 118.638328 65.557454 119.013381 
C 65.1824 119.388435 64.971667 119.897189 64.971667 120.427595 
C 64.971667 120.958001 65.1824 121.466755 65.557454 121.841808 
C 65.932507 122.216862 66.441261 122.427595 66.971667 122.427595 
z
" clip-path="url(#p067c8a8009)" style="fill: #6b4f9c; fill-opacity: 0.75"/>
   </g>
   <g id="PathCollection_10">
    <path d="M 90.831723 94.001688 
C 91.36213 94.001688 91.870883 93.790956 92.245937 93.415902 
C 92.620991 93.040848 92.831723 92.532094 92.831723 92.001688 
C 92.831723 91.471282 92.620991 90.962529 92.245937 90.587475 
C 91.870883 90.212421 91.36213 90.001688 90.831723 90.001688 
C 90.301317 90.001688 89.792564 90.212421 89.41751 90.587475 
C 89.042456 90.962529 88.831723 91.471282 88.831723 92.001688 
C 88.831723 92.532094 89.042456 93.040848 89.41751 93.415902 
C 89.792564 93.790956 90.301317 94.001688 90.831723 94.001688 
z
" clip-path="url(#p067c8a8009)" style="fill: #6b4f9c; fill-opacity: 0.75"/>
   </g>
   <g id="PathCollection_11">
    <path d="M 126.396749 84.59224 
C 126.927155 84.59224 127.435909 84.381508 127.810962 84.006454 
C 128.186016 83.6314 128.396749 83.122646 128.396749 82.59224 
C 128.396749 82.061834 128.186016 81.55308 127.810962 81.178027 
C 127.435909 80.802973 126.927155 80.59224 126.396749 80.59224 
C 125.866343 80.59224 125.357589 80.802973 124.982535 81.178027 
C 124.607481 81.55308 124.396749 82.061834 124.396749 82.59224 
C 124.396749 83.122646 124.607481 83.6314 124.982535 84.006454 
C 125.357589 84.381508 125.866343 84.59224 126.396749 84.59224 
z
" clip-path="url(#p067c8a8009)" style="fill: #6b4f9c; fill-opacity: 0.75"/>
   </g>
   <g id="PathCollection_12">
    <path d="M 132.810889 97.879877 
C 133.341295 97.879877 133.850049 97.669144 134.225103 97.29409 
C 134.600156 96.919036 134.810889 96.410283 134.810889 95.879877 
C 134.810889 95.34947 134.600156 94.840717 134.225103 94.465663 
C 133.850049 94.090609 133.341295 93.879877 132.810889 93.879877 
C 132.280483 93.879877 131.771729 94.090609 131.396676 94.465663 
C 131.021622 94.840717 130.810889 95.34947 130.810889 95.879877 
C 130.810889 96.410283 131.021622 96.919036 131.396676 97.29409 
C 131.771729 97.669144 132.280483 97.879877 132.810889 97.879877 
z
" clip-path="url(#p067c8a8009)" style="fill: #6b4f9c; fill-opacity: 0.75"/>
   </g>
   <g id="PathCollection_13">
    <path d="M 126.493682 74.786414 
C 127.024088 74.786414 127.532842 74.575682 127.907895 74.200628 
C 128.282949 73.825574 128.493682 73.31682 128.493682 72.786414 
C 128.493682 72.256008 128.282949 71.747254 127.907895 71.372201 
C 127.532842 70.997147 127.024088 70.786414 126.493682 70.786414 
C 125.963276 70.786414 125.454522 70.997147 125.079468 71.372201 
C 124.704414 71.747254 124.493682 72.256008 124.493682 72.786414 
C 124.493682 73.31682 124.704414 73.825574 125.079468 74.200628 
C 125.454522 74.575682 125.963276 74.786414 126.493682 74.786414 
z
" clip-path="url(#p067c8a8009)" style="fill: #6b4f9c; fill-opacity: 0.75"/>
   </g>
   <g id="PathCollection_14">
    <path d="M 97.631229 45.298139 
C 98.161635 45.298139 98.670388 45.087407 99.045442 44.712353 
C 99.420496 44.337299 99.631229 43.828545 99.631229 43.298139 
C 99.631229 42.767733 99.420496 42.25898 99.045442 41.883926 
C 98.670388 41.508872 98.161635 41.298139 97.631229 41.298139 
C 97.100822 41.298139 96.592069 41.508872 96.217015 41.883926 
C 95.841961 42.25898 95.631229 42.767733 95.631229 43.298139 
C 95.631229 43.828545 95.841961 44.337299 96.217015 44.712353 
C 96.592069 45.087407 97.100822 45.298139 97.631229 45.298139 
z
" clip-path="url(#p067c8a8009)" style="fill: #6b4f9c; fill-opacity: 0.75"/>
   </g>
   <g id="PathCollection_15">
    <path d="M 133.871371 56.896799 
C 134.401777 56.896799 134.91053 56.686067 135.285584 56.311013 
C 135.660638 55.935959 135.871371 55.427206 135.871371 54.896799 
C 135.871371 54.366393 135.660638 53.85764 135.285584 53.482586 
C 134.91053 53.107532 134.401777 52.896799 133.871371 52.896799 
C 133.340964 52.896799 132.832211 53.107532 132.457157 53.482586 
C 132.082103 53.85764 131.871371 54.366393 131.871371 54.896799 
C 131.871371 55.427206 132.082103 55.935959 132.457157 56.311013 
C 132.832211 56.686067 133.340964 56.896799 133.871371 56.896799 
z
" clip-path="url(#p067c8a8009)" style="fill: #6b4f9c; fill-opacity: 0.75"/>
   </g>
   <g id="PathCollection_16">
    <path d="M 98.845569 100.047555 
C 99.375975 100.047555 99.884728 99.836822 100.259782 99.461769 
C 100.634836 99.086715 100.845569 98.577961 100.845569 98.047555 
C 100.845569 97.517149 100.634836 97.008395 100.259782 96.633341 
C 99.884728 96.258288 99.375975 96.047555 98.845569 96.047555 
C 98.315162 96.047555 97.806409 96.258288 97.431355 96.633341 
C 97.056301 97.008395 96.845569 97.517149 96.845569 98.047555 
C 96.845569 98.577961 97.056301 99.086715 97.431355 99.461769 
C 97.806409 99.836822 98.315162 100.047555 98.845569 100.047555 
z
" clip-path="url(#p067c8a8009)" style="fill: #6b4f9c; fill-opacity: 0.75"/>
   </g>
   <g id="PathCollection_17">
    <path d="M 107.067847 85.940552 
C 107.598253 85.940552 108.107007 85.72982 108.482061 85.354766 
C 108.857114 84.979712 109.067847 84.470959 109.067847 83.940552 
C 109.067847 83.410146 108.857114 82.901393 108.482061 82.526339 
C 108.107007 82.151285 107.598253 81.940552 107.067847 81.940552 
C 106.537441 81.940552 106.028687 82.151285 105.653633 82.526339 
C 105.27858 82.901393 105.067847 83.410146 105.067847 83.940552 
C 105.067847 84.470959 105.27858 84.979712 105.653633 85.354766 
C 106.028687 85.72982 106.537441 85.940552 107.067847 85.940552 
z
" clip-path="url(#p067c8a8009)" style="fill: #6b4f9c; fill-opacity: 0.75"/>
   </g>
   <g id="PathCollection_18">
    <path d="M 136.11734 78.033598 
C 136.647746 78.033598 137.156499 77.822865 137.531553 77.447811 
C 137.906607 77.072758 138.11734 76.564004 138.11734 76.033598 
C 138.11734 75.503192 137.906607 74.994438 137.531553 74.619384 
C 137.156499 74.24433 136.647746 74.033598 136.11734 74.033598 
C 135.586933 74.033598 135.07818 74.24433 134.703126 74.619384 
C 134.328072 74.994438 134.11734 75.503192 134.11734 76.033598 
C 134.11734 76.564004 134.328072 77.072758 134.703126 77.447811 
C 135.07818 77.822865 135.586933 78.033598 136.11734 78.033598 
z
" clip-path="url(#p067c8a8009)" style="fill: #6b4f9c; fill-opacity: 0.75"/>
   </g>
   <g id="PathCollection_19">
    <path d="M 103.993394 104.891716 
C 104.523801 104.891716 105.032554 104.680983 105.407608 104.305929 
C 105.782662 103.930876 105.993394 103.422122 105.993394 102.891716 
C 105.993394 102.36131 105.782662 101.852556 105.407608 101.477502 
C 105.032554 101.102448 104.523801 100.891716 103.993394 100.891716 
C 103.462988 100.891716 102.954235 101.102448 102.579181 101.477502 
C 102.204127 101.852556 101.993394 102.36131 101.993394 102.891716 
C 101.993394 103.422122 102.204127 103.930876 102.579181 104.305929 
C 102.954235 104.680983 103.462988 104.891716 103.993394 104.891716 
z
" clip-path="url(#p067c8a8009)" style="fill: #6b4f9c; fill-opacity: 0.75"/>
   </g>
   <g id="PathCollection_20">
    <path d="M 101.813909 56.363887 
C 102.344315 56.363887 102.853068 56.153154 103.228122 55.7781 
C 103.603176 55.403046 103.813909 54.894293 103.813909 54.363887 
C 103.813909 53.83348 103.603176 53.324727 103.228122 52.949673 
C 102.853068 52.574619 102.344315 52.363887 101.813909 52.363887 
C 101.283502 52.363887 100.774749 52.574619 100.399695 52.949673 
C 100.024641 53.324727 99.813909 53.83348 99.813909 54.363887 
C 99.813909 54.894293 100.024641 55.403046 100.399695 55.7781 
C 100.774749 56.153154 101.283502 56.363887 101.813909 56.363887 
z
" clip-path="url(#p067c8a8009)" style="fill: #6b4f9c; fill-opacity: 0.75"/>
   </g>
   <g id="PathCollection_21">
    <path d="M 93.26219 78.115342 
C 93.792597 78.115342 94.30135 77.904609 94.676404 77.529555 
C 95.051458 77.154501 95.26219 76.645748 95.26219 76.115342 
C 95.26219 75.584936 95.051458 75.076182 94.676404 74.701128 
C 94.30135 74.326074 93.792597 74.115342 93.26219 74.115342 
C 92.731784 74.115342 92.223031 74.326074 91.847977 74.701128 
C 91.472923 75.076182 91.26219 75.584936 91.26219 76.115342 
C 91.26219 76.645748 91.472923 77.154501 91.847977 77.529555 
C 92.223031 77.904609 92.731784 78.115342 93.26219 78.115342 
z
" clip-path="url(#p067c8a8009)" style="fill: #6b4f9c; fill-opacity: 0.75"/>
   </g>
   <g id="PathCollection_22">
    <path d="M 129.999881 116.76458 
C 130.530287 116.76458 131.039041 116.553847 131.414094 116.178794 
C 131.789148 115.80374 131.999881 115.294986 131.999881 114.76458 
C 131.999881 114.234174 131.789148 113.72542 131.414094 113.350366 
C 131.039041 112.975313 130.530287 112.76458 129.999881 112.76458 
C 129.469475 112.76458 128.960721 112.975313 128.585667 113.350366 
C 128.210613 113.72542 127.999881 114.234174 127.999881 114.76458 
C 127.999881 115.294986 128.210613 115.80374 128.585667 116.178794 
C 128.960721 116.553847 129.469475 116.76458 129.999881 116.76458 
z
" clip-path="url(#p067c8a8009)" style="fill: #6b4f9c; fill-opacity: 0.75"/>
   </g>
   <g id="PathCollection_23">
    <path d="M 281.076546 46.359914 
C 281.606952 46.359914 282.115705 46.149181 282.490759 45.774127 
C 282.865813 45.399074 283.076546 44.89032 283.076546 44.359914 
C 283.076546 43.829508 282.865813 43.320754 282.490759 42.9457 
C 282.115705 42.570646 281.606952 42.359914 281.076546 42.359914 
C 280.54614 42.359914 280.037386 42.570646 279.662332 42.9457 
C 279.287278 43.320754 279.076546 43.829508 279.076546 44.359914 
C 279.076546 44.89032 279.287278 45.399074 279.662332 45.774127 
C 280.037386 46.149181 280.54614 46.359914 281.076546 46.359914 
z
" clip-path="url(#p067c8a8009)" style="fill: #6a6d73; fill-opacity: 0.75"/>
   </g>
   <g id="PathCollection_24">
    <path d="M 219.686481 82.63239 
C 220.216888 82.63239 220.725641 82.421657 221.100695 82.046603 
C 221.475749 81.671549 221.686481 81.162796 221.686481 80.63239 
C 221.686481 80.101983 221.475749 79.59323 221.100695 79.218176 
C 220.725641 78.843122 220.216888 78.63239 219.686481 78.63239 
C 219.156075 78.63239 218.647322 78.843122 218.272268 79.218176 
C 217.897214 79.59323 217.686481 80.101983 217.686481 80.63239 
C 217.686481 81.162796 217.897214 81.671549 218.272268 82.046603 
C 218.647322 82.421657 219.156075 82.63239 219.686481 82.63239 
z
" clip-path="url(#p067c8a8009)" style="fill: #6a6d73; fill-opacity: 0.75"/>
   </g>
   <g id="PathCollection_25">
    <path d="M 276.475247 93.677134 
C 277.005653 93.677134 277.514407 93.466402 277.889461 93.091348 
C 278.264515 92.716294 278.475247 92.207541 278.475247 91.677134 
C 278.475247 91.146728 278.264515 90.637975 277.889461 90.262921 
C 277.514407 89.887867 277.005653 89.677134 276.475247 89.677134 
C 275.944841 89.677134 275.436087 89.887867 275.061034 90.262921 
C 274.68598 90.637975 274.475247 91.146728 274.475247 91.677134 
C 274.475247 92.207541 274.68598 92.716294 275.061034 93.091348 
C 275.436087 93.466402 275.944841 93.677134 276.475247 93.677134 
z
" clip-path="url(#p067c8a8009)" style="fill: #6a6d73; fill-opacity: 0.75"/>
   </g>
   <g id="PathCollection_26">
    <path d="M 294.436276 76.854196 
C 294.966682 76.854196 295.475435 76.643464 295.850489 76.26841 
C 296.225543 75.893356 296.436276 75.384603 296.436276 74.854196 
C 296.436276 74.32379 296.225543 73.815037 295.850489 73.439983 
C 295.475435 73.064929 294.966682 72.854196 294.436276 72.854196 
C 293.905869 72.854196 293.397116 73.064929 293.022062 73.439983 
C 292.647008 73.815037 292.436276 74.32379 292.436276 74.854196 
C 292.436276 75.384603 292.647008 75.893356 293.022062 76.26841 
C 293.397116 76.643464 293.905869 76.854196 294.436276 76.854196 
z
" clip-path="url(#p067c8a8009)" style="fill: #6a6d73; fill-opacity: 0.75"/>
   </g>
   <g id="PathCollection_27">
    <path d="M 236.045767 57.019866 
C 236.576173 57.019866 237.084926 56.809134 237.45998 56.43408 
C 237.835034 56.059026 238.045767 55.550272 238.045767 55.019866 
C 238.045767 54.48946 237.835034 53.980706 237.45998 53.605653 
C 237.084926 53.230599 236.576173 53.019866 236.045767 53.019866 
C 235.515361 53.019866 235.006607 53.230599 234.631553 53.605653 
C 234.256499 53.980706 234.045767 54.48946 234.045767 55.019866 
C 234.045767 55.550272 234.256499 56.059026 234.631553 56.43408 
C 235.006607 56.809134 235.515361 57.019866 236.045767 57.019866 
z
" clip-path="url(#p067c8a8009)" style="fill: #6a6d73; fill-opacity: 0.75"/>
   </g>
   <g id="PathCollection_28">
    <path d="M 299.553379 54.390609 
C 300.083785 54.390609 300.592539 54.179876 300.967593 53.804822 
C 301.342646 53.429768 301.553379 52.921015 301.553379 52.390609 
C 301.553379 51.860202 301.342646 51.351449 300.967593 50.976395 
C 300.592539 50.601341 300.083785 50.390609 299.553379 50.390609 
C 299.022973 50.390609 298.514219 50.601341 298.139165 50.976395 
C 297.764112 51.351449 297.553379 51.860202 297.553379 52.390609 
C 297.553379 52.921015 297.764112 53.429768 298.139165 53.804822 
C 298.514219 54.179876 299.022973 54.390609 299.553379 54.390609 
z
" clip-path="url(#p067c8a8009)" style="fill: #6a6d73; fill-opacity: 0.75"/>
   </g>
   <g id="PathCollection_29">
    <path d="M 322.506128 67.394701 
C 323.036534 67.394701 323.545288 67.183969 323.920341 66.808915 
C 324.295395 66.433861 324.506128 65.925107 324.506128 65.394701 
C 324.506128 64.864295 324.295395 64.355541 323.920341 63.980488 
C 323.545288 63.605434 323.036534 63.394701 322.506128 63.394701 
C 321.975722 63.394701 321.466968 63.605434 321.091914 63.980488 
C 320.71686 64.355541 320.506128 64.864295 320.506128 65.394701 
C 320.506128 65.925107 320.71686 66.433861 321.091914 66.808915 
C 321.466968 67.183969 321.975722 67.394701 322.506128 67.394701 
z
" clip-path="url(#p067c8a8009)" style="fill: #6a6d73; fill-opacity: 0.75"/>
   </g>
   <g id="PathCollection_30">
    <path d="M 283.183548 104.4153 
C 283.713954 104.4153 284.222707 104.204568 284.597761 103.829514 
C 284.972815 103.45446 285.183548 102.945706 285.183548 102.4153 
C 285.183548 101.884894 284.972815 101.376141 284.597761 101.001087 
C 284.222707 100.626033 283.713954 100.4153 283.183548 100.4153 
C 282.653141 100.4153 282.144388 100.626033 281.769334 101.001087 
C 281.39428 101.376141 281.183548 101.884894 281.183548 102.4153 
C 281.183548 102.945706 281.39428 103.45446 281.769334 103.829514 
C 282.144388 104.204568 282.653141 104.4153 283.183548 104.4153 
z
" clip-path="url(#p067c8a8009)" style="fill: #6a6d73; fill-opacity: 0.75"/>
   </g>
   <g id="PathCollection_31">
    <path d="M 297.949539 89.098026 
C 298.479945 89.098026 298.988699 88.887294 299.363752 88.51224 
C 299.738806 88.137186 299.949539 87.628432 299.949539 87.098026 
C 299.949539 86.56762 299.738806 86.058866 299.363752 85.683813 
C 298.988699 85.308759 298.479945 85.098026 297.949539 85.098026 
C 297.419133 85.098026 296.910379 85.308759 296.535325 85.683813 
C 296.160271 86.058866 295.949539 86.56762 295.949539 87.098026 
C 295.949539 87.628432 296.160271 88.137186 296.535325 88.51224 
C 296.910379 88.887294 297.419133 89.098026 297.949539 89.098026 
z
" clip-path="url(#p067c8a8009)" style="fill: #6a6d73; fill-opacity: 0.75"/>
   </g>
   <g id="PathCollection_32">
    <path d="M 266.16154 103.649217 
C 266.691947 103.649217 267.2007 103.438484 267.575754 103.063431 
C 267.950808 102.688377 268.16154 102.179623 268.16154 101.649217 
C 268.16154 101.118811 267.950808 100.610057 267.575754 100.235003 
C 267.2007 99.85995 266.691947 99.649217 266.16154 99.649217 
C 265.631134 99.649217 265.122381 99.85995 264.747327 100.235003 
C 264.372273 100.610057 264.16154 101.118811 264.16154 101.649217 
C 264.16154 102.179623 264.372273 102.688377 264.747327 103.063431 
C 265.122381 103.438484 265.631134 103.649217 266.16154 103.649217 
z
" clip-path="url(#p067c8a8009)" style="fill: #6a6d73; fill-opacity: 0.75"/>
   </g>
   <g id="PathCollection_33">
    <path d="M 250.837746 87.301205 
C 251.368153 87.301205 251.876906 87.090472 252.25196 86.715418 
C 252.627014 86.340364 252.837746 85.831611 252.837746 85.301205 
C 252.837746 84.770798 252.627014 84.262045 252.25196 83.886991 
C 251.876906 83.511937 251.368153 83.301205 250.837746 83.301205 
C 250.30734 83.301205 249.798587 83.511937 249.423533 83.886991 
C 249.048479 84.262045 248.837746 84.770798 248.837746 85.301205 
C 248.837746 85.831611 249.048479 86.340364 249.423533 86.715418 
C 249.798587 87.090472 250.30734 87.301205 250.837746 87.301205 
z
" clip-path="url(#p067c8a8009)" style="fill: #6a6d73; fill-opacity: 0.75"/>
   </g>
   <g id="PathCollection_34">
    <path d="M 317.989754 120.740078 
C 318.52016 120.740078 319.028914 120.529346 319.403968 120.154292 
C 319.779022 119.779238 319.989754 119.270484 319.989754 118.740078 
C 319.989754 118.209672 319.779022 117.700918 319.403968 117.325865 
C 319.028914 116.950811 318.52016 116.740078 317.989754 116.740078 
C 317.459348 116.740078 316.950594 116.950811 316.575541 117.325865 
C 316.200487 117.700918 315.989754 118.209672 315.989754 118.740078 
C 315.989754 119.270484 316.200487 119.779238 316.575541 120.154292 
C 316.950594 120.529346 317.459348 120.740078 317.989754 120.740078 
z
" clip-path="url(#p067c8a8009)" style="fill: #6a6d73; fill-opacity: 0.75"/>
   </g>
   <g id="PathCollection_35">
    <path d="M 236.252632 70.133069 
C 236.783038 70.133069 237.291791 69.922336 237.666845 69.547283 
C 238.041899 69.172229 238.252632 68.663475 238.252632 68.133069 
C 238.252632 67.602663 238.041899 67.093909 237.666845 66.718856 
C 237.291791 66.343802 236.783038 66.133069 236.252632 66.133069 
C 235.722225 66.133069 235.213472 66.343802 234.838418 66.718856 
C 234.463364 67.093909 234.252632 67.602663 234.252632 68.133069 
C 234.252632 68.663475 234.463364 69.172229 234.838418 69.547283 
C 235.213472 69.922336 235.722225 70.133069 236.252632 70.133069 
z
" clip-path="url(#p067c8a8009)" style="fill: #6a6d73; fill-opacity: 0.75"/>
   </g>
   <g id="PathCollection_36">
    <path d="M 322.588038 62.576012 
C 323.118444 62.576012 323.627197 62.36528 324.002251 61.990226 
C 324.377305 61.615172 324.588038 61.106419 324.588038 60.576012 
C 324.588038 60.045606 324.377305 59.536853 324.002251 59.161799 
C 323.627197 58.786745 323.118444 58.576012 322.588038 58.576012 
C 322.057631 58.576012 321.548878 58.786745 321.173824 59.161799 
C 320.79877 59.536853 320.588038 60.045606 320.588038 60.576012 
C 320.588038 61.106419 320.79877 61.615172 321.173824 61.990226 
C 321.548878 62.36528 322.057631 62.576012 322.588038 62.576012 
z
" clip-path="url(#p067c8a8009)" style="fill: #6a6d73; fill-opacity: 0.75"/>
   </g>
   <g id="PathCollection_37">
    <path d="M 223.091637 131.579296 
C 223.622043 131.579296 224.130797 131.368563 224.505851 130.993509 
C 224.880904 130.618455 225.091637 130.109702 225.091637 129.579296 
C 225.091637 129.048889 224.880904 128.540136 224.505851 128.165082 
C 224.130797 127.790028 223.622043 127.579296 223.091637 127.579296 
C 222.561231 127.579296 222.052477 127.790028 221.677423 128.165082 
C 221.30237 128.540136 221.091637 129.048889 221.091637 129.579296 
C 221.091637 130.109702 221.30237 130.618455 221.677423 130.993509 
C 222.052477 131.368563 222.561231 131.579296 223.091637 131.579296 
z
" clip-path="url(#p067c8a8009)" style="fill: #6a6d73; fill-opacity: 0.75"/>
   </g>
   <g id="PathCollection_38">
    <path d="M 290.27009 91.872279 
C 290.800496 91.872279 291.30925 91.661547 291.684304 91.286493 
C 292.059357 90.911439 292.27009 90.402685 292.27009 89.872279 
C 292.27009 89.341873 292.059357 88.833119 291.684304 88.458066 
C 291.30925 88.083012 290.800496 87.872279 290.27009 87.872279 
C 289.739684 87.872279 289.23093 88.083012 288.855876 88.458066 
C 288.480823 88.833119 288.27009 89.341873 288.27009 89.872279 
C 288.27009 90.402685 288.480823 90.911439 288.855876 91.286493 
C 289.23093 91.661547 289.739684 91.872279 290.27009 91.872279 
z
" clip-path="url(#p067c8a8009)" style="fill: #6a6d73; fill-opacity: 0.75"/>
   </g>
   <g id="PathCollection_39">
    <path d="M 246.3091 53.68805 
C 246.839507 53.68805 247.34826 53.477317 247.723314 53.102264 
C 248.098368 52.72721 248.3091 52.218456 248.3091 51.68805 
C 248.3091 51.157644 248.098368 50.64889 247.723314 50.273836 
C 247.34826 49.898783 246.839507 49.68805 246.3091 49.68805 
C 245.778694 49.68805 245.269941 49.898783 244.894887 50.273836 
C 244.519833 50.64889 244.3091 51.157644 244.3091 51.68805 
C 244.3091 52.218456 244.519833 52.72721 244.894887 53.102264 
C 245.269941 53.477317 245.778694 53.68805 246.3091 53.68805 
z
" clip-path="url(#p067c8a8009)" style="fill: #6a6d73; fill-opacity: 0.75"/>
   </g>
   <g id="PathCollection_40">
    <path d="M 312.423106 71.962454 
C 312.953513 71.962454 313.462266 71.751722 313.83732 71.376668 
C 314.212374 71.001614 314.423106 70.492861 314.423106 69.962454 
C 314.423106 69.432048 314.212374 68.923295 313.83732 68.548241 
C 313.462266 68.173187 312.953513 67.962454 312.423106 67.962454 
C 311.8927 67.962454 311.383947 68.173187 311.008893 68.548241 
C 310.633839 68.923295 310.423106 69.432048 310.423106 69.962454 
C 310.423106 70.492861 310.633839 71.001614 311.008893 71.376668 
C 311.383947 71.751722 311.8927 71.962454 312.423106 71.962454 
z
" clip-path="url(#p067c8a8009)" style="fill: #6a6d73; fill-opacity: 0.75"/>
   </g>
   <g id="PathCollection_41">
    <path d="M 286.948258 65.787698 
C 287.478664 65.787698 287.987418 65.576965 288.362471 65.201912 
C 288.737525 64.826858 288.948258 64.318104 288.948258 63.787698 
C 288.948258 63.257292 288.737525 62.748538 288.362471 62.373485 
C 287.987418 61.998431 287.478664 61.787698 286.948258 61.787698 
C 286.417852 61.787698 285.909098 61.998431 285.534044 62.373485 
C 285.15899 62.748538 284.948258 63.257292 284.948258 63.787698 
C 284.948258 64.318104 285.15899 64.826858 285.534044 65.201912 
C 285.909098 65.576965 286.417852 65.787698 286.948258 65.787698 
z
" clip-path="url(#p067c8a8009)" style="fill: #6a6d73; fill-opacity: 0.75"/>
   </g>
   <g id="PathCollection_42">
    <path d="M 327.07151 61.672861 
C 327.601916 61.672861 328.110669 61.462129 328.485723 61.087075 
C 328.860777 60.712021 329.07151 60.203267 329.07151 59.672861 
C 329.07151 59.142455 328.860777 58.633701 328.485723 58.258648 
C 328.110669 57.883594 327.601916 57.672861 327.07151 57.672861 
C 326.541103 57.672861 326.03235 57.883594 325.657296 58.258648 
C 325.282242 58.633701 325.07151 59.142455 325.07151 59.672861 
C 325.07151 60.203267 325.282242 60.712021 325.657296 61.087075 
C 326.03235 61.462129 326.541103 61.672861 327.07151 61.672861 
z
" clip-path="url(#p067c8a8009)" style="fill: #6a6d73; fill-opacity: 0.75"/>
   </g>
   <g id="PathCollection_43">
    <path d="M 295.068959 63.261412 
C 295.599365 63.261412 296.108119 63.050679 296.483173 62.675625 
C 296.858227 62.300572 297.068959 61.791818 297.068959 61.261412 
C 297.068959 60.731006 296.858227 60.222252 296.483173 59.847198 
C 296.108119 59.472144 295.599365 59.261412 295.068959 59.261412 
C 294.538553 59.261412 294.029799 59.472144 293.654746 59.847198 
C 293.279692 60.222252 293.068959 60.731006 293.068959 61.261412 
C 293.068959 61.791818 293.279692 62.300572 293.654746 62.675625 
C 294.029799 63.050679 294.538553 63.261412 295.068959 63.261412 
z
" clip-path="url(#p067c8a8009)" style="fill: #6a6d73; fill-opacity: 0.75"/>
   </g>
   <g id="PathCollection_44">
    <path d="M 232.961028 46.906062 
C 233.491434 46.906062 234.000187 46.69533 234.375241 46.320276 
C 234.750295 45.945222 234.961028 45.436469 234.961028 44.906062 
C 234.961028 44.375656 234.750295 43.866903 234.375241 43.491849 
C 234.000187 43.116795 233.491434 42.906062 232.961028 42.906062 
C 232.430622 42.906062 231.921868 43.116795 231.546814 43.491849 
C 231.17176 43.866903 230.961028 44.375656 230.961028 44.906062 
C 230.961028 45.436469 231.17176 45.945222 231.546814 46.320276 
C 231.921868 46.69533 232.430622 46.906062 232.961028 46.906062 
z
" clip-path="url(#p067c8a8009)" style="fill: #6a6d73; fill-opacity: 0.75"/>
   </g>
   <g id="PathCollection_45">
    <path d="M 243.126878 164.949651 
C 243.657284 164.949651 244.166038 164.738919 244.541091 164.363865 
C 244.916145 163.988811 245.126878 163.480057 245.126878 162.949651 
C 245.126878 162.419245 244.916145 161.910491 244.541091 161.535438 
C 244.166038 161.160384 243.657284 160.949651 243.126878 160.949651 
C 242.596472 160.949651 242.087718 161.160384 241.712664 161.535438 
C 241.33761 161.910491 241.126878 162.419245 241.126878 162.949651 
C 241.126878 163.480057 241.33761 163.988811 241.712664 164.363865 
C 242.087718 164.738919 242.596472 164.949651 243.126878 164.949651 
z
" clip-path="url(#p067c8a8009)" style="fill: #cfcdc4; fill-opacity: 0.75"/>
   </g>
   <g id="PathCollection_46">
    <path d="M 155.960507 190.871101 
C 156.490913 190.871101 156.999667 190.660369 157.37472 190.285315 
C 157.749774 189.910261 157.960507 189.401507 157.960507 188.871101 
C 157.960507 188.340695 157.749774 187.831941 157.37472 187.456888 
C 156.999667 187.081834 156.490913 186.871101 155.960507 186.871101 
C 155.430101 186.871101 154.921347 187.081834 154.546293 187.456888 
C 154.171239 187.831941 153.960507 188.340695 153.960507 188.871101 
C 153.960507 189.401507 154.171239 189.910261 154.546293 190.285315 
C 154.921347 190.660369 155.430101 190.871101 155.960507 190.871101 
z
" clip-path="url(#p067c8a8009)" style="fill: #cfcdc4; fill-opacity: 0.75"/>
   </g>
   <g id="PathCollection_47">
    <path d="M 239.769995 217.109643 
C 240.300401 217.109643 240.809154 216.898911 241.184208 216.523857 
C 241.559262 216.148803 241.769995 215.64005 241.769995 215.109643 
C 241.769995 214.579237 241.559262 214.070484 241.184208 213.69543 
C 240.809154 213.320376 240.300401 213.109643 239.769995 213.109643 
C 239.239589 213.109643 238.730835 213.320376 238.355781 213.69543 
C 237.980727 214.070484 237.769995 214.579237 237.769995 215.109643 
C 237.769995 215.64005 237.980727 216.148803 238.355781 216.523857 
C 238.730835 216.898911 239.239589 217.109643 239.769995 217.109643 
z
" clip-path="url(#p067c8a8009)" style="fill: #cfcdc4; fill-opacity: 0.75"/>
   </g>
   <g id="PathCollection_48">
    <path d="M 209.226538 154.03331 
C 209.756944 154.03331 210.265698 153.822577 210.640752 153.447523 
C 211.015806 153.07247 211.226538 152.563716 211.226538 152.03331 
C 211.226538 151.502904 211.015806 150.99415 210.640752 150.619096 
C 210.265698 150.244043 209.756944 150.03331 209.226538 150.03331 
C 208.696132 150.03331 208.187378 150.244043 207.812325 150.619096 
C 207.437271 150.99415 207.226538 151.502904 207.226538 152.03331 
C 207.226538 152.563716 207.437271 153.07247 207.812325 153.447523 
C 208.187378 153.822577 208.696132 154.03331 209.226538 154.03331 
z
" clip-path="url(#p067c8a8009)" style="fill: #cfcdc4; fill-opacity: 0.75"/>
   </g>
   <g id="PathCollection_49">
    <path d="M 175.682067 140.873676 
C 176.212473 140.873676 176.721226 140.662943 177.09628 140.287889 
C 177.471334 139.912835 177.682067 139.404082 177.682067 138.873676 
C 177.682067 138.34327 177.471334 137.834516 177.09628 137.459462 
C 176.721226 137.084408 176.212473 136.873676 175.682067 136.873676 
C 175.15166 136.873676 174.642907 137.084408 174.267853 137.459462 
C 173.892799 137.834516 173.682067 138.34327 173.682067 138.873676 
C 173.682067 139.404082 173.892799 139.912835 174.267853 140.287889 
C 174.642907 140.662943 175.15166 140.873676 175.682067 140.873676 
z
" clip-path="url(#p067c8a8009)" style="fill: #cfcdc4; fill-opacity: 0.75"/>
   </g>
   <g id="PathCollection_50">
    <path d="M 231.129488 180.096537 
C 231.659894 180.096537 232.168647 179.885804 232.543701 179.51075 
C 232.918755 179.135697 233.129488 178.626943 233.129488 178.096537 
C 233.129488 177.566131 232.918755 177.057377 232.543701 176.682323 
C 232.168647 176.30727 231.659894 176.096537 231.129488 176.096537 
C 230.599081 176.096537 230.090328 176.30727 229.715274 176.682323 
C 229.34022 177.057377 229.129488 177.566131 229.129488 178.096537 
C 229.129488 178.626943 229.34022 179.135697 229.715274 179.51075 
C 230.090328 179.885804 230.599081 180.096537 231.129488 180.096537 
z
" clip-path="url(#p067c8a8009)" style="fill: #cfcdc4; fill-opacity: 0.75"/>
   </g>
   <g id="PathCollection_51">
    <path d="M 224.371076 162.271119 
C 224.901483 162.271119 225.410236 162.060386 225.78529 161.685332 
C 226.160344 161.310279 226.371076 160.801525 226.371076 160.271119 
C 226.371076 159.740713 226.160344 159.231959 225.78529 158.856905 
C 225.410236 158.481851 224.901483 158.271119 224.371076 158.271119 
C 223.84067 158.271119 223.331917 158.481851 222.956863 158.856905 
C 222.581809 159.231959 222.371076 159.740713 222.371076 160.271119 
C 222.371076 160.801525 222.581809 161.310279 222.956863 161.685332 
C 223.331917 162.060386 223.84067 162.271119 224.371076 162.271119 
z
" clip-path="url(#p067c8a8009)" style="fill: #cfcdc4; fill-opacity: 0.75"/>
   </g>
   <g id="PathCollection_52">
    <path d="M 218.285957 151.222746 
C 218.816363 151.222746 219.325117 151.012014 219.700171 150.63696 
C 220.075224 150.261906 220.285957 149.753153 220.285957 149.222746 
C 220.285957 148.69234 220.075224 148.183587 219.700171 147.808533 
C 219.325117 147.433479 218.816363 147.222746 218.285957 147.222746 
C 217.755551 147.222746 217.246797 147.433479 216.871744 147.808533 
C 216.49669 148.183587 216.285957 148.69234 216.285957 149.222746 
C 216.285957 149.753153 216.49669 150.261906 216.871744 150.63696 
C 217.246797 151.012014 217.755551 151.222746 218.285957 151.222746 
z
" clip-path="url(#p067c8a8009)" style="fill: #cfcdc4; fill-opacity: 0.75"/>
   </g>
   <g id="PathCollection_53">
    <path d="M 195.015473 185.992459 
C 195.54588 185.992459 196.054633 185.781727 196.429687 185.406673 
C 196.804741 185.031619 197.015473 184.522865 197.015473 183.992459 
C 197.015473 183.462053 196.804741 182.953299 196.429687 182.578246 
C 196.054633 182.203192 195.54588 181.992459 195.015473 181.992459 
C 194.485067 181.992459 193.976314 182.203192 193.60126 182.578246 
C 193.226206 182.953299 193.015473 183.462053 193.015473 183.992459 
C 193.015473 184.522865 193.226206 185.031619 193.60126 185.406673 
C 193.976314 185.781727 194.485067 185.992459 195.015473 185.992459 
z
" clip-path="url(#p067c8a8009)" style="fill: #cfcdc4; fill-opacity: 0.75"/>
   </g>
   <g id="PathCollection_54">
    <path d="M 245.703572 176.153902 
C 246.233978 176.153902 246.742732 175.94317 247.117786 175.568116 
C 247.492839 175.193062 247.703572 174.684309 247.703572 174.153902 
C 247.703572 173.623496 247.492839 173.114743 247.117786 172.739689 
C 246.742732 172.364635 246.233978 172.153902 245.703572 172.153902 
C 245.173166 172.153902 244.664412 172.364635 244.289359 172.739689 
C 243.914305 173.114743 243.703572 173.623496 243.703572 174.153902 
C 243.703572 174.684309 243.914305 175.193062 244.289359 175.568116 
C 244.664412 175.94317 245.173166 176.153902 245.703572 176.153902 
z
" clip-path="url(#p067c8a8009)" style="fill: #cfcdc4; fill-opacity: 0.75"/>
   </g>
   <g id="PathCollection_55">
    <path d="M 188.500429 155.661554 
C 189.030835 155.661554 189.539588 155.450822 189.914642 155.075768 
C 190.289696 154.700714 190.500429 154.19196 190.500429 153.661554 
C 190.500429 153.131148 190.289696 152.622394 189.914642 152.247341 
C 189.539588 151.872287 189.030835 151.661554 188.500429 151.661554 
C 187.970023 151.661554 187.461269 151.872287 187.086215 152.247341 
C 186.711161 152.622394 186.500429 153.131148 186.500429 153.661554 
C 186.500429 154.19196 186.711161 154.700714 187.086215 155.075768 
C 187.461269 155.450822 187.970023 155.661554 188.500429 155.661554 
z
" clip-path="url(#p067c8a8009)" style="fill: #cfcdc4; fill-opacity: 0.75"/>
   </g>
   <g id="PathCollection_56">
    <path d="M 258.316248 186.662941 
C 258.846654 186.662941 259.355407 186.452209 259.730461 186.077155 
C 260.105515 185.702101 260.316248 185.193348 260.316248 184.662941 
C 260.316248 184.132535 260.105515 183.623782 259.730461 183.248728 
C 259.355407 182.873674 258.846654 182.662941 258.316248 182.662941 
C 257.785841 182.662941 257.277088 182.873674 256.902034 183.248728 
C 256.52698 183.623782 256.316248 184.132535 256.316248 184.662941 
C 256.316248 185.193348 256.52698 185.702101 256.902034 186.077155 
C 257.277088 186.452209 257.785841 186.662941 258.316248 186.662941 
z
" clip-path="url(#p067c8a8009)" style="fill: #cfcdc4; fill-opacity: 0.75"/>
   </g>
   <g id="PathCollection_57">
    <path d="M 173.634443 179.753595 
C 174.164849 179.753595 174.673602 179.542863 175.048656 179.167809 
C 175.42371 178.792755 175.634443 178.284001 175.634443 177.753595 
C 175.634443 177.223189 175.42371 176.714435 175.048656 176.339382 
C 174.673602 175.964328 174.164849 175.753595 173.634443 175.753595 
C 173.104036 175.753595 172.595283 175.964328 172.220229 176.339382 
C 171.845175 176.714435 171.634443 177.223189 171.634443 177.753595 
C 171.634443 178.284001 171.845175 178.792755 172.220229 179.167809 
C 172.595283 179.542863 173.104036 179.753595 173.634443 179.753595 
z
" clip-path="url(#p067c8a8009)" style="fill: #cfcdc4; fill-opacity: 0.75"/>
   </g>
   <g id="PathCollection_58">
    <path d="M 210.26824 183.391264 
C 210.798646 183.391264 211.3074 183.180532 211.682454 182.805478 
C 212.057508 182.430424 212.26824 181.921671 212.26824 181.391264 
C 212.26824 180.860858 212.057508 180.352105 211.682454 179.977051 
C 211.3074 179.601997 210.798646 179.391264 210.26824 179.391264 
C 209.737834 179.391264 209.22908 179.601997 208.854027 179.977051 
C 208.478973 180.352105 208.26824 180.860858 208.26824 181.391264 
C 208.26824 181.921671 208.478973 182.430424 208.854027 182.805478 
C 209.22908 183.180532 209.737834 183.391264 210.26824 183.391264 
z
" clip-path="url(#p067c8a8009)" style="fill: #cfcdc4; fill-opacity: 0.75"/>
   </g>
   <g id="PathCollection_59">
    <path d="M 256.509004 199.633883 
C 257.03941 199.633883 257.548164 199.423151 257.923218 199.048097 
C 258.298271 198.673043 258.509004 198.16429 258.509004 197.633883 
C 258.509004 197.103477 258.298271 196.594724 257.923218 196.21967 
C 257.548164 195.844616 257.03941 195.633883 256.509004 195.633883 
C 255.978598 195.633883 255.469844 195.844616 255.09479 196.21967 
C 254.719737 196.594724 254.509004 197.103477 254.509004 197.633883 
C 254.509004 198.16429 254.719737 198.673043 255.09479 199.048097 
C 255.469844 199.423151 255.978598 199.633883 256.509004 199.633883 
z
" clip-path="url(#p067c8a8009)" style="fill: #cfcdc4; fill-opacity: 0.75"/>
   </g>
   <g id="PathCollection_60">
    <path d="M 252.218098 205.012584 
C 252.748505 205.012584 253.257258 204.801851 253.632312 204.426797 
C 254.007366 204.051743 254.218098 203.54299 254.218098 203.012584 
C 254.218098 202.482178 254.007366 201.973424 253.632312 201.59837 
C 253.257258 201.223316 252.748505 201.012584 252.218098 201.012584 
C 251.687692 201.012584 251.178939 201.223316 250.803885 201.59837 
C 250.428831 201.973424 250.218098 202.482178 250.218098 203.012584 
C 250.218098 203.54299 250.428831 204.051743 250.803885 204.426797 
C 251.178939 204.801851 251.687692 205.012584 252.218098 205.012584 
z
" clip-path="url(#p067c8a8009)" style="fill: #cfcdc4; fill-opacity: 0.75"/>
   </g>
   <g id="PathCollection_61">
    <path d="M 191.280745 162.679107 
C 191.811151 162.679107 192.319905 162.468375 192.694959 162.093321 
C 193.070013 161.718267 193.280745 161.209513 193.280745 160.679107 
C 193.280745 160.148701 193.070013 159.639947 192.694959 159.264894 
C 192.319905 158.88984 191.811151 158.679107 191.280745 158.679107 
C 190.750339 158.679107 190.241585 158.88984 189.866532 159.264894 
C 189.491478 159.639947 189.280745 160.148701 189.280745 160.679107 
C 189.280745 161.209513 189.491478 161.718267 189.866532 162.093321 
C 190.241585 162.468375 190.750339 162.679107 191.280745 162.679107 
z
" clip-path="url(#p067c8a8009)" style="fill: #cfcdc4; fill-opacity: 0.75"/>
   </g>
   <g id="PathCollection_62">
    <path d="M 248.292863 157.610234 
C 248.823269 157.610234 249.332023 157.399501 249.707077 157.024447 
C 250.082131 156.649394 250.292863 156.14064 250.292863 155.610234 
C 250.292863 155.079828 250.082131 154.571074 249.707077 154.19602 
C 249.332023 153.820967 248.823269 153.610234 248.292863 153.610234 
C 247.762457 153.610234 247.253704 153.820967 246.87865 154.19602 
C 246.503596 154.571074 246.292863 155.079828 246.292863 155.610234 
C 246.292863 156.14064 246.503596 156.649394 246.87865 157.024447 
C 247.253704 157.399501 247.762457 157.610234 248.292863 157.610234 
z
" clip-path="url(#p067c8a8009)" style="fill: #cfcdc4; fill-opacity: 0.75"/>
   </g>
   <g id="PathCollection_63">
    <path d="M 224.976928 173.578981 
C 225.507334 173.578981 226.016088 173.368249 226.391142 172.993195 
C 226.766196 172.618141 226.976928 172.109388 226.976928 171.578981 
C 226.976928 171.048575 226.766196 170.539822 226.391142 170.164768 
C 226.016088 169.789714 225.507334 169.578981 224.976928 169.578981 
C 224.446522 169.578981 223.937768 169.789714 223.562715 170.164768 
C 223.187661 170.539822 222.976928 171.048575 222.976928 171.578981 
C 222.976928 172.109388 223.187661 172.618141 223.562715 172.993195 
C 223.937768 173.368249 224.446522 173.578981 224.976928 173.578981 
z
" clip-path="url(#p067c8a8009)" style="fill: #cfcdc4; fill-opacity: 0.75"/>
   </g>
   <g id="PathCollection_64">
    <path d="M 219.240898 163.932304 
C 219.771304 163.932304 220.280058 163.721571 220.655111 163.346517 
C 221.030165 162.971464 221.240898 162.46271 221.240898 161.932304 
C 221.240898 161.401898 221.030165 160.893144 220.655111 160.51809 
C 220.280058 160.143036 219.771304 159.932304 219.240898 159.932304 
C 218.710492 159.932304 218.201738 160.143036 217.826684 160.51809 
C 217.45163 160.893144 217.240898 161.401898 217.240898 161.932304 
C 217.240898 162.46271 217.45163 162.971464 217.826684 163.346517 
C 218.201738 163.721571 218.710492 163.932304 219.240898 163.932304 
z
" clip-path="url(#p067c8a8009)" style="fill: #cfcdc4; fill-opacity: 0.75"/>
   </g>
   <g id="PathCollection_65">
    <path d="M 209.459403 170.569053 
C 209.98981 170.569053 210.498563 170.358321 210.873617 169.983267 
C 211.248671 169.608213 211.459403 169.099459 211.459403 168.569053 
C 211.459403 168.038647 211.248671 167.529894 210.873617 167.15484 
C 210.498563 166.779786 209.98981 166.569053 209.459403 166.569053 
C 208.928997 166.569053 208.420244 166.779786 208.04519 167.15484 
C 207.670136 167.529894 207.459403 168.038647 207.459403 168.569053 
C 207.459403 169.099459 207.670136 169.608213 208.04519 169.983267 
C 208.420244 170.358321 208.928997 170.569053 209.459403 170.569053 
z
" clip-path="url(#p067c8a8009)" style="fill: #cfcdc4; fill-opacity: 0.75"/>
   </g>
   <g id="PathCollection_66">
    <path d="M 231.747381 176.732347 
C 232.277788 176.732347 232.786541 176.521615 233.161595 176.146561 
C 233.536649 175.771507 233.747381 175.262753 233.747381 174.732347 
C 233.747381 174.201941 233.536649 173.693187 233.161595 173.318134 
C 232.786541 172.94308 232.277788 172.732347 231.747381 172.732347 
C 231.216975 172.732347 230.708222 172.94308 230.333168 173.318134 
C 229.958114 173.693187 229.747381 174.201941 229.747381 174.732347 
C 229.747381 175.262753 229.958114 175.771507 230.333168 176.146561 
C 230.708222 176.521615 231.216975 176.732347 231.747381 176.732347 
z
" clip-path="url(#p067c8a8009)" style="fill: #cfcdc4; fill-opacity: 0.75"/>
   </g>
   <g id="line2d_1">
    <path d="M 130.833949 91.697668 
L 132.810889 95.879877 
" clip-path="url(#p067c8a8009)" style="fill: none; stroke: #274b6d; stroke-linecap: square"/>
   </g>
   <g id="line2d_2">
    <path d="M 130.833949 91.697668 
L 126.396749 82.59224 
" clip-path="url(#p067c8a8009)" style="fill: none; stroke: #274b6d; stroke-linecap: square"/>
   </g>
   <g id="line2d_3">
    <path d="M 130.833949 91.697668 
L 129.05502 77.439644 
" clip-path="url(#p067c8a8009)" style="fill: none; stroke: #274b6d; stroke-linecap: square"/>
   </g>
   <g id="text_3">
    <text style="fill: #9c6b12; font: 9px 'DejaVu Sans', 'Helvetica', 'Arial', sans-serif; text-anchor: start" x="68.608494" y="69.415053" transform="rotate(-0 68.608494 69.415053)">query</text>
   </g>
   <g id="text_4">
    <text style="fill: #274b6d; font: 8px 'DejaVu Sans', 'Helvetica', 'Arial', sans-serif" transform="translate(230.935767 40.19988)">nearest neighbors</text>
    <text style="fill: #274b6d; font: 8px 'DejaVu Sans', 'Helvetica', 'Arial', sans-serif" transform="translate(230.935767 49.15813)">= relevant passages</text>
   </g>
   <g id="text_5">
    <text style="fill: #17181b; font: 700 10px 'DejaVu Sans', 'Helvetica', 'Arial', sans-serif; text-anchor: start" x="19.910312" y="14.798437" transform="rotate(-0 19.910312 14.798437)">The encoder turns meaning into proximity</text>
   </g>
   <g id="PathCollection_67">
    <defs>
     <path id="m08b0a63897" d="M 0 3.162278 
C 0.838646 3.162278 1.643056 2.82908 2.236068 2.236068 
C 2.82908 1.643056 3.162278 0.838646 3.162278 0 
C 3.162278 -0.838646 2.82908 -1.643056 2.236068 -2.236068 
C 1.643056 -2.82908 0.838646 -3.162278 0 -3.162278 
C -0.838646 -3.162278 -1.643056 -2.82908 -2.236068 -2.236068 
C -2.82908 -1.643056 -3.162278 -0.838646 -3.162278 0 
C -3.162278 0.838646 -2.82908 1.643056 -2.236068 2.236068 
C -1.643056 2.82908 -0.838646 3.162278 0 3.162278 
z
" style="stroke: #ffffff; stroke-width: 0.6"/>
    </defs>
    <g clip-path="url(#p067c8a8009)">
     <use xlink:href="#m08b0a63897" x="132.810889" y="95.879877" style="fill: #274b6d; stroke: #ffffff; stroke-width: 0.6"/>
    </g>
   </g>
   <g id="PathCollection_68">
    <g clip-path="url(#p067c8a8009)">
     <use xlink:href="#m08b0a63897" x="126.396749" y="82.59224" style="fill: #274b6d; stroke: #ffffff; stroke-width: 0.6"/>
    </g>
   </g>
   <g id="PathCollection_69">
    <g clip-path="url(#p067c8a8009)">
     <use xlink:href="#m08b0a63897" x="129.05502" y="77.439644" style="fill: #274b6d; stroke: #ffffff; stroke-width: 0.6"/>
    </g>
   </g>
   <g id="PathCollection_70">
    <defs>
     <path id="m88b5bf6595" d="M 0 -7.745967 
L -1.739078 -2.393635 
L -7.366852 -2.393635 
L -2.813887 0.914287 
L -4.552965 6.266619 
L -0 2.958696 
L 4.552965 6.266619 
L 2.813887 0.914287 
L 7.366852 -2.393635 
L 1.739078 -2.393635 
z
" style="stroke: #ffffff; stroke-width: 0.8"/>
    </defs>
    <g clip-path="url(#p067c8a8009)">
     <use xlink:href="#m88b5bf6595" x="130.833949" y="91.697668" style="fill: #9c6b12; stroke: #ffffff; stroke-width: 0.8"/>
    </g>
   </g>
  </g>
 </g>
 <defs>
  <clipPath id="p067c8a8009">
   <rect x="19.910312" y="20.798437" width="357.12" height="210.672"/>
  </clipPath>
 </defs>
</svg>
