<svg xmlns="http://www.w3.org/2000/svg" viewBox="0 0 720 320" font-family="-apple-system, BlinkMacSystemFont, 'Segoe UI', Helvetica, Arial, sans-serif" role="img" aria-label="selecting among many sampled reasoning chains">
<text x="24.0" y="30.0" font-size="11" font-weight="700" fill="#6a6d73" letter-spacing="1">SAMPLE MANY, THEN SELECT</text>
<rect x="24.0" y="138.0" width="84.0" height="40.0" rx="6" fill="#eaf0f6" stroke="#274b6d"/>
<text x="66.0" y="162.2" font-size="12" font-weight="400" text-anchor="middle" fill="#274b6d">prompt</text>
<defs><marker id="vs1" viewBox="0 0 10 10" refX="9" refY="5" markerWidth="6" markerHeight="6" orient="auto-start-reverse"><path d="M 0 0 L 10 5 L 0 10 z" fill="#cfcdc4"/></marker></defs>
<path d="M 112 158 C 150 158, 150 71, 170 71" fill="none" stroke="#e4e3dd" stroke-width="1.1"/>
<rect x="176.0" y="64" width="9" height="14" rx="2" fill="#6b4f9c" opacity="0.5"/>
<rect x="188.0" y="64" width="9" height="14" rx="2" fill="#6b4f9c" opacity="0.5"/>
<rect x="200.0" y="64" width="9" height="14" rx="2" fill="#6b4f9c" opacity="0.5"/>
<rect x="212.0" y="64" width="9" height="14" rx="2" fill="#6b4f9c" opacity="0.5"/>
<rect x="224.0" y="64" width="9" height="14" rx="2" fill="#6b4f9c" opacity="0.5"/>
<rect x="236.0" y="64" width="9" height="14" rx="2" fill="#6b4f9c" opacity="0.5"/>
<path d="M 254 71 L 272 71" stroke="#cfcdc4" stroke-width="1.4" marker-end="url(#vs1)"/>
<rect x="276.0" y="56.0" width="52.0" height="30.0" rx="6" fill="#fff" stroke="#cfcdc4"/>
<text x="302.0" y="75.2" font-size="12" font-weight="700" text-anchor="middle" fill="#17181b">42</text>
<text x="352.0" y="76.0" font-size="10.5" text-anchor="middle" fill="#9c6b12" font-weight="700">score 0.9</text>
<path d="M 112 158 C 150 158, 150 137, 170 137" fill="none" stroke="#e4e3dd" stroke-width="1.1"/>
<rect x="176.0" y="130" width="9" height="14" rx="2" fill="#6b4f9c" opacity="0.5"/>
<rect x="188.0" y="130" width="9" height="14" rx="2" fill="#6b4f9c" opacity="0.5"/>
<rect x="200.0" y="130" width="9" height="14" rx="2" fill="#6b4f9c" opacity="0.5"/>
<rect x="212.0" y="130" width="9" height="14" rx="2" fill="#6b4f9c" opacity="0.5"/>
<rect x="224.0" y="130" width="9" height="14" rx="2" fill="#6b4f9c" opacity="0.5"/>
<rect x="236.0" y="130" width="9" height="14" rx="2" fill="#6b4f9c" opacity="0.5"/>
<path d="M 254 137 L 272 137" stroke="#cfcdc4" stroke-width="1.4" marker-end="url(#vs1)"/>
<rect x="276.0" y="122.0" width="52.0" height="30.0" rx="6" fill="#fff" stroke="#cfcdc4"/>
<text x="302.0" y="141.2" font-size="12" font-weight="700" text-anchor="middle" fill="#17181b">38</text>
<text x="352.0" y="142.0" font-size="10.5" text-anchor="middle" fill="#9c6b12" font-weight="700">score 0.4</text>
<path d="M 112 158 C 150 158, 150 203, 170 203" fill="none" stroke="#e4e3dd" stroke-width="1.1"/>
<rect x="176.0" y="196" width="9" height="14" rx="2" fill="#6b4f9c" opacity="0.5"/>
<rect x="188.0" y="196" width="9" height="14" rx="2" fill="#6b4f9c" opacity="0.5"/>
<rect x="200.0" y="196" width="9" height="14" rx="2" fill="#6b4f9c" opacity="0.5"/>
<rect x="212.0" y="196" width="9" height="14" rx="2" fill="#6b4f9c" opacity="0.5"/>
<rect x="224.0" y="196" width="9" height="14" rx="2" fill="#6b4f9c" opacity="0.5"/>
<rect x="236.0" y="196" width="9" height="14" rx="2" fill="#6b4f9c" opacity="0.5"/>
<path d="M 254 203 L 272 203" stroke="#cfcdc4" stroke-width="1.4" marker-end="url(#vs1)"/>
<rect x="276.0" y="188.0" width="52.0" height="30.0" rx="6" fill="#fff" stroke="#cfcdc4"/>
<text x="302.0" y="207.2" font-size="12" font-weight="700" text-anchor="middle" fill="#17181b">42</text>
<text x="352.0" y="208.0" font-size="10.5" text-anchor="middle" fill="#9c6b12" font-weight="700">score 0.85</text>
<path d="M 112 158 C 150 158, 150 269, 170 269" fill="none" stroke="#e4e3dd" stroke-width="1.1"/>
<rect x="176.0" y="262" width="9" height="14" rx="2" fill="#6b4f9c" opacity="0.5"/>
<rect x="188.0" y="262" width="9" height="14" rx="2" fill="#6b4f9c" opacity="0.5"/>
<rect x="200.0" y="262" width="9" height="14" rx="2" fill="#6b4f9c" opacity="0.5"/>
<rect x="212.0" y="262" width="9" height="14" rx="2" fill="#6b4f9c" opacity="0.5"/>
<rect x="224.0" y="262" width="9" height="14" rx="2" fill="#6b4f9c" opacity="0.5"/>
<rect x="236.0" y="262" width="9" height="14" rx="2" fill="#6b4f9c" opacity="0.5"/>
<path d="M 254 269 L 272 269" stroke="#cfcdc4" stroke-width="1.4" marker-end="url(#vs1)"/>
<rect x="276.0" y="254.0" width="52.0" height="30.0" rx="6" fill="#fff" stroke="#cfcdc4"/>
<text x="302.0" y="273.2" font-size="12" font-weight="700" text-anchor="middle" fill="#17181b">42</text>
<text x="352.0" y="274.0" font-size="10.5" text-anchor="middle" fill="#9c6b12" font-weight="700">score 0.7</text>
<rect x="556" y="70" width="140" height="76" rx="9" fill="#fff" stroke="#cfcdc4"/>
<text x="626" y="94" font-size="11" text-anchor="middle" fill="#3b3d42" font-weight="700">self-consistency</text>
<text x="626" y="112" font-size="10" text-anchor="middle" fill="#6a6d73">majority vote</text>
<rect x="596.0" y="120.0" width="60.0" height="22.0" rx="6" fill="#274b6d" stroke="none"/>
<text x="626.0" y="135.2" font-size="12" font-weight="700" text-anchor="middle" fill="#fff">42</text>
<rect x="556" y="170" width="140" height="76" rx="9" fill="#fff" stroke="#cfcdc4"/>
<text x="626" y="194" font-size="11" text-anchor="middle" fill="#3b3d42" font-weight="700">verifier</text>
<text x="626" y="212" font-size="10" text-anchor="middle" fill="#6a6d73">best of n by score</text>
<rect x="596.0" y="220.0" width="60.0" height="22.0" rx="6" fill="#9c6b12" stroke="none"/>
<text x="626.0" y="235.2" font-size="12" font-weight="700" text-anchor="middle" fill="#fff">42</text>
<text x="360.0" y="308" font-size="10.5" text-anchor="middle" fill="#6a6d73" font-style="italic">Voting trusts the crowd of chains; a verifier scores each one and keeps the best.</text>
</svg>