<svg xmlns="http://www.w3.org/2000/svg" viewBox="0 0 690 432" font-family="-apple-system, BlinkMacSystemFont, 'Segoe UI', Helvetica, Arial, sans-serif" role="img" aria-label="Per-GPU memory under data parallelism and the three ZeRO stages.">
<text x="168.0" y="30.0" font-size="11" font-weight="700" fill="#6a6d73" letter-spacing="1">GPU 0</text>
<text x="276.0" y="30.0" font-size="11" font-weight="700" fill="#6a6d73" letter-spacing="1">GPU 1</text>
<text x="384.0" y="30.0" font-size="11" font-weight="700" fill="#6a6d73" letter-spacing="1">GPU 2</text>
<text x="492.0" y="30.0" font-size="11" font-weight="700" fill="#6a6d73" letter-spacing="1">GPU 3</text>
<text x="670" y="30" font-size="11" font-weight="700" text-anchor="end" fill="#6a6d73" letter-spacing="1">BYTES/PARAM</text>
<text x="20" y="94" font-size="12" font-weight="700" fill="#17181b">Plain DP</text>
<rect x="168" y="113.6" width="22" height="8.4" rx="2" fill="#274b6d" opacity="0.95"/>
<text x="179.0" y="135" font-size="9" text-anchor="middle" fill="#274b6d">P</text>
<rect x="196" y="113.6" width="22" height="8.4" rx="2" fill="#6b4f9c" opacity="0.95"/>
<text x="207.0" y="135" font-size="9" text-anchor="middle" fill="#6b4f9c">G</text>
<rect x="224" y="71.6" width="22" height="50.4" rx="2" fill="#9c6b12" opacity="0.95"/>
<text x="235.0" y="135" font-size="9" text-anchor="middle" fill="#9c6b12">O</text>
<rect x="276" y="113.6" width="22" height="8.4" rx="2" fill="#274b6d" opacity="0.95"/>
<rect x="304" y="113.6" width="22" height="8.4" rx="2" fill="#6b4f9c" opacity="0.95"/>
<rect x="332" y="71.6" width="22" height="50.4" rx="2" fill="#9c6b12" opacity="0.95"/>
<rect x="384" y="113.6" width="22" height="8.4" rx="2" fill="#274b6d" opacity="0.95"/>
<rect x="412" y="113.6" width="22" height="8.4" rx="2" fill="#6b4f9c" opacity="0.95"/>
<rect x="440" y="71.6" width="22" height="50.4" rx="2" fill="#9c6b12" opacity="0.95"/>
<rect x="492" y="113.6" width="22" height="8.4" rx="2" fill="#274b6d" opacity="0.95"/>
<rect x="520" y="113.6" width="22" height="8.4" rx="2" fill="#6b4f9c" opacity="0.95"/>
<rect x="548" y="71.6" width="22" height="50.4" rx="2" fill="#9c6b12" opacity="0.95"/>
<text x="670" y="98" font-size="11" text-anchor="end" fill="#3b3d42" font-variant="tabular-nums">16 / GPU</text>
<text x="20" y="188" font-size="12" font-weight="700" fill="#17181b">ZeRO-1</text>
<rect x="168" y="207.6" width="22" height="8.4" rx="2" fill="#274b6d" opacity="0.95"/>
<rect x="196" y="207.6" width="22" height="8.4" rx="2" fill="#6b4f9c" opacity="0.95"/>
<rect x="224" y="203.4" width="22" height="12.6" rx="2" fill="#9c6b12" opacity="0.45"/>
<rect x="276" y="207.6" width="22" height="8.4" rx="2" fill="#274b6d" opacity="0.95"/>
<rect x="304" y="207.6" width="22" height="8.4" rx="2" fill="#6b4f9c" opacity="0.95"/>
<rect x="332" y="203.4" width="22" height="12.6" rx="2" fill="#9c6b12" opacity="0.45"/>
<rect x="384" y="207.6" width="22" height="8.4" rx="2" fill="#274b6d" opacity="0.95"/>
<rect x="412" y="207.6" width="22" height="8.4" rx="2" fill="#6b4f9c" opacity="0.95"/>
<rect x="440" y="203.4" width="22" height="12.6" rx="2" fill="#9c6b12" opacity="0.45"/>
<rect x="492" y="207.6" width="22" height="8.4" rx="2" fill="#274b6d" opacity="0.95"/>
<rect x="520" y="207.6" width="22" height="8.4" rx="2" fill="#6b4f9c" opacity="0.95"/>
<rect x="548" y="203.4" width="22" height="12.6" rx="2" fill="#9c6b12" opacity="0.45"/>
<text x="670" y="192" font-size="11" text-anchor="end" fill="#3b3d42" font-variant="tabular-nums">4 + 12/N</text>
<text x="20" y="282" font-size="12" font-weight="700" fill="#17181b">ZeRO-2</text>
<rect x="168" y="301.6" width="22" height="8.4" rx="2" fill="#274b6d" opacity="0.95"/>
<rect x="196" y="305.0" width="22" height="5.0" rx="2" fill="#6b4f9c" opacity="0.45"/>
<rect x="224" y="297.4" width="22" height="12.6" rx="2" fill="#9c6b12" opacity="0.45"/>
<rect x="276" y="301.6" width="22" height="8.4" rx="2" fill="#274b6d" opacity="0.95"/>
<rect x="304" y="305.0" width="22" height="5.0" rx="2" fill="#6b4f9c" opacity="0.45"/>
<rect x="332" y="297.4" width="22" height="12.6" rx="2" fill="#9c6b12" opacity="0.45"/>
<rect x="384" y="301.6" width="22" height="8.4" rx="2" fill="#274b6d" opacity="0.95"/>
<rect x="412" y="305.0" width="22" height="5.0" rx="2" fill="#6b4f9c" opacity="0.45"/>
<rect x="440" y="297.4" width="22" height="12.6" rx="2" fill="#9c6b12" opacity="0.45"/>
<rect x="492" y="301.6" width="22" height="8.4" rx="2" fill="#274b6d" opacity="0.95"/>
<rect x="520" y="305.0" width="22" height="5.0" rx="2" fill="#6b4f9c" opacity="0.45"/>
<rect x="548" y="297.4" width="22" height="12.6" rx="2" fill="#9c6b12" opacity="0.45"/>
<text x="670" y="286" font-size="11" text-anchor="end" fill="#3b3d42" font-variant="tabular-nums">2 + 14/N</text>
<text x="20" y="376" font-size="12" font-weight="700" fill="#17181b">ZeRO-3 (FSDP)</text>
<rect x="168" y="399.0" width="22" height="5.0" rx="2" fill="#274b6d" opacity="0.45"/>
<rect x="196" y="399.0" width="22" height="5.0" rx="2" fill="#6b4f9c" opacity="0.45"/>
<rect x="224" y="391.4" width="22" height="12.6" rx="2" fill="#9c6b12" opacity="0.45"/>
<rect x="276" y="399.0" width="22" height="5.0" rx="2" fill="#274b6d" opacity="0.45"/>
<rect x="304" y="399.0" width="22" height="5.0" rx="2" fill="#6b4f9c" opacity="0.45"/>
<rect x="332" y="391.4" width="22" height="12.6" rx="2" fill="#9c6b12" opacity="0.45"/>
<rect x="384" y="399.0" width="22" height="5.0" rx="2" fill="#274b6d" opacity="0.45"/>
<rect x="412" y="399.0" width="22" height="5.0" rx="2" fill="#6b4f9c" opacity="0.45"/>
<rect x="440" y="391.4" width="22" height="12.6" rx="2" fill="#9c6b12" opacity="0.45"/>
<rect x="492" y="399.0" width="22" height="5.0" rx="2" fill="#274b6d" opacity="0.45"/>
<rect x="520" y="399.0" width="22" height="5.0" rx="2" fill="#6b4f9c" opacity="0.45"/>
<rect x="548" y="391.4" width="22" height="12.6" rx="2" fill="#9c6b12" opacity="0.45"/>
<text x="670" y="380" font-size="11" text-anchor="end" fill="#3b3d42" font-variant="tabular-nums">16/N</text>
<text x="20" y="418" font-size="10.5" fill="#6a6d73" font-style="italic">P = parameters, G = gradients, O = optimizer state. Faded bars are 1/N shards; every stage computes the identical update.</text>
</svg>